<svg width="54" height="54" viewBox="0 0 54 54" fill="none" xmlns="http://www.w3.org/2000/svg">
<rect width="54" height="54" rx="27" fill="#8073FF"/>
<path d="M13.445 20.788C14.291 20.788 15.053 20.989 15.731 21.391C16.409 21.787 16.943 22.339 17.333 23.047C17.729 23.749 17.927 24.559 17.927 25.477V29.428C17.927 30.406 17.729 31.261 17.333 31.993C16.943 32.719 16.394 33.28 15.686 33.676C14.978 34.072 14.15 34.27 13.202 34.27C12.548 34.27 11.93 34.159 11.348 33.937C10.766 33.709 10.244 33.361 9.782 32.893L11.339 31.372C11.573 31.642 11.852 31.855 12.176 32.011C12.506 32.161 12.848 32.236 13.202 32.236C13.706 32.236 14.147 32.119 14.525 31.885C14.903 31.645 15.197 31.336 15.407 30.958C15.617 30.574 15.722 30.163 15.722 29.725V27.574L16.109 28.006C15.743 28.438 15.299 28.777 14.777 29.023C14.255 29.263 13.706 29.383 13.13 29.383C12.32 29.383 11.6 29.197 10.97 28.825C10.346 28.453 9.854 27.949 9.494 27.313C9.14 26.671 8.963 25.945 8.963 25.135C8.963 24.325 9.167 23.593 9.575 22.939C9.983 22.279 10.526 21.757 11.204 21.373C11.888 20.983 12.635 20.788 13.445 20.788ZM13.445 22.858C13.025 22.858 12.641 22.96 12.293 23.164C11.945 23.368 11.669 23.644 11.465 23.992C11.261 24.334 11.159 24.715 11.159 25.135C11.159 25.555 11.258 25.939 11.456 26.287C11.66 26.635 11.933 26.911 12.275 27.115C12.623 27.319 13.007 27.421 13.427 27.421C13.847 27.421 14.231 27.319 14.579 27.115C14.927 26.911 15.203 26.635 15.407 26.287C15.617 25.939 15.722 25.555 15.722 25.135C15.722 24.727 15.62 24.352 15.416 24.01C15.212 23.662 14.936 23.383 14.588 23.173C14.246 22.963 13.865 22.858 13.445 22.858ZM24.2827 34.27C23.6227 34.27 23.0077 34.135 22.4377 33.865C21.8677 33.589 21.3757 33.211 20.9617 32.731C20.5537 32.251 20.2597 31.693 20.0797 31.057L22.1677 30.499C22.2517 30.847 22.4047 31.147 22.6267 31.399C22.8547 31.651 23.1187 31.846 23.4187 31.984C23.7247 32.122 24.0397 32.191 24.3637 32.191C24.7837 32.191 25.1677 32.089 25.5157 31.885C25.8637 31.681 26.1397 31.408 26.3437 31.066C26.5477 30.718 26.6497 30.334 26.6497 29.914C26.6497 29.494 26.5447 29.113 26.3347 28.771C26.1307 28.423 25.8547 28.15 25.5067 27.952C25.1587 27.748 24.7777 27.646 24.3637 27.646C23.8657 27.646 23.4517 27.736 23.1217 27.916C22.7977 28.096 22.5487 28.288 22.3747 28.492L20.5207 27.898L20.9167 21.04H27.9547V23.074H22.0777L22.8877 22.309L22.5997 27.079L22.2037 26.593C22.5397 26.287 22.9297 26.059 23.3737 25.909C23.8177 25.759 24.2467 25.684 24.6607 25.684C25.4707 25.684 26.1877 25.87 26.8117 26.242C27.4417 26.608 27.9337 27.109 28.2877 27.745C28.6477 28.381 28.8277 29.104 28.8277 29.914C28.8277 30.724 28.6177 31.459 28.1977 32.119C27.7777 32.773 27.2227 33.295 26.5327 33.685C25.8487 34.075 25.0987 34.27 24.2827 34.27ZM32.7866 34L31.3466 32.56L42.8756 21.04L44.3156 22.489L32.7866 34ZM41.6156 34.27C41.0216 34.27 40.4786 34.126 39.9866 33.838C39.5006 33.544 39.1106 33.154 38.8166 32.668C38.5226 32.176 38.3756 31.63 38.3756 31.03C38.3756 30.442 38.5256 29.902 38.8256 29.41C39.1256 28.918 39.5216 28.525 40.0136 28.231C40.5056 27.937 41.0396 27.79 41.6156 27.79C42.2096 27.79 42.7526 27.937 43.2446 28.231C43.7366 28.519 44.1266 28.909 44.4146 29.401C44.7086 29.887 44.8556 30.43 44.8556 31.03C44.8556 31.63 44.7086 32.176 44.4146 32.668C44.1266 33.154 43.7366 33.544 43.2446 33.838C42.7526 34.126 42.2096 34.27 41.6156 34.27ZM41.6156 32.416C41.8616 32.416 42.0896 32.353 42.2996 32.227C42.5156 32.101 42.6866 31.933 42.8126 31.723C42.9386 31.513 43.0016 31.282 43.0016 31.03C43.0016 30.778 42.9386 30.547 42.8126 30.337C42.6866 30.127 42.5156 29.959 42.2996 29.833C42.0896 29.707 41.8616 29.644 41.6156 29.644C41.3636 29.644 41.1326 29.707 40.9226 29.833C40.7126 29.959 40.5416 30.127 40.4096 30.337C40.2836 30.547 40.2206 30.778 40.2206 31.03C40.2206 31.282 40.2836 31.513 40.4096 31.723C40.5416 31.933 40.7126 32.101 40.9226 32.227C41.1326 32.353 41.3636 32.416 41.6156 32.416ZM34.0466 27.25C33.4526 27.25 32.9096 27.106 32.4176 26.818C31.9256 26.524 31.5326 26.134 31.2386 25.648C30.9506 25.156 30.8066 24.61 30.8066 24.01C30.8066 23.422 30.9566 22.882 31.2566 22.39C31.5566 21.898 31.9526 21.505 32.4446 21.211C32.9366 20.917 33.4706 20.77 34.0466 20.77C34.6406 20.77 35.1806 20.917 35.6666 21.211C36.1586 21.499 36.5516 21.889 36.8456 22.381C37.1396 22.867 37.2866 23.41 37.2866 24.01C37.2866 24.61 37.1396 25.156 36.8456 25.648C36.5516 26.134 36.1586 26.524 35.6666 26.818C35.1806 27.106 34.6406 27.25 34.0466 27.25ZM34.0466 25.396C34.2986 25.396 34.5296 25.333 34.7396 25.207C34.9496 25.081 35.1176 24.913 35.2436 24.703C35.3696 24.493 35.4326 24.262 35.4326 24.01C35.4326 23.758 35.3696 23.527 35.2436 23.317C35.1176 23.107 34.9496 22.939 34.7396 22.813C34.5296 22.687 34.2986 22.624 34.0466 22.624C33.7946 22.624 33.5636 22.687 33.3536 22.813C33.1436 22.939 32.9756 23.107 32.8496 23.317C32.7236 23.527 32.6606 23.758 32.6606 24.01C32.6606 24.262 32.7236 24.493 32.8496 24.703C32.9756 24.913 33.1436 25.081 33.3536 25.207C33.5636 25.333 33.7946 25.396 34.0466 25.396Z" fill="white"/>
</svg>
