<svg width="117" height="16" viewBox="0 0 117 16" fill="none" xmlns="http://www.w3.org/2000/svg">
<rect x="38.7324" width="78.2678" height="16" rx="8" fill="#6924FF"/>
<path d="M22.3496 14.3443L22.3496 10.0684H24.333L25.2454 10.0953L32.2668 10.0953L32.875 10.0684H35.6518V14.3443H33.3246V12.3005L24.6768 12.3005V14.3443H22.3496ZM24.4388 2.21582L33.9328 2.21582V11.5475H31.4337V3.27807L32.5577 4.43444L25.7743 4.43444L26.8057 3.58733C26.8674 4.02658 26.9071 4.45237 26.9247 4.86472C26.9424 5.26811 26.9512 5.65357 26.9512 6.0211C26.9512 7.09679 26.863 8.00217 26.6867 8.73723C26.5104 9.47229 26.2459 10.0325 25.8933 10.418C25.5495 10.7945 25.122 10.9827 24.6107 10.9827L23.5661 10.0953C23.9275 9.67398 24.1964 9.08683 24.3727 8.33385C24.549 7.57189 24.6372 6.63066 24.6372 5.51014C24.6372 4.99919 24.6195 4.4703 24.5843 3.92349C24.549 3.36771 24.5005 2.79849 24.4388 2.21582Z" fill="#121212"/>
<path d="M16.1145 12.5149C14.9509 12.5149 13.9283 12.2953 13.0468 11.8561C12.1741 11.4168 11.4953 10.8028 11.0105 10.0139C10.5256 9.22509 10.2832 8.30627 10.2832 7.25747C10.2832 6.20866 10.5256 5.28984 11.0105 4.50099C11.4953 3.71215 12.1741 3.09811 13.0468 2.65886C13.9283 2.21962 14.9509 2 16.1145 2C17.2781 2 18.2963 2.21962 19.169 2.65886C20.0505 3.09811 20.7337 3.71215 21.2185 4.50099C21.7122 5.28984 21.959 6.20866 21.959 7.25747C21.959 8.30627 21.7122 9.22509 21.2185 10.0139C20.7337 10.8028 20.0505 11.4168 19.169 11.8561C18.2963 12.2953 17.2781 12.5149 16.1145 12.5149ZM16.1145 10.2425C16.8021 10.2425 17.3927 10.126 17.8864 9.89292C18.38 9.65089 18.7591 9.30577 19.0235 8.85756C19.2968 8.40936 19.4334 7.87599 19.4334 7.25747C19.4334 6.63894 19.2968 6.10557 19.0235 5.65737C18.7591 5.20916 18.38 4.86852 17.8864 4.63546C17.3927 4.39342 16.8021 4.27241 16.1145 4.27241C15.4357 4.27241 14.8495 4.39342 14.3558 4.63546C13.8622 4.86852 13.4787 5.20916 13.2055 5.65737C12.9322 6.10557 12.7955 6.63894 12.7955 7.25747C12.7955 7.87599 12.9322 8.40936 13.2055 8.85756C13.4787 9.30577 13.8622 9.65089 14.3558 9.89292C14.8495 10.126 15.4357 10.2425 16.1145 10.2425Z" fill="#121212"/>
<path fill-rule="evenodd" clip-rule="evenodd" d="M0 2.34375L0 12.4284H2.24789L4.3578 9.79475L3.25396 8.02362L2.4859 9.00871L2.4859 2.34375L0 2.34375Z" fill="#121212"/>
<path fill-rule="evenodd" clip-rule="evenodd" d="M4.4375 6.74502L4.9362 7.5452L5.55333 8.53541L7.97959 12.4284L10.6459 12.4284L7.10817 6.59462L10.5137 2.34375L7.86912 2.34375L4.4375 6.74502Z" fill="#6924FF"/>
<path d="M105.98 10.2402V6.03711H107.006V9.69099L106.702 9.62934L109.182 6.03711H110.538V10.2402H109.519V6.52467L109.816 6.58631L107.303 10.2402H105.98Z" fill="white"/>
<path d="M100.623 10.2392V6.03613H101.648V9.69001L101.345 9.62836L103.825 6.03613H105.181V10.2392H104.161V6.52369L104.459 6.58534L101.946 10.2392H100.623Z" fill="white"/>
<path d="M99.3479 6.03613V9.64518L98.9842 9.30333H100.064V11.091H99.0889V10.0487L99.4085 10.2392H95.0879V6.03613H96.1295V9.64518L95.7933 9.30333H98.6701L98.3063 9.64518V6.03613H99.3479Z" fill="white"/>
<path d="M90.6333 9.39397V8.53654H93.488V9.39397H90.6333ZM92.7606 6.03711L94.6674 10.2402H93.5597L91.9229 6.47983H92.2425L90.6113 10.2402H89.498L91.4104 6.03711L92.7606 6.03711Z" fill="white"/>
<path d="M87.3663 10.3297C86.9364 10.3297 86.5599 10.268 86.2365 10.1447C85.9132 10.0214 85.6616 9.84772 85.4815 9.62356C85.3015 9.39566 85.2041 9.1304 85.1895 8.82777H86.231C86.2604 9.0482 86.3706 9.21819 86.5617 9.33775C86.7527 9.45357 87.0209 9.51147 87.3663 9.51147C87.6896 9.51147 87.9395 9.46477 88.1158 9.37137C88.2958 9.27797 88.3858 9.13787 88.3858 8.95106C88.3858 8.79041 88.3105 8.67273 88.1599 8.59801C88.0093 8.52328 87.7649 8.48592 87.4269 8.48592H86.6554V7.77981H87.4104C87.6088 7.77981 87.7723 7.75926 87.9009 7.71816C88.0331 7.67707 88.1305 7.61916 88.193 7.54443C88.2554 7.46971 88.2866 7.38378 88.2866 7.28665C88.2866 7.17456 88.2499 7.07929 88.1764 7.00084C88.1029 6.92238 87.9982 6.86447 87.8623 6.82711C87.7264 6.78601 87.5629 6.76546 87.3718 6.76546C87.0595 6.76546 86.8115 6.82337 86.6278 6.93919C86.4478 7.05127 86.3413 7.21006 86.3082 7.41554H85.2776C85.296 7.14281 85.3897 6.89623 85.5587 6.6758C85.7314 6.45537 85.9739 6.27978 86.2861 6.14901C86.6021 6.01451 86.9805 5.94727 87.4214 5.94727C87.8109 5.94727 88.1489 5.9977 88.4354 6.09858C88.722 6.19945 88.9443 6.33768 89.1023 6.51328C89.2639 6.68887 89.3448 6.89249 89.3448 7.12413C89.3448 7.31467 89.2878 7.49026 89.1739 7.65091C89.0637 7.81156 88.8892 7.93859 88.6504 8.03199C88.4152 8.12539 88.1103 8.17023 87.7355 8.16649V8.05441C88.0919 8.03573 88.3969 8.06188 88.6504 8.13287C88.9076 8.20011 89.1041 8.30846 89.2401 8.4579C89.3797 8.60735 89.4495 8.79789 89.4495 9.02952C89.4495 9.28357 89.3686 9.50961 89.207 9.70762C89.0453 9.90189 88.8084 10.0551 88.4961 10.1672C88.1874 10.2755 87.8109 10.3297 87.3663 10.3297Z" fill="white"/>
<path d="M80.0996 10.2392V6.03613H81.1247V9.69001L80.8216 9.62836L83.3015 6.03613H84.6572V10.2392H83.6377V6.52369L83.9353 6.58534L81.4223 10.2392H80.0996Z" fill="white"/>
<path d="M76.951 6.50688H77.9926V10.2392H76.951V6.50688ZM75.3418 6.03613L79.6018 6.03613V6.97202L75.3418 6.97202V6.03613Z" fill="white"/>
<path d="M71.8677 9.39299V8.53556H74.7224V9.39299H71.8677ZM73.9949 6.03613L75.9018 10.2392H74.794L73.1573 6.47886H73.4769L71.8457 10.2392H70.7324L72.6447 6.03613L73.9949 6.03613Z" fill="white"/>
<path d="M70.3169 6.03613V10.2392H69.3249V6.406L69.5674 6.42282L67.8866 10.2392H66.8229L65.1421 6.43402L65.3846 6.41161V10.2392H64.3926V6.03613H65.9963L67.5669 9.71243H67.1481L68.7132 6.03613H70.3169Z" fill="white"/>
<path d="M61.3405 10.3297C60.8555 10.3297 60.4294 10.2381 60.062 10.0551C59.6982 9.872 59.4153 9.61608 59.2133 9.28731C59.0112 8.95854 58.9102 8.57559 58.9102 8.13847C58.9102 7.70135 59.0112 7.3184 59.2133 6.98963C59.4153 6.66085 59.6982 6.40493 60.062 6.22187C60.4294 6.0388 60.8555 5.94727 61.3405 5.94727C61.8255 5.94727 62.2498 6.0388 62.6136 6.22187C62.981 6.40493 63.2657 6.66085 63.4678 6.98963C63.6735 7.3184 63.7764 7.70135 63.7764 8.13847C63.7764 8.57559 63.6735 8.95854 63.4678 9.28731C63.2657 9.61608 62.981 9.872 62.6136 10.0551C62.2498 10.2381 61.8255 10.3297 61.3405 10.3297ZM61.3405 9.38258C61.6271 9.38258 61.8732 9.33401 62.079 9.23687C62.2847 9.136 62.4427 8.99216 62.5529 8.80536C62.6668 8.61855 62.7238 8.39626 62.7238 8.13847C62.7238 7.88068 62.6668 7.65838 62.5529 7.47158C62.4427 7.28478 62.2847 7.14281 62.079 7.04567C61.8732 6.9448 61.6271 6.89436 61.3405 6.89436C61.0576 6.89436 60.8133 6.9448 60.6076 7.04567C60.4018 7.14281 60.242 7.28478 60.1281 7.47158C60.0142 7.65838 59.9573 7.88068 59.9573 8.13847C59.9573 8.39626 60.0142 8.61855 60.1281 8.80536C60.242 8.99216 60.4018 9.136 60.6076 9.23687C60.8133 9.33401 61.0576 9.38258 61.3405 9.38258Z" fill="white"/>
<path d="M56.1307 6.50688H57.1723V10.2392H56.1307V6.50688ZM54.5215 6.03613L58.7815 6.03613V6.97202L54.5215 6.97202V6.03613Z" fill="white"/>
<path d="M52.8957 8.1769L52.9839 7.96955C53.3072 7.97702 53.5717 8.02746 53.7775 8.12086C53.9869 8.21426 54.1412 8.34316 54.2404 8.50754C54.3433 8.66819 54.3947 8.85313 54.3947 9.06235C54.3947 9.29025 54.3433 9.49387 54.2404 9.6732C54.1375 9.84879 53.9832 9.98703 53.7775 10.0879C53.5754 10.1888 53.3219 10.2392 53.017 10.2392H50.041L50.3607 8.08163L50.041 6.03613L52.9123 6.03613C53.2944 6.03613 53.5901 6.12767 53.7995 6.31073C54.0126 6.49007 54.1192 6.73851 54.1192 7.05608C54.1192 7.23168 54.0788 7.3998 53.9979 7.56045C53.9171 7.7211 53.7885 7.85747 53.6122 7.96955C53.4358 8.07789 53.197 8.14701 52.8957 8.1769ZM51.0661 9.98142L50.6693 9.48266H52.769C52.949 9.48266 53.0886 9.43969 53.1878 9.35376C53.2907 9.2641 53.3421 9.13894 53.3421 8.97829C53.3421 8.81764 53.2852 8.69061 53.1713 8.59721C53.0611 8.50007 52.8957 8.4515 52.6753 8.4515H50.9558V7.71176H52.543C52.6937 7.71176 52.8186 7.66879 52.9178 7.58287C53.017 7.4932 53.0666 7.37178 53.0666 7.2186C53.0666 7.09531 53.0225 6.99443 52.9343 6.91598C52.8498 6.83378 52.7286 6.79269 52.5706 6.79269H50.6748L51.0661 6.29392L51.3582 8.08163L51.0661 9.98142Z" fill="white"/>
<path d="M45.7095 9.39397V8.53654H48.5642V9.39397H45.7095ZM47.8367 6.03711L49.7436 10.2402H48.6358L46.9991 6.47983H47.3187L45.6874 10.2402H44.5742L46.4865 6.03711L47.8367 6.03711Z" fill="white"/>
</svg>
