<svg width="586" height="52" viewBox="0 0 586 52" fill="none" xmlns="http://www.w3.org/2000/svg">
<mask id="path-1-outside-1_983_2660" maskUnits="userSpaceOnUse" x="0" y="0" width="586" height="52" fill="black">
<rect fill="white" width="586" height="52"/>
<path d="M14.096 34.936V25.584H43.048V34.936H14.096ZM36.44 0.999997L55.536 43H43.16L27.144 5.928H30.504L14.432 43H2.056L21.152 0.999997H36.44ZM57.9458 43L59.9618 26.984L57.9458 11.024H83.9858C87.0844 11.024 89.5484 11.752 91.3778 13.208C93.2071 14.6267 94.1218 16.568 94.1218 19.032C94.1218 21.3467 93.1884 23.232 91.3218 24.688C89.4924 26.1067 86.9538 26.984 83.7058 27.32L84.4338 25.472C88.2044 25.6213 91.0791 26.424 93.0578 27.88C95.0738 29.336 96.0818 31.352 96.0818 33.928C96.0818 36.6907 95.0551 38.8933 93.0018 40.536C90.9484 42.1787 88.1858 43 84.7138 43H57.9458ZM68.9778 40.592L64.5538 35.888H80.9058C82.1378 35.888 83.0524 35.6267 83.6498 35.104C84.2844 34.544 84.6018 33.7787 84.6018 32.808C84.6018 31.912 84.2658 31.184 83.5938 30.624C82.9591 30.0267 81.9324 29.728 80.5138 29.728H66.7938V23.792H79.1698C80.3271 23.792 81.2044 23.5307 81.8018 23.008C82.3991 22.4853 82.6978 21.7947 82.6978 20.936C82.6978 20.0773 82.4178 19.3867 81.8578 18.864C81.3351 18.3413 80.5138 18.08 79.3938 18.08H64.6098L68.9778 13.432L70.8258 26.984L68.9778 40.592ZM109.709 14.944H121.189V43H109.709V14.944ZM97.5574 11.024H133.341V19.648H97.5574V11.024ZM155.262 43.896C151.155 43.896 147.571 43.2053 144.51 41.824C141.449 40.4053 139.059 38.4267 137.342 35.888C135.625 33.312 134.766 30.3627 134.766 27.04C134.766 23.6427 135.625 20.6747 137.342 18.136C139.059 15.5973 141.449 13.6187 144.51 12.2C147.571 10.7813 151.155 10.072 155.262 10.072C159.331 10.072 162.897 10.7813 165.958 12.2C169.057 13.6187 171.465 15.5973 173.182 18.136C174.899 20.6747 175.758 23.6427 175.758 27.04C175.758 30.3627 174.899 33.312 173.182 35.888C171.465 38.4267 169.057 40.4053 165.958 41.824C162.897 43.2053 159.331 43.896 155.262 43.896ZM155.262 35.44C157.129 35.44 158.715 35.104 160.022 34.432C161.366 33.76 162.393 32.7893 163.102 31.52C163.811 30.2507 164.166 28.7573 164.166 27.04C164.166 25.248 163.811 23.736 163.102 22.504C162.393 21.2347 161.366 20.264 160.022 19.592C158.715 18.92 157.129 18.584 155.262 18.584C153.395 18.584 151.79 18.92 150.446 19.592C149.102 20.264 148.075 21.2347 147.366 22.504C146.657 23.736 146.302 25.2293 146.302 26.984C146.302 28.7387 146.657 30.2507 147.366 31.52C148.075 32.7893 149.102 33.76 150.446 34.432C151.79 35.104 153.395 35.44 155.262 35.44ZM180.574 43V11.024H197.766L207.678 36.784H204.486L214.23 11.024H231.422V43H220.726V15.336H222.574L211.262 43H200.79L189.478 15.448L191.326 15.336V43H180.574ZM266.673 43L265.217 31.464L266.729 27.04L265.217 22.616L266.673 11.024H278.545L276.529 26.984L278.545 43H266.673ZM269.361 27.04C268.838 30.4 267.793 33.3493 266.225 35.888C264.694 38.4267 262.734 40.4053 260.345 41.824C257.993 43.2053 255.305 43.896 252.281 43.896C249.145 43.896 246.382 43.2053 243.993 41.824C241.641 40.4053 239.793 38.4267 238.449 35.888C237.105 33.312 236.433 30.3627 236.433 27.04C236.433 23.6427 237.105 20.6747 238.449 18.136C239.793 15.5973 241.641 13.6187 243.993 12.2C246.382 10.7813 249.145 10.072 252.281 10.072C255.305 10.072 257.993 10.7813 260.345 12.2C262.734 13.5813 264.713 15.5413 266.281 18.08C267.849 20.5813 268.875 23.568 269.361 27.04ZM248.025 27.04C248.025 28.608 248.342 30.008 248.977 31.24C249.649 32.472 250.563 33.4427 251.721 34.152C252.878 34.824 254.203 35.16 255.697 35.16C257.265 35.16 258.739 34.824 260.121 34.152C261.502 33.4427 262.715 32.472 263.761 31.24C264.806 30.008 265.59 28.608 266.113 27.04C265.59 25.4347 264.806 24.016 263.761 22.784C262.715 21.552 261.502 20.5813 260.121 19.872C258.739 19.1627 257.265 18.808 255.697 18.808C254.203 18.808 252.878 19.1627 251.721 19.872C250.563 20.5813 249.649 21.552 248.977 22.784C248.342 24.016 248.025 25.4347 248.025 27.04ZM293.842 14.944H305.322V43H293.842V14.944ZM281.69 11.024H317.474V19.648H281.69V11.024ZM321.394 43V11.024H332.706V36.784L330.242 36L346.986 11.024H361.658V43H350.402V16.512L352.866 17.352L335.674 43H321.394ZM384.732 43.896C381.036 43.896 377.788 43.4293 374.988 42.496C372.225 41.5253 370.06 40.1627 368.492 38.408C366.924 36.616 366.084 34.5067 365.972 32.08H377.004C377.228 33.424 377.993 34.4507 379.3 35.16C380.644 35.8693 382.454 36.224 384.732 36.224C386.934 36.224 388.633 35.944 389.828 35.384C391.022 34.824 391.62 33.984 391.62 32.864C391.62 31.856 391.097 31.128 390.052 30.68C389.006 30.232 387.345 30.008 385.068 30.008H379.412V23.848H384.9C386.916 23.848 388.409 23.5867 389.38 23.064C390.35 22.5413 390.836 21.832 390.836 20.936C390.836 19.928 390.294 19.1627 389.212 18.64C388.129 18.08 386.636 17.8 384.732 17.8C382.641 17.8 380.961 18.136 379.692 18.808C378.46 19.4427 377.75 20.3947 377.564 21.664H366.588C366.7 19.536 367.484 17.5947 368.94 15.84C370.433 14.0853 372.542 12.6853 375.268 11.64C377.993 10.5947 381.297 10.072 385.18 10.072C388.614 10.072 391.62 10.4827 394.196 11.304C396.772 12.088 398.769 13.1893 400.188 14.608C401.644 15.9893 402.372 17.576 402.372 19.368C402.372 20.7493 401.924 22.056 401.028 23.288C400.169 24.4827 398.75 25.4347 396.772 26.144C394.793 26.8533 392.142 27.208 388.82 27.208V26.256C393.449 26.0693 396.996 26.592 399.46 27.824C401.924 29.056 403.156 30.9973 403.156 33.648C403.156 35.5893 402.428 37.344 400.972 38.912C399.553 40.4427 397.462 41.656 394.7 42.552C391.974 43.448 388.652 43.896 384.732 43.896ZM436.97 43L435.514 31.464L437.026 27.04L435.514 22.616L436.97 11.024H448.842L446.826 26.984L448.842 43H436.97ZM439.658 27.04C439.135 30.4 438.09 33.3493 436.522 35.888C434.991 38.4267 433.031 40.4053 430.642 41.824C428.29 43.2053 425.602 43.896 422.578 43.896C419.442 43.896 416.679 43.2053 414.29 41.824C411.938 40.4053 410.09 38.4267 408.746 35.888C407.402 33.312 406.73 30.3627 406.73 27.04C406.73 23.6427 407.402 20.6747 408.746 18.136C410.09 15.5973 411.938 13.6187 414.29 12.2C416.679 10.7813 419.442 10.072 422.578 10.072C425.602 10.072 428.29 10.7813 430.642 12.2C433.031 13.5813 435.01 15.5413 436.577 18.08C438.146 20.5813 439.172 23.568 439.658 27.04ZM418.322 27.04C418.322 28.608 418.639 30.008 419.274 31.24C419.946 32.472 420.86 33.4427 422.018 34.152C423.175 34.824 424.5 35.16 425.994 35.16C427.562 35.16 429.036 34.824 430.418 34.152C431.799 33.4427 433.012 32.472 434.058 31.24C435.103 30.008 435.887 28.608 436.41 27.04C435.887 25.4347 435.103 24.016 434.058 22.784C433.012 21.552 431.799 20.5813 430.418 19.872C429.036 19.1627 427.562 18.808 425.994 18.808C424.5 18.808 423.175 19.1627 422.018 19.872C420.86 20.5813 419.946 21.552 419.274 22.784C418.639 24.016 418.322 25.4347 418.322 27.04ZM491.635 11.024V36.616L489.115 34.488H497.459V50.672H487.603V40.536L489.675 43H454.339V11.024H465.819V36.616L463.971 34.488H482.395L480.155 36.616V11.024H491.635ZM502.027 43V11.024H513.339V36.784L510.875 36L527.619 11.024H542.291V43H531.035V16.512L533.499 17.352L516.307 43H502.027ZM575.78 25.472V32.584H560.492L560.38 32.248C557.879 32.248 555.658 31.8187 553.716 30.96C551.812 30.1013 550.319 28.888 549.236 27.32C548.191 25.7147 547.668 23.8667 547.668 21.776C547.668 19.6107 548.191 17.7253 549.236 16.12C550.319 14.5147 551.812 13.264 553.716 12.368C555.658 11.472 557.879 11.024 560.38 11.024H584.068V43H572.644V13.824L575.78 18.416H563.292C562.023 18.416 561.015 18.7333 560.268 19.368C559.559 19.9653 559.204 20.8053 559.204 21.888C559.204 23.008 559.559 23.8853 560.268 24.52C561.015 25.1547 562.023 25.472 563.292 25.472H575.78ZM570.012 28.048L559.652 43H546.772L557.692 28.048H570.012Z"/>
</mask>
<path d="M14.096 34.936H13.096V35.936H14.096V34.936ZM14.096 25.584V24.584H13.096V25.584H14.096ZM43.048 25.584H44.048V24.584H43.048V25.584ZM43.048 34.936V35.936H44.048V34.936H43.048ZM36.44 0.999997L37.3503 0.586102L37.0838 -3.33786e-06H36.44V0.999997ZM55.536 43V44H57.0892L56.4463 42.5861L55.536 43ZM43.16 43L42.242 43.3966L42.5027 44H43.16V43ZM27.144 5.928V4.928H25.6226L26.226 6.32459L27.144 5.928ZM30.504 5.928L31.4215 6.32576L32.0275 4.928H30.504V5.928ZM14.432 43V44H15.0884L15.3495 43.3978L14.432 43ZM2.056 43L1.14568 42.5861L0.502824 44H2.056V43ZM21.152 0.999997V-3.33786e-06H20.5082L20.2417 0.586102L21.152 0.999997ZM15.096 34.936V25.584H13.096V34.936H15.096ZM14.096 26.584H43.048V24.584H14.096V26.584ZM42.048 25.584V34.936H44.048V25.584H42.048ZM43.048 33.936H14.096V35.936H43.048V33.936ZM35.5297 1.41389L54.6257 43.4139L56.4463 42.5861L37.3503 0.586102L35.5297 1.41389ZM55.536 42H43.16V44H55.536V42ZM44.078 42.6034L28.062 5.5314L26.226 6.32459L42.242 43.3966L44.078 42.6034ZM27.144 6.928H30.504V4.928H27.144V6.928ZM29.5865 5.53023L13.5145 42.6022L15.3495 43.3978L31.4215 6.32576L29.5865 5.53023ZM14.432 42H2.056V44H14.432V42ZM2.96632 43.4139L22.0623 1.41389L20.2417 0.586102L1.14568 42.5861L2.96632 43.4139ZM21.152 2H36.44V-3.33786e-06H21.152V2ZM57.9458 43L56.9536 42.8751L56.812 44H57.9458V43ZM59.9618 26.984L60.9539 27.1089L60.9697 26.9838L60.9539 26.8587L59.9618 26.984ZM57.9458 11.024V10.024H56.8115L56.9536 11.1493L57.9458 11.024ZM91.3778 13.208L90.755 13.9905L90.7649 13.9982L91.3778 13.208ZM91.3218 24.688L91.9346 25.4782L91.9368 25.4765L91.3218 24.688ZM83.7058 27.32L82.7753 26.9535L82.1724 28.484L83.8087 28.3147L83.7058 27.32ZM84.4338 25.472L84.4733 24.4728L83.7637 24.4447L83.5033 25.1055L84.4338 25.472ZM93.0578 27.88L92.465 28.6855L92.4723 28.6907L93.0578 27.88ZM93.0018 40.536L92.3771 39.7551L93.0018 40.536ZM68.9778 40.592L68.2493 41.2771L69.6864 42.8051L69.9687 40.7266L68.9778 40.592ZM64.5538 35.888V34.888H62.2405L63.8253 36.5731L64.5538 35.888ZM83.6498 35.104L84.3083 35.8566L84.3114 35.8538L83.6498 35.104ZM83.5938 30.624L82.9084 31.3522L82.9304 31.3729L82.9536 31.3922L83.5938 30.624ZM66.7938 29.728H65.7938V30.728H66.7938V29.728ZM66.7938 23.792V22.792H65.7938V23.792H66.7938ZM81.8578 18.864L81.1506 19.5711L81.1628 19.5833L81.1754 19.5951L81.8578 18.864ZM64.6098 18.08L63.881 17.3952L62.2977 19.08H64.6098V18.08ZM68.9778 13.432L69.9686 13.2969L69.6852 11.2189L68.249 12.7472L68.9778 13.432ZM70.8258 26.984L71.8167 27.1186L71.835 26.9837L71.8166 26.8489L70.8258 26.984ZM58.9379 43.1249L60.9539 27.1089L58.9696 26.8591L56.9536 42.8751L58.9379 43.1249ZM60.9539 26.8587L58.9379 10.8987L56.9536 11.1493L58.9696 27.1093L60.9539 26.8587ZM57.9458 12.024H83.9858V10.024H57.9458V12.024ZM83.9858 12.024C86.932 12.024 89.1529 12.7152 90.755 13.9904L92.0005 12.4256C89.944 10.7888 87.2369 10.024 83.9858 10.024V12.024ZM90.7649 13.9982C92.3324 15.2138 93.1218 16.854 93.1218 19.032H95.1218C95.1218 16.2819 94.0818 14.0395 91.9906 12.4178L90.7649 13.9982ZM93.1218 19.032C93.1218 21.0305 92.3369 22.6279 90.7067 23.8995L91.9368 25.4765C94.0399 23.836 95.1218 21.6629 95.1218 19.032H93.1218ZM90.7089 23.8978C89.0759 25.1642 86.7379 26.001 83.6029 26.3253L83.8087 28.3147C87.1696 27.967 89.909 27.0491 91.9346 25.4782L90.7089 23.8978ZM84.6362 27.6865L85.3642 25.8385L83.5033 25.1055L82.7753 26.9535L84.6362 27.6865ZM84.3942 26.4712C88.0649 26.6166 90.7122 27.3956 92.4651 28.6854L93.6504 27.0746C91.4459 25.4524 88.344 24.6261 84.4733 24.4728L84.3942 26.4712ZM92.4723 28.6907C94.2171 29.9508 95.0818 31.6595 95.0818 33.928H97.0818C97.0818 31.0445 95.9304 28.7212 93.6432 27.0693L92.4723 28.6907ZM95.0818 33.928C95.0818 36.4047 94.1796 38.3131 92.3771 39.7551L93.6264 41.3169C95.9305 39.4736 97.0818 36.9767 97.0818 33.928H95.0818ZM92.3771 39.7551C90.5507 41.2162 88.0318 42 84.7138 42V44C88.3398 44 91.3461 43.1411 93.6264 41.3169L92.3771 39.7551ZM84.7138 42H57.9458V44H84.7138V42ZM69.7062 39.9069L65.2822 35.2029L63.8253 36.5731L68.2493 41.2771L69.7062 39.9069ZM64.5538 36.888H80.9058V34.888H64.5538V36.888ZM80.9058 36.888C82.2521 36.888 83.4512 36.6065 84.3083 35.8566L82.9912 34.3514C82.6537 34.6468 82.0234 34.888 80.9058 34.888V36.888ZM84.3114 35.8538C85.1939 35.0752 85.6018 34.0189 85.6018 32.808H83.6018C83.6018 33.5384 83.375 34.0128 82.9881 34.3542L84.3114 35.8538ZM85.6018 32.808C85.6018 31.6235 85.1402 30.611 84.2339 29.8558L82.9536 31.3922C83.3913 31.757 83.6018 32.2005 83.6018 32.808H85.6018ZM84.2791 29.8958C83.3722 29.0422 82.0357 28.728 80.5138 28.728V30.728C81.8291 30.728 82.546 31.0111 82.9084 31.3522L84.2791 29.8958ZM80.5138 28.728H66.7938V30.728H80.5138V28.728ZM67.7938 29.728V23.792H65.7938V29.728H67.7938ZM66.7938 24.792H79.1698V22.792H66.7938V24.792ZM79.1698 24.792C80.4606 24.792 81.6127 24.5022 82.4603 23.7606L81.1432 22.2554C80.7961 22.5592 80.1936 22.792 79.1698 22.792V24.792ZM82.4603 23.7606C83.2939 23.0312 83.6978 22.0564 83.6978 20.936H81.6978C81.6978 21.5329 81.5043 21.9395 81.1432 22.2554L82.4603 23.7606ZM83.6978 20.936C83.6978 19.8372 83.3283 18.8686 82.5401 18.1329L81.1754 19.5951C81.5072 19.9047 81.6978 20.3175 81.6978 20.936H83.6978ZM82.5649 18.1569C81.7772 17.3692 80.6445 17.08 79.3938 17.08V19.08C80.383 19.08 80.893 19.3134 81.1506 19.5711L82.5649 18.1569ZM79.3938 17.08H64.6098V19.08H79.3938V17.08ZM65.3385 18.7648L69.7065 14.1168L68.249 12.7472L63.881 17.3952L65.3385 18.7648ZM67.9869 13.5671L69.8349 27.1191L71.8166 26.8489L69.9686 13.2969L67.9869 13.5671ZM69.8348 26.8494L67.9868 40.4574L69.9687 40.7266L71.8167 27.1186L69.8348 26.8494ZM109.709 14.944V13.944H108.709V14.944H109.709ZM121.189 14.944H122.189V13.944H121.189V14.944ZM121.189 43V44H122.189V43H121.189ZM109.709 43H108.709V44H109.709V43ZM97.5574 11.024V10.024H96.5574V11.024H97.5574ZM133.341 11.024H134.341V10.024H133.341V11.024ZM133.341 19.648V20.648H134.341V19.648H133.341ZM97.5574 19.648H96.5574V20.648H97.5574V19.648ZM109.709 15.944H121.189V13.944H109.709V15.944ZM120.189 14.944V43H122.189V14.944H120.189ZM121.189 42H109.709V44H121.189V42ZM110.709 43V14.944H108.709V43H110.709ZM97.5574 12.024H133.341V10.024H97.5574V12.024ZM132.341 11.024V19.648H134.341V11.024H132.341ZM133.341 18.648H97.5574V20.648H133.341V18.648ZM98.5574 19.648V11.024H96.5574V19.648H98.5574ZM144.51 41.824L144.089 42.7314L144.099 42.7355L144.51 41.824ZM137.342 35.888L136.51 36.4427L136.514 36.4483L137.342 35.888ZM137.342 18.136L136.514 17.5757L136.514 17.5757L137.342 18.136ZM144.51 12.2L144.089 11.2927L144.51 12.2ZM165.958 12.2L165.537 13.1073L165.542 13.1092L165.958 12.2ZM173.182 18.136L174.01 17.5757L174.01 17.5757L173.182 18.136ZM173.182 35.888L174.01 36.4483L174.014 36.4427L173.182 35.888ZM165.958 41.824L166.369 42.7355L166.374 42.7332L165.958 41.824ZM160.022 34.432L159.575 33.5375L159.565 33.5427L160.022 34.432ZM163.102 31.52L162.229 31.0322L162.229 31.0322L163.102 31.52ZM163.102 22.504L162.229 22.9919L162.235 23.003L163.102 22.504ZM160.022 19.592L159.565 20.4813L159.575 20.4864L160.022 19.592ZM150.446 19.592L149.999 18.6976L149.999 18.6976L150.446 19.592ZM147.366 22.504L148.233 23.003L148.239 22.9918L147.366 22.504ZM147.366 31.52L148.239 31.0322L148.239 31.0322L147.366 31.52ZM155.262 42.896C151.266 42.896 147.828 42.224 144.921 40.9125L144.099 42.7355C147.315 44.1867 151.044 44.896 155.262 44.896V42.896ZM144.93 40.9167C142.017 39.5665 139.776 37.7008 138.17 35.3277L136.514 36.4483C138.343 39.1525 140.88 41.2441 144.089 42.7313L144.93 40.9167ZM138.174 35.3333C136.574 32.9337 135.766 30.1804 135.766 27.04H133.766C133.766 30.5449 134.675 33.6903 136.51 36.4427L138.174 35.3333ZM135.766 27.04C135.766 23.8198 136.577 21.0518 138.17 18.6963L136.514 17.5757C134.672 20.2975 133.766 23.4655 133.766 27.04H135.766ZM138.17 18.6963C139.776 16.3232 142.017 14.4575 144.93 13.1073L144.089 11.2927C140.88 12.7799 138.343 14.8715 136.514 17.5757L138.17 18.6963ZM144.93 13.1073C147.835 11.7615 151.27 11.072 155.262 11.072V9.072C151.041 9.072 147.308 9.80118 144.089 11.2927L144.93 13.1073ZM155.262 11.072C159.215 11.072 162.632 11.761 165.537 13.1073L166.378 11.2927C163.161 9.8017 159.447 9.072 155.262 9.072V11.072ZM165.542 13.1092C168.493 14.4604 170.75 16.3261 172.354 18.6963L174.01 17.5757C172.179 14.8686 169.62 12.777 166.374 11.2908L165.542 13.1092ZM172.354 18.6963C173.947 21.0518 174.758 23.8198 174.758 27.04H176.758C176.758 23.4655 175.851 20.2975 174.01 17.5757L172.354 18.6963ZM174.758 27.04C174.758 30.1804 173.95 32.9337 172.35 35.3333L174.014 36.4427C175.849 33.6903 176.758 30.5449 176.758 27.04H174.758ZM172.354 35.3277C170.75 37.6979 168.493 39.5636 165.542 40.9148L166.374 42.7332C169.62 41.247 172.179 39.1554 174.01 36.4483L172.354 35.3277ZM165.547 40.9125C162.639 42.2245 159.219 42.896 155.262 42.896V44.896C159.444 44.896 163.154 44.1862 166.369 42.7355L165.547 40.9125ZM155.262 36.44C157.246 36.44 158.998 36.083 160.479 35.3213L159.565 33.5427C158.432 34.1249 157.011 34.44 155.262 34.44V36.44ZM160.469 35.3264C161.986 34.5679 163.164 33.4584 163.975 32.0078L162.229 31.0322C161.621 32.1202 160.746 32.9521 159.575 33.5376L160.469 35.3264ZM163.975 32.0078C164.781 30.5645 165.166 28.8971 165.166 27.04H163.166C163.166 28.6176 162.841 29.9369 162.229 31.0322L163.975 32.0078ZM165.166 27.04C165.166 25.1178 164.785 23.4235 163.969 22.005L162.235 23.003C162.837 24.0485 163.166 25.3782 163.166 27.04H165.166ZM163.975 22.0162C163.164 20.5656 161.986 19.4561 160.469 18.6976L159.575 20.4864C160.746 21.0719 161.621 21.9038 162.229 22.9918L163.975 22.0162ZM160.479 18.7027C158.998 17.9409 157.246 17.584 155.262 17.584V19.584C157.011 19.584 158.432 19.899 159.565 20.4813L160.479 18.7027ZM155.262 17.584C153.277 17.584 151.511 17.9414 149.999 18.6976L150.893 20.4864C152.069 19.8986 153.514 19.584 155.262 19.584V17.584ZM149.999 18.6976C148.482 19.4561 147.304 20.5656 146.493 22.0162L148.239 22.9918C148.847 21.9038 149.722 21.0719 150.893 20.4864L149.999 18.6976ZM146.499 22.005C145.684 23.4206 145.302 25.0949 145.302 26.984H147.302C147.302 25.3638 147.629 24.0514 148.233 23.003L146.499 22.005ZM145.302 26.984C145.302 28.8743 145.685 30.5614 146.493 32.0078L148.239 31.0322C147.628 29.9399 147.302 28.6031 147.302 26.984H145.302ZM146.493 32.0078C147.304 33.4584 148.482 34.5679 149.999 35.3264L150.893 33.5376C149.722 32.9521 148.847 32.1202 148.239 31.0322L146.493 32.0078ZM149.999 35.3264C151.511 36.0826 153.277 36.44 155.262 36.44V34.44C153.514 34.44 152.069 34.1254 150.893 33.5376L149.999 35.3264ZM180.574 43H179.574V44H180.574V43ZM180.574 11.024V10.024H179.574V11.024H180.574ZM197.766 11.024L198.699 10.6649L198.452 10.024H197.766V11.024ZM207.678 36.784V37.784H209.134L208.611 36.4249L207.678 36.784ZM204.486 36.784L203.55 36.4302L203.038 37.784H204.486V36.784ZM214.23 11.024V10.024H213.539L213.294 10.6702L214.23 11.024ZM231.422 11.024H232.422V10.024H231.422V11.024ZM231.422 43V44H232.422V43H231.422ZM220.726 43H219.726V44H220.726V43ZM220.726 15.336V14.336H219.726V15.336H220.726ZM222.574 15.336L223.499 15.7145L224.063 14.336H222.574V15.336ZM211.262 43V44H211.933L212.187 43.3785L211.262 43ZM200.79 43L199.864 43.3798L200.119 44H200.79V43ZM189.478 15.448L189.417 14.4498L188.021 14.5344L188.552 15.8278L189.478 15.448ZM191.326 15.336H192.326V14.2736L191.265 14.3378L191.326 15.336ZM191.326 43V44H192.326V43H191.326ZM181.574 43V11.024H179.574V43H181.574ZM180.574 12.024H197.766V10.024H180.574V12.024ZM196.832 11.3831L206.744 37.1431L208.611 36.4249L198.699 10.6649L196.832 11.3831ZM207.678 35.784H204.486V37.784H207.678V35.784ZM205.421 37.1378L215.165 11.3778L213.294 10.6702L203.55 36.4302L205.421 37.1378ZM214.23 12.024H231.422V10.024H214.23V12.024ZM230.422 11.024V43H232.422V11.024H230.422ZM231.422 42H220.726V44H231.422V42ZM221.726 43V15.336H219.726V43H221.726ZM220.726 16.336H222.574V14.336H220.726V16.336ZM221.648 14.9575L210.336 42.6215L212.187 43.3785L223.499 15.7145L221.648 14.9575ZM211.262 42H200.79V44H211.262V42ZM201.715 42.6202L190.403 15.0682L188.552 15.8278L199.864 43.3798L201.715 42.6202ZM189.538 16.4462L191.386 16.3342L191.265 14.3378L189.417 14.4498L189.538 16.4462ZM190.326 15.336V43H192.326V15.336H190.326ZM191.326 42H180.574V44H191.326V42ZM266.673 43L265.68 43.1252L265.791 44H266.673V43ZM265.217 31.464L264.27 31.1406L264.196 31.3596L264.224 31.5892L265.217 31.464ZM266.729 27.04L267.675 27.3634L267.785 27.04L267.675 26.7166L266.729 27.04ZM265.217 22.616L264.224 22.4914L264.196 22.7207L264.27 22.9394L265.217 22.616ZM266.673 11.024V10.024H265.79L265.68 10.8994L266.673 11.024ZM278.545 11.024L279.537 11.1493L279.679 10.024H278.545V11.024ZM276.529 26.984L275.537 26.8587L275.521 26.9838L275.536 27.1089L276.529 26.984ZM278.545 43V44H279.678L279.537 42.8751L278.545 43ZM269.361 27.04L270.349 27.1937L270.371 27.0478L270.351 26.9016L269.361 27.04ZM266.225 35.888L265.374 35.3625L265.368 35.3717L266.225 35.888ZM260.345 41.824L260.851 42.6863L260.855 42.6839L260.345 41.824ZM243.993 41.824L243.476 42.6803L243.484 42.6851L243.492 42.6897L243.993 41.824ZM238.449 35.888L237.562 36.3506L237.565 36.3559L238.449 35.888ZM238.449 18.136L237.565 17.6681L237.565 17.6681L238.449 18.136ZM243.993 12.2L243.482 11.3401L243.476 11.3437L243.993 12.2ZM260.345 12.2L259.828 13.0563L259.836 13.0611L259.844 13.0657L260.345 12.2ZM266.281 18.08L265.43 18.6055L265.433 18.6111L266.281 18.08ZM248.977 31.24L248.088 31.698L248.093 31.7085L248.099 31.7189L248.977 31.24ZM251.721 34.152L251.198 35.0046L251.208 35.0108L251.218 35.0168L251.721 34.152ZM260.121 34.152L260.558 35.0512L260.568 35.0465L260.577 35.0416L260.121 34.152ZM263.761 31.24L264.523 31.887L264.523 31.887L263.761 31.24ZM266.113 27.04L267.061 27.3562L267.165 27.0437L267.063 26.7304L266.113 27.04ZM263.761 22.784L264.523 22.137L264.523 22.137L263.761 22.784ZM251.721 19.872L251.198 19.0194L251.198 19.0194L251.721 19.872ZM248.977 22.784L248.099 22.3051L248.093 22.3155L248.088 22.326L248.977 22.784ZM267.665 42.8748L266.209 31.3388L264.224 31.5892L265.68 43.1252L267.665 42.8748ZM266.163 31.7874L267.675 27.3634L265.782 26.7166L264.27 31.1406L266.163 31.7874ZM267.675 26.7166L266.163 22.2926L264.27 22.9394L265.782 27.3634L267.675 26.7166ZM266.209 22.7406L267.665 11.1486L265.68 10.8994L264.224 22.4914L266.209 22.7406ZM266.673 12.024H278.545V10.024H266.673V12.024ZM277.553 10.8987L275.537 26.8587L277.521 27.1093L279.537 11.1493L277.553 10.8987ZM275.536 27.1089L277.552 43.1249L279.537 42.8751L277.521 26.8591L275.536 27.1089ZM278.545 42H266.673V44H278.545V42ZM268.373 26.8863C267.868 30.1328 266.863 32.9521 265.374 35.3625L267.075 36.4135C268.723 33.7465 269.808 30.6672 270.349 27.1937L268.373 26.8863ZM265.368 35.3717C263.917 37.7788 262.072 39.6353 259.834 40.9641L260.855 42.6839C263.396 41.1754 265.471 39.0746 267.081 36.4043L265.368 35.3717ZM259.838 40.9617C257.656 42.2433 255.146 42.896 252.281 42.896V44.896C255.463 44.896 258.329 44.1673 260.851 42.6863L259.838 40.9617ZM252.281 42.896C249.296 42.896 246.711 42.2402 244.493 40.9583L243.492 42.6897C246.053 44.1705 248.993 44.896 252.281 44.896V42.896ZM244.509 40.9677C242.32 39.6472 240.596 37.8061 239.332 35.4201L237.565 36.3559C238.99 39.0473 240.961 41.1635 243.476 42.6803L244.509 40.9677ZM239.335 35.4254C238.076 33.0116 237.433 30.2249 237.433 27.04H235.433C235.433 30.5004 236.133 33.6124 237.562 36.3506L239.335 35.4254ZM237.433 27.04C237.433 23.776 238.078 20.9742 239.332 18.6039L237.565 17.6681C236.132 20.3751 235.433 23.5093 235.433 27.04H237.433ZM239.332 18.6039C240.596 16.2179 242.32 14.3768 244.509 13.0563L243.476 11.3437C240.961 12.8605 238.99 14.9767 237.565 17.6681L239.332 18.6039ZM244.503 13.0599C246.719 11.7443 249.301 11.072 252.281 11.072V9.072C248.989 9.072 246.045 9.8184 243.482 11.3401L244.503 13.0599ZM252.281 11.072C255.142 11.072 257.647 11.741 259.828 13.0563L260.861 11.3437C258.338 9.8217 255.468 9.072 252.281 9.072V11.072ZM259.844 13.0657C262.079 14.3577 263.941 16.1957 265.43 18.6055L267.131 17.5545C265.484 14.8869 263.389 12.8049 260.845 11.3343L259.844 13.0657ZM265.433 18.6111C266.914 20.9729 267.901 23.8202 268.37 27.1784L270.351 26.9016C269.85 23.3158 268.783 20.1898 267.128 17.5489L265.433 18.6111ZM247.025 27.04C247.025 28.7462 247.371 30.3067 248.088 31.698L249.866 30.782C249.313 29.7093 249.025 28.4698 249.025 27.04H247.025ZM248.099 31.7189C248.852 33.0989 249.886 34.2007 251.198 35.0046L252.243 33.2994C251.24 32.6846 250.446 31.8451 249.855 30.7611L248.099 31.7189ZM251.218 35.0168C252.545 35.7873 254.048 36.16 255.697 36.16V34.16C254.359 34.16 253.21 33.8607 252.223 33.2872L251.218 35.0168ZM255.697 36.16C257.413 36.16 259.038 35.791 260.558 35.0512L259.683 33.2528C258.441 33.857 257.116 34.16 255.697 34.16V36.16ZM260.577 35.0416C262.08 34.2698 263.396 33.215 264.523 31.887L262.998 30.593C262.034 31.729 260.924 32.6155 259.664 33.2624L260.577 35.0416ZM264.523 31.887C265.653 30.5554 266.499 29.0425 267.061 27.3562L265.164 26.7238C264.681 28.1735 263.959 29.4606 262.998 30.593L264.523 31.887ZM267.063 26.7304C266.502 25.0071 265.656 23.4726 264.523 22.137L262.998 23.431C263.956 24.5594 264.678 25.8622 265.162 27.3496L267.063 26.7304ZM264.523 22.137C263.396 20.809 262.08 19.7542 260.577 18.9824L259.664 20.7616C260.924 21.4085 262.034 22.295 262.998 23.431L264.523 22.137ZM260.577 18.9824C259.053 18.1998 257.422 17.808 255.697 17.808V19.808C257.107 19.808 258.425 20.1255 259.664 20.7616L260.577 18.9824ZM255.697 17.808C254.038 17.808 252.528 18.2042 251.198 19.0194L252.243 20.7246C253.228 20.1212 254.369 19.808 255.697 19.808V17.808ZM251.198 19.0194C249.886 19.8233 248.852 20.9251 248.099 22.3051L249.855 23.2629C250.446 22.1789 251.24 21.3394 252.243 20.7246L251.198 19.0194ZM248.088 22.326C247.369 23.7206 247.025 25.3006 247.025 27.04H249.025C249.025 25.5687 249.315 24.3114 249.866 23.242L248.088 22.326ZM293.842 14.944V13.944H292.842V14.944H293.842ZM305.322 14.944H306.322V13.944H305.322V14.944ZM305.322 43V44H306.322V43H305.322ZM293.842 43H292.842V44H293.842V43ZM281.69 11.024V10.024H280.69V11.024H281.69ZM317.474 11.024H318.474V10.024H317.474V11.024ZM317.474 19.648V20.648H318.474V19.648H317.474ZM281.69 19.648H280.69V20.648H281.69V19.648ZM293.842 15.944H305.322V13.944H293.842V15.944ZM304.322 14.944V43H306.322V14.944H304.322ZM305.322 42H293.842V44H305.322V42ZM294.842 43V14.944H292.842V43H294.842ZM281.69 12.024H317.474V10.024H281.69V12.024ZM316.474 11.024V19.648H318.474V11.024H316.474ZM317.474 18.648H281.69V20.648H317.474V18.648ZM282.69 19.648V11.024H280.69V19.648H282.69ZM321.394 43H320.394V44H321.394V43ZM321.394 11.024V10.024H320.394V11.024H321.394ZM332.706 11.024H333.706V10.024H332.706V11.024ZM332.706 36.784L332.403 37.7369L333.706 38.1516V36.784H332.706ZM330.242 36L329.411 35.4432L328.67 36.5492L329.939 36.9529L330.242 36ZM346.986 11.024V10.024H346.452L346.155 10.4672L346.986 11.024ZM361.658 11.024H362.658V10.024H361.658V11.024ZM361.658 43V44H362.658V43H361.658ZM350.402 43H349.402V44H350.402V43ZM350.402 16.512L350.724 15.5655L349.402 15.1146V16.512H350.402ZM352.866 17.352L353.696 17.9088L354.422 16.8261L353.188 16.4055L352.866 17.352ZM335.674 43V44H336.207L336.504 43.5568L335.674 43ZM322.394 43V11.024H320.394V43H322.394ZM321.394 12.024H332.706V10.024H321.394V12.024ZM331.706 11.024V36.784H333.706V11.024H331.706ZM333.009 35.8311L330.545 35.0471L329.939 36.9529L332.403 37.7369L333.009 35.8311ZM331.072 36.5568L347.816 11.5808L346.155 10.4672L329.411 35.4432L331.072 36.5568ZM346.986 12.024H361.658V10.024H346.986V12.024ZM360.658 11.024V43H362.658V11.024H360.658ZM361.658 42H350.402V44H361.658V42ZM351.402 43V16.512H349.402V43H351.402ZM350.079 17.4585L352.543 18.2985L353.188 16.4055L350.724 15.5655L350.079 17.4585ZM352.035 16.7952L334.843 42.4432L336.504 43.5568L353.696 17.9088L352.035 16.7952ZM335.674 42H321.394V44H335.674V42ZM374.988 42.496L374.656 43.4395L374.664 43.4421L374.671 43.4447L374.988 42.496ZM368.492 38.408L367.739 39.0665L367.746 39.0743L368.492 38.408ZM365.972 32.08V31.08H364.924L364.973 32.1261L365.972 32.08ZM377.004 32.08L377.99 31.9156L377.851 31.08H377.004V32.08ZM379.3 35.16L378.822 36.0389L378.833 36.0444L379.3 35.16ZM389.828 35.384L389.403 34.4785L389.403 34.4785L389.828 35.384ZM390.052 30.68L390.445 29.7609L390.445 29.7609L390.052 30.68ZM379.412 30.008H378.412V31.008H379.412V30.008ZM379.412 23.848V22.848H378.412V23.848H379.412ZM389.212 18.64L388.752 19.5282L388.764 19.5346L388.777 19.5405L389.212 18.64ZM379.692 18.808L380.15 19.697L380.159 19.6918L379.692 18.808ZM377.564 21.664V22.664H378.427L378.553 21.8095L377.564 21.664ZM366.588 21.664L365.589 21.6114L365.534 22.664H366.588V21.664ZM368.94 15.84L368.178 15.1918L368.17 15.2014L368.94 15.84ZM375.268 11.64L374.909 10.7063L375.268 11.64ZM394.196 11.304L393.892 12.2568L393.904 12.2607L394.196 11.304ZM400.188 14.608L399.48 15.3151L399.49 15.3244L399.499 15.3335L400.188 14.608ZM401.028 23.288L400.219 22.6998L400.216 22.7044L401.028 23.288ZM396.772 26.144L396.434 25.2027L396.434 25.2027L396.772 26.144ZM388.82 27.208H387.82V28.208H388.82V27.208ZM388.82 26.256L388.779 25.2568L387.82 25.2955V26.256H388.82ZM399.46 27.824L399.907 26.9296L399.907 26.9296L399.46 27.824ZM400.972 38.912L400.239 38.2315L400.238 38.2322L400.972 38.912ZM394.7 42.552L394.391 41.6008L394.387 41.602L394.7 42.552ZM384.732 42.896C381.117 42.896 377.98 42.4393 375.304 41.5473L374.671 43.4447C377.595 44.4193 380.954 44.896 384.732 44.896V42.896ZM375.319 41.5525C372.677 40.6243 370.668 39.3433 369.237 37.7417L367.746 39.0743C369.451 40.982 371.773 42.4263 374.656 43.4395L375.319 41.5525ZM369.244 37.7495C367.828 36.1316 367.072 34.2394 366.97 32.0339L364.973 32.1261C365.095 34.7739 366.019 37.1004 367.739 39.0665L369.244 37.7495ZM365.972 33.08H377.004V31.08H365.972V33.08ZM376.017 32.2444C376.297 33.9228 377.273 35.1979 378.822 36.0389L379.777 34.2811C378.712 33.7034 378.158 32.9252 377.99 31.9156L376.017 32.2444ZM378.833 36.0444C380.375 36.8581 382.366 37.224 384.732 37.224V35.224C382.542 35.224 380.912 34.8805 379.766 34.2756L378.833 36.0444ZM384.732 37.224C386.995 37.224 388.864 36.94 390.252 36.2895L389.403 34.4785C388.402 34.948 386.873 35.224 384.732 35.224V37.224ZM390.252 36.2895C390.963 35.9563 391.564 35.5081 391.987 34.9135C392.416 34.3095 392.62 33.6128 392.62 32.864H390.62C390.62 33.2352 390.524 33.5185 390.357 33.7545C390.182 33.9999 389.887 34.2517 389.403 34.4785L390.252 36.2895ZM392.62 32.864C392.62 32.178 392.438 31.5336 392.04 30.9788C391.647 30.4319 391.091 30.0376 390.445 29.7609L389.658 31.5991C390.057 31.7704 390.285 31.9641 390.415 32.1452C390.54 32.3184 390.62 32.542 390.62 32.864H392.62ZM390.445 29.7609C389.204 29.229 387.372 29.008 385.068 29.008V31.008C387.318 31.008 388.808 31.235 389.658 31.5991L390.445 29.7609ZM385.068 29.008H379.412V31.008H385.068V29.008ZM380.412 30.008V23.848H378.412V30.008H380.412ZM379.412 24.848H384.9V22.848H379.412V24.848ZM384.9 24.848C386.965 24.848 388.661 24.5866 389.854 23.9445L388.905 22.1835C388.157 22.5867 386.866 22.848 384.9 22.848V24.848ZM389.854 23.9445C391.06 23.2951 391.836 22.2906 391.836 20.936H389.836C389.836 21.3734 389.641 21.7876 388.905 22.1835L389.854 23.9445ZM391.836 20.936C391.836 20.2416 391.645 19.593 391.246 19.0285C390.854 18.4739 390.298 18.0541 389.646 17.7394L388.777 19.5405C389.208 19.7486 389.464 19.9728 389.613 20.1835C389.755 20.3843 389.836 20.6224 389.836 20.936H391.836ZM389.671 17.7518C388.388 17.0884 386.714 16.8 384.732 16.8V18.8C386.557 18.8 387.869 19.0716 388.752 19.5282L389.671 17.7518ZM384.732 16.8C382.547 16.8 380.688 17.149 379.224 17.9242L380.159 19.6918C381.234 19.123 382.735 18.8 384.732 18.8V16.8ZM379.234 17.919C377.742 18.6875 376.812 19.9014 376.574 21.5185L378.553 21.8095C378.688 20.888 379.177 20.1978 380.15 19.697L379.234 17.919ZM377.564 20.664H366.588V22.664H377.564V20.664ZM367.586 21.7166C367.686 19.8189 368.38 18.08 369.709 16.4786L368.17 15.2014C366.587 17.1094 365.713 19.2531 365.589 21.6114L367.586 21.7166ZM369.701 16.4881C371.061 14.8905 373.016 13.5747 375.626 12.5737L374.909 10.7063C372.069 11.7959 369.805 13.2802 368.178 15.1919L369.701 16.4881ZM375.626 12.5737C378.206 11.584 381.381 11.072 385.18 11.072V9.072C381.213 9.072 377.78 9.60531 374.909 10.7063L375.626 12.5737ZM385.18 11.072C388.538 11.072 391.436 11.4739 393.892 12.2567L394.499 10.3513C391.803 9.49147 388.691 9.072 385.18 9.072V11.072ZM393.904 12.2607C396.375 13.0125 398.211 14.0454 399.48 15.3151L400.895 13.9009C399.327 12.3333 397.168 11.1634 394.487 10.3473L393.904 12.2607ZM399.499 15.3335C400.783 16.5509 401.372 17.8846 401.372 19.368H403.372C403.372 17.2674 402.505 15.4277 400.876 13.8825L399.499 15.3335ZM401.372 19.368C401.372 20.5162 401.004 21.6203 400.219 22.6998L401.836 23.8762C402.843 22.4917 403.372 20.9824 403.372 19.368H401.372ZM400.216 22.7044C399.516 23.6778 398.3 24.5336 396.434 25.2027L397.109 27.0853C399.2 26.3357 400.822 25.2876 401.84 23.8716L400.216 22.7044ZM396.434 25.2027C394.608 25.8573 392.086 26.208 388.82 26.208V28.208C392.198 28.208 394.978 27.8493 397.109 27.0853L396.434 25.2027ZM389.82 27.208V26.256H387.82V27.208H389.82ZM388.86 27.2552C393.422 27.0712 396.77 27.5971 399.012 28.7184L399.907 26.9296C397.222 25.5869 393.476 25.0674 388.779 25.2568L388.86 27.2552ZM399.012 28.7184C400.114 29.2694 400.886 29.9505 401.387 30.7398C401.887 31.527 402.156 32.4828 402.156 33.648H404.156C404.156 32.1626 403.808 30.8224 403.076 29.6682C402.345 28.5162 401.269 27.6106 399.907 26.9296L399.012 28.7184ZM402.156 33.648C402.156 35.3102 401.542 36.828 400.239 38.2315L401.704 39.5925C403.313 37.86 404.156 35.8684 404.156 33.648H402.156ZM400.238 38.2322C398.972 39.5981 397.052 40.7379 394.391 41.6008L395.008 43.5032C397.873 42.5741 400.134 41.2873 401.705 39.5918L400.238 38.2322ZM394.387 41.602C391.792 42.4552 388.582 42.896 384.732 42.896V44.896C388.722 44.896 392.156 44.4408 395.012 43.502L394.387 41.602ZM436.97 43L435.977 43.1252L436.088 44H436.97V43ZM435.514 31.464L434.567 31.1406L434.492 31.3596L434.521 31.5892L435.514 31.464ZM437.026 27.04L437.972 27.3634L438.082 27.04L437.972 26.7166L437.026 27.04ZM435.514 22.616L434.521 22.4914L434.492 22.7207L434.567 22.9394L435.514 22.616ZM436.97 11.024V10.024H436.087L435.977 10.8994L436.97 11.024ZM448.842 11.024L449.834 11.1493L449.976 10.024H448.842V11.024ZM446.826 26.984L445.833 26.8587L445.818 26.9838L445.833 27.1089L446.826 26.984ZM448.842 43V44H449.975L449.834 42.8751L448.842 43ZM439.658 27.04L440.646 27.1937L440.668 27.0478L440.648 26.9016L439.658 27.04ZM436.522 35.888L435.671 35.3625L435.665 35.3717L436.522 35.888ZM430.642 41.824L431.148 42.6863L431.152 42.6839L430.642 41.824ZM414.29 41.824L413.773 42.6803L413.781 42.6851L413.789 42.6897L414.29 41.824ZM408.746 35.888L407.859 36.3506L407.862 36.3559L408.746 35.888ZM408.746 18.136L407.862 17.6681L407.862 17.6681L408.746 18.136ZM414.29 12.2L413.779 11.3401L413.773 11.3437L414.29 12.2ZM430.642 12.2L430.125 13.0563L430.133 13.0611L430.141 13.0657L430.642 12.2ZM436.577 18.08L435.727 18.6055L435.73 18.6111L436.577 18.08ZM419.274 31.24L418.385 31.698L418.39 31.7085L418.396 31.7189L419.274 31.24ZM422.018 34.152L421.495 35.0046L421.505 35.0108L421.515 35.0168L422.018 34.152ZM430.418 34.152L430.855 35.0512L430.865 35.0465L430.874 35.0416L430.418 34.152ZM434.058 31.24L434.82 31.887L434.82 31.887L434.058 31.24ZM436.41 27.04L437.358 27.3562L437.462 27.0437L437.36 26.7304L436.41 27.04ZM434.058 22.784L434.82 22.137L434.82 22.137L434.058 22.784ZM422.018 19.872L421.495 19.0194L421.495 19.0194L422.018 19.872ZM419.274 22.784L418.396 22.3051L418.39 22.3155L418.385 22.326L419.274 22.784ZM437.962 42.8748L436.506 31.3388L434.521 31.5892L435.977 43.1252L437.962 42.8748ZM436.46 31.7874L437.972 27.3634L436.079 26.7166L434.567 31.1406L436.46 31.7874ZM437.972 26.7166L436.46 22.2926L434.567 22.9394L436.079 27.3634L437.972 26.7166ZM436.506 22.7406L437.962 11.1486L435.977 10.8994L434.521 22.4914L436.506 22.7406ZM436.97 12.024H448.842V10.024H436.97V12.024ZM447.849 10.8987L445.833 26.8587L447.818 27.1093L449.834 11.1493L447.849 10.8987ZM445.833 27.1089L447.849 43.1249L449.834 42.8751L447.818 26.8591L445.833 27.1089ZM448.842 42H436.97V44H448.842V42ZM438.669 26.8863C438.164 30.1328 437.159 32.9521 435.671 35.3625L437.372 36.4135C439.02 33.7465 440.105 30.6672 440.646 27.1937L438.669 26.8863ZM435.665 35.3717C434.214 37.7788 432.369 39.6353 430.131 40.9641L431.152 42.6839C433.693 41.1754 435.768 39.0746 437.378 36.4043L435.665 35.3717ZM430.135 40.9617C427.953 42.2433 425.443 42.896 422.578 42.896V44.896C425.76 44.896 428.626 44.1673 431.148 42.6863L430.135 40.9617ZM422.578 42.896C419.593 42.896 417.007 42.2402 414.79 40.9583L413.789 42.6897C416.35 44.1705 419.29 44.896 422.578 44.896V42.896ZM414.806 40.9677C412.617 39.6472 410.892 37.8061 409.629 35.4201L407.862 36.3559C409.287 39.0473 411.258 41.1635 413.773 42.6803L414.806 40.9677ZM409.632 35.4254C408.373 33.0116 407.73 30.2249 407.73 27.04H405.73C405.73 30.5004 406.43 33.6124 407.859 36.3506L409.632 35.4254ZM407.73 27.04C407.73 23.776 408.374 20.9742 409.629 18.6039L407.862 17.6681C406.429 20.3751 405.73 23.5093 405.73 27.04H407.73ZM409.629 18.6039C410.892 16.2179 412.617 14.3768 414.806 13.0563L413.773 11.3437C411.258 12.8605 409.287 14.9767 407.862 17.6681L409.629 18.6039ZM414.8 13.0599C417.016 11.7443 419.598 11.072 422.578 11.072V9.072C419.285 9.072 416.342 9.8184 413.779 11.3401L414.8 13.0599ZM422.578 11.072C425.438 11.072 427.944 11.741 430.125 13.0563L431.158 11.3437C428.635 9.8217 425.765 9.072 422.578 9.072V11.072ZM430.141 13.0657C432.376 14.3577 434.238 16.1957 435.727 18.6055L437.428 17.5545C435.781 14.8869 433.686 12.8049 431.142 11.3343L430.141 13.0657ZM435.73 18.6111C437.211 20.9729 438.198 23.8202 438.667 27.1784L440.648 26.9016C440.147 23.3158 439.08 20.1898 437.425 17.5489L435.73 18.6111ZM417.322 27.04C417.322 28.7462 417.668 30.3067 418.385 31.698L420.162 30.782C419.61 29.7093 419.322 28.4698 419.322 27.04H417.322ZM418.396 31.7189C419.148 33.0989 420.183 34.2007 421.495 35.0046L422.54 33.2994C421.537 32.6846 420.743 31.8451 420.151 30.7611L418.396 31.7189ZM421.515 35.0168C422.842 35.7873 424.345 36.16 425.994 36.16V34.16C424.656 34.16 423.507 33.8607 422.52 33.2872L421.515 35.0168ZM425.994 36.16C427.71 36.16 429.334 35.791 430.855 35.0512L429.98 33.2528C428.738 33.857 427.413 34.16 425.994 34.16V36.16ZM430.874 35.0416C432.377 34.2698 433.693 33.215 434.82 31.887L433.295 30.593C432.331 31.729 431.22 32.6155 429.961 33.2624L430.874 35.0416ZM434.82 31.887C435.95 30.5554 436.796 29.0425 437.358 27.3562L435.461 26.7238C434.978 28.1735 434.256 29.4606 433.295 30.593L434.82 31.887ZM437.36 26.7304C436.799 25.0071 435.953 23.4726 434.82 22.137L433.295 23.431C434.252 24.5594 434.974 25.8622 435.459 27.3496L437.36 26.7304ZM434.82 22.137C433.693 20.809 432.377 19.7542 430.874 18.9824L429.961 20.7616C431.22 21.4085 432.331 22.295 433.295 23.431L434.82 22.137ZM430.874 18.9824C429.35 18.1998 427.719 17.808 425.994 17.808V19.808C427.404 19.808 428.722 20.1255 429.961 20.7616L430.874 18.9824ZM425.994 17.808C424.335 17.808 422.825 18.2042 421.495 19.0194L422.54 20.7246C423.525 20.1212 424.666 19.808 425.994 19.808V17.808ZM421.495 19.0194C420.183 19.8233 419.148 20.9251 418.396 22.3051L420.151 23.2629C420.743 22.1789 421.537 21.3394 422.54 20.7246L421.495 19.0194ZM418.385 22.326C417.666 23.7206 417.322 25.3006 417.322 27.04H419.322C419.322 25.5687 419.612 24.3114 420.162 23.242L418.385 22.326ZM491.635 11.024H492.635V10.024H491.635V11.024ZM491.635 36.616L490.99 37.38L492.635 38.7693V36.616H491.635ZM489.115 34.488V33.488H486.381L488.47 35.252L489.115 34.488ZM497.459 34.488H498.459V33.488H497.459V34.488ZM497.459 50.672V51.672H498.459V50.672H497.459ZM487.603 50.672H486.603V51.672H487.603V50.672ZM487.603 40.536L488.368 39.8924L486.603 37.7931V40.536H487.603ZM489.675 43V44H491.823L490.44 42.3564L489.675 43ZM454.339 43H453.339V44H454.339V43ZM454.339 11.024V10.024H453.339V11.024H454.339ZM465.819 11.024H466.819V10.024H465.819V11.024ZM465.819 36.616L465.064 37.2717L466.819 39.2926V36.616H465.819ZM463.971 34.488V33.488H461.778L463.216 35.1437L463.971 34.488ZM482.395 34.488L483.084 35.213L484.9 33.488H482.395V34.488ZM480.155 36.616H479.155V38.9453L480.844 37.341L480.155 36.616ZM480.155 11.024V10.024H479.155V11.024H480.155ZM490.635 11.024V36.616H492.635V11.024H490.635ZM492.28 35.852L489.76 33.724L488.47 35.252L490.99 37.38L492.28 35.852ZM489.115 35.488H497.459V33.488H489.115V35.488ZM496.459 34.488V50.672H498.459V34.488H496.459ZM497.459 49.672H487.603V51.672H497.459V49.672ZM488.603 50.672V40.536H486.603V50.672H488.603ZM486.838 41.1796L488.91 43.6436L490.44 42.3564L488.368 39.8924L486.838 41.1796ZM489.675 42H454.339V44H489.675V42ZM455.339 43V11.024H453.339V43H455.339ZM454.339 12.024H465.819V10.024H454.339V12.024ZM464.819 11.024V36.616H466.819V11.024H464.819ZM466.574 35.9603L464.726 33.8323L463.216 35.1437L465.064 37.2717L466.574 35.9603ZM463.971 35.488H482.395V33.488H463.971V35.488ZM481.706 33.763L479.466 35.891L480.844 37.341L483.084 35.213L481.706 33.763ZM481.155 36.616V11.024H479.155V36.616H481.155ZM480.155 12.024H491.635V10.024H480.155V12.024ZM502.027 43H501.027V44H502.027V43ZM502.027 11.024V10.024H501.027V11.024H502.027ZM513.339 11.024H514.339V10.024H513.339V11.024ZM513.339 36.784L513.035 37.7369L514.339 38.1516V36.784H513.339ZM510.875 36L510.044 35.4432L509.303 36.5492L510.571 36.9529L510.875 36ZM527.619 11.024V10.024H527.085L526.788 10.4672L527.619 11.024ZM542.291 11.024H543.291V10.024H542.291V11.024ZM542.291 43V44H543.291V43H542.291ZM531.035 43H530.035V44H531.035V43ZM531.035 16.512L531.357 15.5655L530.035 15.1146V16.512H531.035ZM533.499 17.352L534.329 17.9088L535.055 16.8261L533.821 16.4055L533.499 17.352ZM516.307 43V44H516.84L517.137 43.5568L516.307 43ZM503.027 43V11.024H501.027V43H503.027ZM502.027 12.024H513.339V10.024H502.027V12.024ZM512.339 11.024V36.784H514.339V11.024H512.339ZM513.642 35.8311L511.178 35.0471L510.571 36.9529L513.035 37.7369L513.642 35.8311ZM511.705 36.5568L528.449 11.5808L526.788 10.4672L510.044 35.4432L511.705 36.5568ZM527.619 12.024H542.291V10.024H527.619V12.024ZM541.291 11.024V43H543.291V11.024H541.291ZM542.291 42H531.035V44H542.291V42ZM532.035 43V16.512H530.035V43H532.035ZM530.712 17.4585L533.176 18.2985L533.821 16.4055L531.357 15.5655L530.712 17.4585ZM532.668 16.7952L515.476 42.4432L517.137 43.5568L534.329 17.9088L532.668 16.7952ZM516.307 42H502.027V44H516.307V42ZM575.78 25.472H576.78V24.472H575.78V25.472ZM575.78 32.584V33.584H576.78V32.584H575.78ZM560.492 32.584L559.544 32.9002L559.772 33.584H560.492V32.584ZM560.38 32.248L561.329 31.9318L561.101 31.248H560.38V32.248ZM553.716 30.96L553.305 31.8716L553.312 31.8745L553.716 30.96ZM549.236 27.32L548.398 27.8657L548.406 27.877L548.413 27.8882L549.236 27.32ZM549.236 16.12L548.407 15.5609L548.403 15.5676L548.398 15.5743L549.236 16.12ZM553.716 12.368L553.297 11.46L553.291 11.4632L553.716 12.368ZM584.068 11.024H585.068V10.024H584.068V11.024ZM584.068 43V44H585.068V43H584.068ZM572.644 43H571.644V44H572.644V43ZM572.644 13.824L573.47 13.26L571.644 10.5865V13.824H572.644ZM575.78 18.416V19.416H577.674L576.606 17.852L575.78 18.416ZM560.268 19.368L560.913 20.1329L560.916 20.1299L560.268 19.368ZM560.268 24.52L559.602 25.2652L559.611 25.2737L559.621 25.2819L560.268 24.52ZM570.012 28.048L570.834 28.6175L571.922 27.048H570.012V28.048ZM559.652 43V44H560.176L560.474 43.5695L559.652 43ZM546.772 43L545.965 42.4102L544.804 44H546.772V43ZM557.692 28.048V27.048H557.184L556.885 27.4582L557.692 28.048ZM574.78 25.472V32.584H576.78V25.472H574.78ZM575.78 31.584H560.492V33.584H575.78V31.584ZM561.441 32.2678L561.329 31.9318L559.432 32.5642L559.544 32.9002L561.441 32.2678ZM560.38 31.248C557.994 31.248 555.914 30.8386 554.121 30.0455L553.312 31.8745C555.401 32.7987 557.764 33.248 560.38 33.248V31.248ZM554.127 30.0484C552.373 29.2572 551.029 28.1558 550.059 26.7518L548.413 27.8882C549.609 29.6202 551.252 30.9455 553.305 31.8716L554.127 30.0484ZM550.074 26.7743C549.144 25.3461 548.668 23.6914 548.668 21.776H546.668C546.668 24.042 547.238 26.0832 548.398 27.8657L550.074 26.7743ZM548.668 21.776C548.668 19.7784 549.148 18.0881 550.074 16.6657L548.398 15.5743C547.234 17.3625 546.668 19.443 546.668 21.776H548.668ZM550.065 16.6791C551.039 15.2361 552.387 14.0989 554.142 13.2728L553.291 11.4632C551.238 12.4291 549.599 13.7932 548.407 15.5609L550.065 16.6791ZM554.135 13.276C555.925 12.45 557.999 12.024 560.38 12.024V10.024C557.759 10.024 555.391 10.494 553.297 11.46L554.135 13.276ZM560.38 12.024H584.068V10.024H560.38V12.024ZM583.068 11.024V43H585.068V11.024H583.068ZM584.068 42H572.644V44H584.068V42ZM573.644 43V13.824H571.644V43H573.644ZM571.819 14.388L574.955 18.98L576.606 17.852L573.47 13.26L571.819 14.388ZM575.78 17.416H563.292V19.416H575.78V17.416ZM563.292 17.416C561.857 17.416 560.596 17.777 559.621 18.6061L560.916 20.1299C561.434 19.6896 562.189 19.416 563.292 19.416V17.416ZM559.624 18.6031C558.65 19.4231 558.204 20.5652 558.204 21.888H560.204C560.204 21.0454 560.468 20.5075 560.913 20.1329L559.624 18.6031ZM558.204 21.888C558.204 23.2374 558.642 24.407 559.602 25.2652L560.935 23.7748C560.476 23.3637 560.204 22.7786 560.204 21.888H558.204ZM559.621 25.2819C560.596 26.111 561.857 26.472 563.292 26.472V24.472C562.189 24.472 561.434 24.1984 560.916 23.7581L559.621 25.2819ZM563.292 26.472H575.78V24.472H563.292V26.472ZM569.19 27.4785L558.83 42.4305L560.474 43.5695L570.834 28.6175L569.19 27.4785ZM559.652 42H546.772V44H559.652V42ZM547.58 43.5898L558.5 28.6378L556.885 27.4582L545.965 42.4102L547.58 43.5898ZM557.692 29.048H570.012V27.048H557.692V29.048Z" fill="#8073FF" mask="url(#path-1-outside-1_983_2660)"/>
</svg>
