<svg width="432" height="58" viewBox="0 0 432 58" fill="none" xmlns="http://www.w3.org/2000/svg">
<mask id="path-1-outside-1_974_888" maskUnits="userSpaceOnUse" x="0" y="0" width="432" height="58" fill="black">
<rect fill="white" width="432" height="58"/>
<path d="M25.496 5C29.0053 5 32.0293 5.59733 34.568 6.792C37.144 7.98666 39.104 9.68533 40.448 11.888C41.792 14.0533 42.464 16.592 42.464 19.504C42.464 22.3787 41.792 24.9173 40.448 27.12C39.104 29.2853 37.144 30.9653 34.568 32.16C32.0293 33.3547 29.0053 33.952 25.496 33.952H7.296V24.656H24.768C26.6347 24.656 28.0907 24.208 29.136 23.312C30.1813 22.3787 30.704 21.1093 30.704 19.504C30.704 17.8613 30.1813 16.592 29.136 15.696C28.0907 14.7627 26.6347 14.296 24.768 14.296H8.304L13.512 8.92V47H1.92V5H25.496ZM74.9851 47L73.5291 35.464L75.0411 31.04L73.5291 26.616L74.9851 15.024H86.8571L84.8411 30.984L86.8571 47H74.9851ZM77.6731 31.04C77.1505 34.4 76.1051 37.3493 74.5371 39.888C73.0065 42.4267 71.0465 44.4053 68.6571 45.824C66.3051 47.2053 63.6171 47.896 60.5931 47.896C57.4571 47.896 54.6945 47.2053 52.3051 45.824C49.9531 44.4053 48.1051 42.4267 46.7611 39.888C45.4171 37.312 44.7451 34.3627 44.7451 31.04C44.7451 27.6427 45.4171 24.6747 46.7611 22.136C48.1051 19.5973 49.9531 17.6187 52.3051 16.2C54.6945 14.7813 57.4571 14.072 60.5931 14.072C63.6171 14.072 66.3051 14.7813 68.6571 16.2C71.0465 17.5813 73.0251 19.5413 74.5931 22.08C76.1611 24.5813 77.1878 27.568 77.6731 31.04ZM56.3371 31.04C56.3371 32.608 56.6545 34.008 57.2891 35.24C57.9611 36.472 58.8758 37.4427 60.0331 38.152C61.1905 38.824 62.5158 39.16 64.0091 39.16C65.5771 39.16 67.0518 38.824 68.4331 38.152C69.8145 37.4427 71.0278 36.472 72.0731 35.24C73.1185 34.008 73.9025 32.608 74.4251 31.04C73.9025 29.4347 73.1185 28.016 72.0731 26.784C71.0278 25.552 69.8145 24.5813 68.4331 23.872C67.0518 23.1627 65.5771 22.808 64.0091 22.808C62.5158 22.808 61.1905 23.1627 60.0331 23.872C58.8758 24.5813 57.9611 25.552 57.2891 26.784C56.6545 28.016 56.3371 29.4347 56.3371 31.04ZM109.099 47.896C105.403 47.896 102.155 47.4293 99.3548 46.496C96.5921 45.5253 94.4268 44.1627 92.8588 42.408C91.2908 40.616 90.4508 38.5067 90.3388 36.08H101.371C101.595 37.424 102.36 38.4507 103.667 39.16C105.011 39.8693 106.821 40.224 109.099 40.224C111.301 40.224 113 39.944 114.195 39.384C115.389 38.824 115.987 37.984 115.987 36.864C115.987 35.856 115.464 35.128 114.419 34.68C113.373 34.232 111.712 34.008 109.435 34.008H103.779V27.848H109.267C111.283 27.848 112.776 27.5867 113.747 27.064C114.717 26.5413 115.203 25.832 115.203 24.936C115.203 23.928 114.661 23.1627 113.579 22.64C112.496 22.08 111.003 21.8 109.099 21.8C107.008 21.8 105.328 22.136 104.059 22.808C102.827 23.4427 102.117 24.3947 101.931 25.664H90.9548C91.0668 23.536 91.8508 21.5947 93.3068 19.84C94.8001 18.0853 96.9094 16.6853 99.6348 15.64C102.36 14.5947 105.664 14.072 109.547 14.072C112.981 14.072 115.987 14.4827 118.563 15.304C121.139 16.088 123.136 17.1893 124.555 18.608C126.011 19.9893 126.739 21.576 126.739 23.368C126.739 24.7493 126.291 26.056 125.395 27.288C124.536 28.4827 123.117 29.4347 121.139 30.144C119.16 30.8533 116.509 31.208 113.187 31.208V30.256C117.816 30.0693 121.363 30.592 123.827 31.824C126.291 33.056 127.523 34.9973 127.523 37.648C127.523 39.5893 126.795 41.344 125.339 42.912C123.92 44.4427 121.829 45.656 119.067 46.552C116.341 47.448 113.019 47.896 109.099 47.896ZM132.441 15.024H143.921V24.208L143.417 25.552V34.512L143.921 37.144V56.24H132.441V15.024ZM140.281 31.04C140.766 27.568 141.774 24.5813 143.305 22.08C144.873 19.5413 146.851 17.5813 149.241 16.2C151.63 14.7813 154.337 14.072 157.361 14.072C160.497 14.072 163.241 14.7813 165.593 16.2C167.982 17.6187 169.83 19.5973 171.137 22.136C172.481 24.6747 173.153 27.6427 173.153 31.04C173.153 34.3627 172.481 37.312 171.137 39.888C169.83 42.4267 167.982 44.4053 165.593 45.824C163.241 47.2053 160.497 47.896 157.361 47.896C154.337 47.896 151.63 47.2053 149.241 45.824C146.851 44.4053 144.891 42.4267 143.361 39.888C141.83 37.3493 140.803 34.4 140.281 31.04ZM161.617 31.04C161.617 29.4347 161.281 28.016 160.609 26.784C159.974 25.552 159.059 24.5813 157.865 23.872C156.707 23.1627 155.382 22.808 153.889 22.808C152.358 22.808 150.902 23.1627 149.521 23.872C148.139 24.5813 146.926 25.552 145.881 26.784C144.835 28.016 144.033 29.4347 143.473 31.04C144.033 32.608 144.835 34.008 145.881 35.24C146.926 36.472 148.139 37.4427 149.521 38.152C150.902 38.824 152.358 39.16 153.889 39.16C155.382 39.16 156.707 38.824 157.865 38.152C159.059 37.4427 159.974 36.472 160.609 35.24C161.281 34.008 161.617 32.608 161.617 31.04ZM207.001 47L205.545 35.464L207.057 31.04L205.545 26.616L207.001 15.024H218.873L216.857 30.984L218.873 47H207.001ZM209.689 31.04C209.166 34.4 208.121 37.3493 206.553 39.888C205.022 42.4267 203.062 44.4053 200.673 45.824C198.321 47.2053 195.633 47.896 192.609 47.896C189.473 47.896 186.71 47.2053 184.321 45.824C181.969 44.4053 180.121 42.4267 178.777 39.888C177.433 37.312 176.761 34.3627 176.761 31.04C176.761 27.6427 177.433 24.6747 178.777 22.136C180.121 19.5973 181.969 17.6187 184.321 16.2C186.71 14.7813 189.473 14.072 192.609 14.072C195.633 14.072 198.321 14.7813 200.673 16.2C203.062 17.5813 205.041 19.5413 206.609 22.08C208.177 24.5813 209.203 27.568 209.689 31.04ZM188.353 31.04C188.353 32.608 188.67 34.008 189.305 35.24C189.977 36.472 190.891 37.4427 192.049 38.152C193.206 38.824 194.531 39.16 196.025 39.16C197.593 39.16 199.067 38.824 200.449 38.152C201.83 37.4427 203.043 36.472 204.089 35.24C205.134 34.008 205.918 32.608 206.441 31.04C205.918 29.4347 205.134 28.016 204.089 26.784C203.043 25.552 201.83 24.5813 200.449 23.872C199.067 23.1627 197.593 22.808 196.025 22.808C194.531 22.808 193.206 23.1627 192.049 23.872C190.891 24.5813 189.977 25.552 189.305 26.784C188.67 28.016 188.353 29.4347 188.353 31.04ZM244.534 47.896C240.017 47.896 236.153 47.0747 232.942 45.432C229.769 43.752 227.324 41.344 225.606 38.208C223.926 35.0347 223.086 31.2267 223.086 26.784C223.086 20.176 224.916 14.968 228.574 11.16C232.233 7.31466 237.46 5.09333 244.254 4.496C247.054 4.272 249.369 4.08533 251.198 3.936C253.028 3.74933 254.521 3.58133 255.678 3.432C256.873 3.24533 257.881 3.05866 258.702 2.872C259.561 2.68533 260.382 2.46133 261.166 2.2V11.496C260.27 11.832 259.206 12.112 257.974 12.336C256.742 12.56 255.193 12.7467 253.326 12.896C251.497 13.0453 249.201 13.176 246.438 13.288C241.66 13.4747 238.15 14.688 235.91 16.928C233.708 19.1307 232.606 22.3413 232.606 26.56V27.736L232.27 26.896C232.942 25.0293 234.025 23.424 235.518 22.08C237.012 20.736 238.822 19.7093 240.95 19C243.078 18.2533 245.393 17.88 247.894 17.88C251.142 17.88 253.98 18.4773 256.406 19.672C258.833 20.8667 260.718 22.5653 262.062 24.768C263.406 26.9707 264.078 29.5093 264.078 32.384C264.078 35.52 263.257 38.264 261.614 40.616C260.009 42.9307 257.75 44.7227 254.838 45.992C251.926 47.2613 248.492 47.896 244.534 47.896ZM244.814 39.44C246.382 39.44 247.745 39.16 248.902 38.6C250.06 38.04 250.956 37.2373 251.59 36.192C252.225 35.1467 252.542 33.952 252.542 32.608C252.542 31.1893 252.225 29.976 251.59 28.968C250.956 27.96 250.06 27.176 248.902 26.616C247.745 26.056 246.382 25.776 244.814 25.776C242.612 25.776 240.614 26.3547 238.822 27.512C237.068 28.632 235.761 30.2 234.902 32.216C235.425 34.3813 236.582 36.136 238.374 37.48C240.204 38.7867 242.35 39.44 244.814 39.44ZM287.981 47.896C283.874 47.896 280.29 47.2053 277.229 45.824C274.167 44.4053 271.778 42.4267 270.061 39.888C268.343 37.312 267.485 34.3627 267.485 31.04C267.485 27.6427 268.343 24.6747 270.061 22.136C271.778 19.5973 274.167 17.6187 277.229 16.2C280.29 14.7813 283.874 14.072 287.981 14.072C292.05 14.072 295.615 14.7813 298.677 16.2C301.775 17.6187 304.183 19.5973 305.901 22.136C307.618 24.6747 308.477 27.6427 308.477 31.04C308.477 34.3627 307.618 37.312 305.901 39.888C304.183 42.4267 301.775 44.4053 298.677 45.824C295.615 47.2053 292.05 47.896 287.981 47.896ZM287.981 39.44C289.847 39.44 291.434 39.104 292.741 38.432C294.085 37.76 295.111 36.7893 295.821 35.52C296.53 34.2507 296.885 32.7573 296.885 31.04C296.885 29.248 296.53 27.736 295.821 26.504C295.111 25.2347 294.085 24.264 292.741 23.592C291.434 22.92 289.847 22.584 287.981 22.584C286.114 22.584 284.509 22.92 283.165 23.592C281.821 24.264 280.794 25.2347 280.085 26.504C279.375 27.736 279.021 29.2293 279.021 30.984C279.021 32.7387 279.375 34.2507 280.085 35.52C280.794 36.7893 281.821 37.76 283.165 38.432C284.509 39.104 286.114 39.44 287.981 39.44ZM322.053 18.944H333.533V47H322.053V18.944ZM309.901 15.024H345.685V23.648H309.901V15.024ZM349.605 47V15.024H361.085V38.096L357.725 36.92L375.533 15.024H387.629L359.797 47H349.605ZM375.645 47L366.517 31.376L375.141 25.328L388.525 47H375.645ZM418.368 47L416.912 35.464L418.424 31.04L416.912 26.616L418.368 15.024H430.24L428.224 30.984L430.24 47H418.368ZM421.056 31.04C420.533 34.4 419.488 37.3493 417.92 39.888C416.389 42.4267 414.429 44.4053 412.04 45.824C409.688 47.2053 407 47.896 403.976 47.896C400.84 47.896 398.077 47.2053 395.688 45.824C393.336 44.4053 391.488 42.4267 390.144 39.888C388.8 37.312 388.128 34.3627 388.128 31.04C388.128 27.6427 388.8 24.6747 390.144 22.136C391.488 19.5973 393.336 17.6187 395.688 16.2C398.077 14.7813 400.84 14.072 403.976 14.072C407 14.072 409.688 14.7813 412.04 16.2C414.429 17.5813 416.408 19.5413 417.976 22.08C419.544 24.5813 420.571 27.568 421.056 31.04ZM399.72 31.04C399.72 32.608 400.037 34.008 400.672 35.24C401.344 36.472 402.259 37.4427 403.416 38.152C404.573 38.824 405.899 39.16 407.392 39.16C408.96 39.16 410.435 38.824 411.816 38.152C413.197 37.4427 414.411 36.472 415.456 35.24C416.501 34.008 417.285 32.608 417.808 31.04C417.285 29.4347 416.501 28.016 415.456 26.784C414.411 25.552 413.197 24.5813 411.816 23.872C410.435 23.1627 408.96 22.808 407.392 22.808C405.899 22.808 404.573 23.1627 403.416 23.872C402.259 24.5813 401.344 25.552 400.672 26.784C400.037 28.016 399.72 29.4347 399.72 31.04Z"/>
</mask>
<path d="M34.568 6.792L34.1422 7.69683L34.1473 7.69919L34.568 6.792ZM40.448 11.888L39.5943 12.4089L39.5984 12.4154L40.448 11.888ZM40.448 27.12L41.2977 27.6474L41.3016 27.6409L40.448 27.12ZM34.568 32.16L34.1473 31.2528L34.1422 31.2552L34.568 32.16ZM7.296 33.952H6.296V34.952H7.296V33.952ZM7.296 24.656V23.656H6.296V24.656H7.296ZM29.136 23.312L29.7868 24.0713L29.7945 24.0647L29.802 24.0579L29.136 23.312ZM29.136 15.696L28.47 16.4419L28.4775 16.4487L28.4852 16.4553L29.136 15.696ZM8.304 14.296L7.58576 13.6002L5.94296 15.296H8.304V14.296ZM13.512 8.92H14.512V6.45054L12.7938 8.2242L13.512 8.92ZM13.512 47V48H14.512V47H13.512ZM1.92 47H0.92V48H1.92V47ZM1.92 5V4H0.92V5H1.92ZM25.496 6C28.894 6 31.7658 6.57851 34.1422 7.69682L34.9938 5.88718C32.2929 4.61615 29.1166 4 25.496 4V6ZM34.1473 7.69919C36.5627 8.81939 38.3636 10.3918 39.5944 12.4089L41.3016 11.3671C39.8444 8.97891 37.7253 7.15393 34.9887 5.88481L34.1473 7.69919ZM39.5984 12.4154C40.8307 14.4007 41.464 16.7512 41.464 19.504H43.464C43.464 16.4328 42.7533 13.7059 41.2976 11.3606L39.5984 12.4154ZM41.464 19.504C41.464 22.2165 40.832 24.5708 39.5944 26.5991L41.3016 27.6409C42.752 25.2639 43.464 22.5409 43.464 19.504H41.464ZM39.5984 26.5926C38.3688 28.5737 36.5673 30.1305 34.1473 31.2528L34.9887 33.0672C37.7207 31.8002 39.8392 29.997 41.2976 27.6474L39.5984 26.5926ZM34.1422 31.2552C31.7658 32.3735 28.894 32.952 25.496 32.952V34.952C29.1166 34.952 32.2929 34.3358 34.9938 33.0648L34.1422 31.2552ZM25.496 32.952H7.296V34.952H25.496V32.952ZM8.296 33.952V24.656H6.296V33.952H8.296ZM7.296 25.656H24.768V23.656H7.296V25.656ZM24.768 25.656C26.7881 25.656 28.5045 25.1703 29.7868 24.0713L28.4852 22.5527C27.6768 23.2457 26.4812 23.656 24.768 23.656V25.656ZM29.802 24.0579C31.0918 22.9063 31.704 21.3483 31.704 19.504H29.704C29.704 20.8703 29.2709 21.851 28.47 22.5661L29.802 24.0579ZM31.704 19.504C31.704 17.6314 31.0969 16.0597 29.7868 14.9367L28.4852 16.4553C29.2658 17.1243 29.704 18.0913 29.704 19.504H31.704ZM29.802 14.9501C28.5198 13.8052 26.7974 13.296 24.768 13.296V15.296C26.4719 15.296 27.6615 15.7201 28.47 16.4419L29.802 14.9501ZM24.768 13.296H8.304V15.296H24.768V13.296ZM9.02224 14.9918L14.2302 9.61579L12.7938 8.2242L7.58576 13.6002L9.02224 14.9918ZM12.512 8.92V47H14.512V8.92H12.512ZM13.512 46H1.92V48H13.512V46ZM2.92 47V5H0.92V47H2.92ZM1.92 6H25.496V4H1.92V6ZM74.9851 47L73.993 47.1252L74.1034 48H74.9851V47ZM73.5291 35.464L72.5829 35.1406L72.508 35.3596L72.537 35.5892L73.5291 35.464ZM75.0411 31.04L75.9874 31.3634L76.0979 31.04L75.9874 30.7166L75.0411 31.04ZM73.5291 26.616L72.5369 26.4914L72.5081 26.7207L72.5829 26.9394L73.5291 26.616ZM74.9851 15.024V14.024H74.1029L73.9929 14.8994L74.9851 15.024ZM86.8571 15.024L87.8492 15.1493L87.9914 14.024H86.8571V15.024ZM84.8411 30.984L83.849 30.8587L83.8332 30.9838L83.849 31.1089L84.8411 30.984ZM86.8571 47V48H87.9909L87.8493 46.8751L86.8571 47ZM77.6731 31.04L78.6612 31.1937L78.6839 31.0478L78.6635 30.9016L77.6731 31.04ZM74.5371 39.888L73.6863 39.3625L73.6807 39.3717L74.5371 39.888ZM68.6571 45.824L69.1636 46.6863L69.1677 46.6839L68.6571 45.824ZM52.3051 45.824L51.7886 46.6803L51.7966 46.6851L51.8046 46.6897L52.3051 45.824ZM46.7611 39.888L45.8745 40.3506L45.8773 40.3559L46.7611 39.888ZM46.7611 22.136L45.8773 21.6681L45.8773 21.6681L46.7611 22.136ZM52.3051 16.2L51.7946 15.3401L51.7886 15.3437L52.3051 16.2ZM68.6571 16.2L68.1406 17.0563L68.1486 17.0611L68.1566 17.0657L68.6571 16.2ZM74.5931 22.08L73.7423 22.6055L73.7458 22.6111L74.5931 22.08ZM57.2891 35.24L56.4002 35.698L56.4056 35.7085L56.4112 35.7189L57.2891 35.24ZM60.0331 38.152L59.5106 39.0046L59.5207 39.0108L59.531 39.0168L60.0331 38.152ZM68.4331 38.152L68.8706 39.0512L68.8803 39.0465L68.8899 39.0416L68.4331 38.152ZM72.0731 35.24L72.8356 35.887L72.8356 35.887L72.0731 35.24ZM74.4251 31.04L75.3738 31.3562L75.478 31.0437L75.376 30.7304L74.4251 31.04ZM72.0731 26.784L72.8356 26.137L72.8356 26.137L72.0731 26.784ZM60.0331 23.872L59.5106 23.0194L59.5106 23.0194L60.0331 23.872ZM57.2891 26.784L56.4112 26.3051L56.4056 26.3155L56.4002 26.326L57.2891 26.784ZM75.9773 46.8748L74.5213 35.3388L72.537 35.5892L73.993 47.1252L75.9773 46.8748ZM74.4754 35.7874L75.9874 31.3634L74.0949 30.7166L72.5829 35.1406L74.4754 35.7874ZM75.9874 30.7166L74.4754 26.2926L72.5829 26.9394L74.0949 31.3634L75.9874 30.7166ZM74.5213 26.7406L75.9773 15.1486L73.9929 14.8994L72.5369 26.4914L74.5213 26.7406ZM74.9851 16.024H86.8571V14.024H74.9851V16.024ZM85.865 14.8987L83.849 30.8587L85.8332 31.1093L87.8492 15.1493L85.865 14.8987ZM83.849 31.1089L85.865 47.1249L87.8493 46.8751L85.8333 30.8591L83.849 31.1089ZM86.8571 46H74.9851V48H86.8571V46ZM76.685 30.8863C76.18 34.1328 75.1751 36.9521 73.6863 39.3625L75.3879 40.4135C77.0352 37.7465 78.1209 34.6672 78.6612 31.1937L76.685 30.8863ZM73.6807 39.3717C72.2294 41.7788 70.3846 43.6353 68.1466 44.9641L69.1677 46.6839C71.7083 45.1754 73.7835 43.0746 75.3935 40.4043L73.6807 39.3717ZM68.1507 44.9617C65.9685 46.2433 63.4589 46.896 60.5931 46.896V48.896C63.7753 48.896 66.6417 48.1673 69.1635 46.6863L68.1507 44.9617ZM60.5931 46.896C57.6085 46.896 55.023 46.2402 52.8056 44.9583L51.8046 46.6897C54.3659 48.1705 57.3058 48.896 60.5931 48.896V46.896ZM52.8216 44.9677C50.6323 43.6472 48.9081 41.8061 47.6449 39.4201L45.8773 40.3559C47.3022 43.0473 49.274 45.1635 51.7886 46.6803L52.8216 44.9677ZM47.6477 39.4254C46.3883 37.0116 45.7451 34.2249 45.7451 31.04H43.7451C43.7451 34.5004 44.446 37.6124 45.8745 40.3506L47.6477 39.4254ZM45.7451 31.04C45.7451 27.776 46.39 24.9742 47.6449 22.6039L45.8773 21.6681C44.4442 24.3751 43.7451 27.5093 43.7451 31.04H45.7451ZM47.6449 22.6039C48.9081 20.2179 50.6323 18.3768 52.8216 17.0563L51.7886 15.3437C49.274 16.8605 47.3022 18.9767 45.8773 21.6681L47.6449 22.6039ZM52.8157 17.0599C55.0314 15.7443 57.6132 15.072 60.5931 15.072V13.072C57.3011 13.072 54.3575 13.8184 51.7946 15.3401L52.8157 17.0599ZM60.5931 15.072C63.454 15.072 65.96 15.741 68.1406 17.0563L69.1736 15.3437C66.6503 13.8217 63.7802 13.072 60.5931 13.072V15.072ZM68.1566 17.0657C70.3914 18.3577 72.2539 20.1957 73.7423 22.6055L75.4439 21.5545C73.7963 18.8869 71.7015 16.8049 69.1576 15.3343L68.1566 17.0657ZM73.7458 22.6111C75.2263 24.9729 76.2133 27.8202 76.6828 31.1784L78.6635 30.9016C78.1623 27.3158 77.0959 24.1898 75.4404 21.5489L73.7458 22.6111ZM55.3371 31.04C55.3371 32.7462 55.6834 34.3067 56.4002 35.698L58.1781 34.782C57.6255 33.7093 57.3371 32.4698 57.3371 31.04H55.3371ZM56.4112 35.7189C57.164 37.0989 58.199 38.2007 59.5106 39.0046L60.5557 37.2994C59.5526 36.6846 58.7582 35.8451 58.167 34.7611L56.4112 35.7189ZM59.531 39.0168C60.858 39.7873 62.3603 40.16 64.0091 40.16V38.16C62.6713 38.16 61.5229 37.8607 60.5353 37.2872L59.531 39.0168ZM64.0091 40.16C65.7254 40.16 67.3501 39.791 68.8706 39.0512L67.9957 37.2528C66.7535 37.857 65.4288 38.16 64.0091 38.16V40.16ZM68.8899 39.0416C70.3928 38.2698 71.7088 37.215 72.8356 35.887L71.3106 34.593C70.3468 35.729 69.2361 36.6155 67.9763 37.2624L68.8899 39.0416ZM72.8356 35.887C73.9655 34.5554 74.8117 33.0425 75.3738 31.3562L73.4764 30.7238C72.9932 32.1735 72.2714 33.4606 71.3106 34.593L72.8356 35.887ZM75.376 30.7304C74.8149 29.0071 73.9689 27.4726 72.8356 26.137L71.3106 27.431C72.2681 28.5594 72.99 29.8622 73.4743 31.3496L75.376 30.7304ZM72.8356 26.137C71.7088 24.809 70.3928 23.7542 68.8899 22.9824L67.9763 24.7616C69.2361 25.4085 70.3468 26.295 71.3106 27.431L72.8356 26.137ZM68.8899 22.9824C67.3658 22.1998 65.7344 21.808 64.0091 21.808V23.808C65.4199 23.808 66.7378 24.1255 67.9763 24.7616L68.8899 22.9824ZM64.0091 21.808C62.3504 21.808 60.8407 22.2042 59.5106 23.0194L60.5557 24.7246C61.5403 24.1212 62.6812 23.808 64.0091 23.808V21.808ZM59.5106 23.0194C58.199 23.8233 57.164 24.9251 56.4112 26.3051L58.167 27.2629C58.7582 26.1789 59.5526 25.3394 60.5557 24.7246L59.5106 23.0194ZM56.4002 26.326C55.6818 27.7206 55.3371 29.3006 55.3371 31.04H57.3371C57.3371 29.5687 57.6272 28.3114 58.1781 27.242L56.4002 26.326ZM99.3548 46.496L99.0233 47.4395L99.0309 47.4421L99.0385 47.4447L99.3548 46.496ZM92.8588 42.408L92.1061 43.0665L92.1131 43.0743L92.8588 42.408ZM90.3388 36.08V35.08H89.2915L89.3398 36.1261L90.3388 36.08ZM101.371 36.08L102.357 35.9156L102.218 35.08H101.371V36.08ZM103.667 39.16L103.19 40.0389L103.2 40.0444L103.667 39.16ZM114.195 39.384L113.77 38.4785L113.77 38.4785L114.195 39.384ZM114.419 34.68L114.813 33.7609L114.813 33.7609L114.419 34.68ZM103.779 34.008H102.779V35.008H103.779V34.008ZM103.779 27.848V26.848H102.779V27.848H103.779ZM113.579 22.64L113.119 23.5282L113.132 23.5346L113.144 23.5405L113.579 22.64ZM104.059 22.808L104.517 23.697L104.527 23.6918L104.059 22.808ZM101.931 25.664V26.664H102.794L102.92 25.8095L101.931 25.664ZM90.9548 25.664L89.9561 25.6114L89.9007 26.664H90.9548V25.664ZM93.3068 19.84L92.5452 19.1918L92.5372 19.2014L93.3068 19.84ZM99.6348 15.64L99.2766 14.7063L99.6348 15.64ZM118.563 15.304L118.259 16.2568L118.272 16.2607L118.563 15.304ZM124.555 18.608L123.848 19.3151L123.857 19.3244L123.866 19.3335L124.555 18.608ZM125.395 27.288L124.586 26.6998L124.583 26.7044L125.395 27.288ZM121.139 30.144L120.801 29.2027L120.801 29.2027L121.139 30.144ZM113.187 31.208H112.187V32.208H113.187V31.208ZM113.187 30.256L113.146 29.2568L112.187 29.2955V30.256H113.187ZM123.827 31.824L124.274 30.9296L124.274 30.9296L123.827 31.824ZM125.339 42.912L124.606 42.2315L124.605 42.2322L125.339 42.912ZM119.067 46.552L118.758 45.6008L118.754 45.602L119.067 46.552ZM109.099 46.896C105.484 46.896 102.347 46.4393 99.671 45.5473L99.0385 47.4447C101.962 48.4193 105.321 48.896 109.099 48.896V46.896ZM99.6862 45.5525C97.0444 44.6243 95.0357 43.3433 93.6044 41.7417L92.1131 43.0743C93.8178 44.982 96.1397 46.4263 99.0233 47.4395L99.6862 45.5525ZM93.6113 41.7495C92.1956 40.1316 91.4395 38.2394 91.3377 36.0339L89.3398 36.1261C89.462 38.7739 90.3859 41.1004 92.1062 43.0665L93.6113 41.7495ZM90.3388 37.08H101.371V35.08H90.3388V37.08ZM100.384 36.2444C100.664 37.9228 101.641 39.1979 103.19 40.0389L104.144 38.2811C103.08 37.7034 102.525 36.9252 102.357 35.9156L100.384 36.2444ZM103.2 40.0444C104.742 40.8581 106.733 41.224 109.099 41.224V39.224C106.91 39.224 105.28 38.8805 104.134 38.2756L103.2 40.0444ZM109.099 41.224C111.362 41.224 113.231 40.94 114.619 40.2895L113.77 38.4785C112.769 38.948 111.24 39.224 109.099 39.224V41.224ZM114.619 40.2895C115.33 39.9563 115.931 39.5081 116.354 38.9135C116.783 38.3095 116.987 37.6128 116.987 36.864H114.987C114.987 37.2352 114.892 37.5185 114.724 37.7545C114.549 37.9999 114.254 38.2517 113.77 38.4785L114.619 40.2895ZM116.987 36.864C116.987 36.178 116.805 35.5336 116.407 34.9788C116.014 34.4319 115.458 34.0376 114.813 33.7609L114.025 35.5991C114.425 35.7704 114.652 35.9641 114.782 36.1452C114.907 36.3184 114.987 36.542 114.987 36.864H116.987ZM114.813 33.7609C113.572 33.229 111.739 33.008 109.435 33.008V35.008C111.685 35.008 113.175 35.235 114.025 35.5991L114.813 33.7609ZM109.435 33.008H103.779V35.008H109.435V33.008ZM104.779 34.008V27.848H102.779V34.008H104.779ZM103.779 28.848H109.267V26.848H103.779V28.848ZM109.267 28.848C111.332 28.848 113.028 28.5866 114.221 27.9445L113.273 26.1835C112.524 26.5867 111.233 26.848 109.267 26.848V28.848ZM114.221 27.9445C115.427 27.2951 116.203 26.2906 116.203 24.936H114.203C114.203 25.3734 114.008 25.7876 113.273 26.1835L114.221 27.9445ZM116.203 24.936C116.203 24.2416 116.012 23.593 115.613 23.0285C115.221 22.4739 114.665 22.0541 114.014 21.7394L113.144 23.5405C113.575 23.7486 113.831 23.9728 113.98 24.1835C114.122 24.3843 114.203 24.6224 114.203 24.936H116.203ZM114.038 21.7518C112.756 21.0884 111.081 20.8 109.099 20.8V22.8C110.924 22.8 112.237 23.0716 113.119 23.5282L114.038 21.7518ZM109.099 20.8C106.914 20.8 105.055 21.149 103.591 21.9242L104.527 23.6918C105.601 23.123 107.102 22.8 109.099 22.8V20.8ZM103.601 21.919C102.109 22.6875 101.179 23.9014 100.941 25.5185L102.92 25.8095C103.056 24.888 103.544 24.1978 104.517 23.697L103.601 21.919ZM101.931 24.664H90.9548V26.664H101.931V24.664ZM91.9534 25.7166C92.0532 23.8189 92.7475 22.08 94.0763 20.4786L92.5372 19.2014C90.954 21.1094 90.0803 23.2531 89.9561 25.6114L91.9534 25.7166ZM94.0683 20.4881C95.428 18.8905 97.383 17.5747 99.9929 16.5737L99.2766 14.7063C96.4359 15.7959 94.1722 17.2802 92.5452 19.1919L94.0683 20.4881ZM99.9929 16.5737C102.573 15.584 105.748 15.072 109.547 15.072V13.072C105.58 13.072 102.147 13.6053 99.2766 14.7063L99.9929 16.5737ZM109.547 15.072C112.905 15.072 115.804 15.4739 118.259 16.2567L118.867 14.3513C116.17 13.4915 113.058 13.072 109.547 13.072V15.072ZM118.272 16.2607C120.742 17.0125 122.578 18.0454 123.848 19.3151L125.262 17.9009C123.694 16.3333 121.535 15.1634 118.854 14.3473L118.272 16.2607ZM123.866 19.3335C125.15 20.5509 125.739 21.8846 125.739 23.368H127.739C127.739 21.2674 126.872 19.4277 125.243 17.8825L123.866 19.3335ZM125.739 23.368C125.739 24.5162 125.371 25.6203 124.586 26.6998L126.203 27.8762C127.21 26.4917 127.739 24.9824 127.739 23.368H125.739ZM124.583 26.7044C123.883 27.6778 122.668 28.5336 120.801 29.2027L121.476 31.0853C123.567 30.3357 125.189 29.2876 126.207 27.8716L124.583 26.7044ZM120.801 29.2027C118.975 29.8573 116.453 30.208 113.187 30.208V32.208C116.566 32.208 119.345 31.8493 121.476 31.0853L120.801 29.2027ZM114.187 31.208V30.256H112.187V31.208H114.187ZM113.227 31.2552C117.789 31.0712 121.137 31.5971 123.38 32.7184L124.274 30.9296C121.589 29.5869 117.843 29.0674 113.146 29.2568L113.227 31.2552ZM123.38 32.7184C124.481 33.2694 125.253 33.9505 125.754 34.7398C126.254 35.527 126.523 36.4828 126.523 37.648H128.523C128.523 36.1626 128.176 34.8224 127.443 33.6682C126.712 32.5162 125.636 31.6106 124.274 30.9296L123.38 32.7184ZM126.523 37.648C126.523 39.3102 125.909 40.828 124.606 42.2315L126.072 43.5925C127.68 41.86 128.523 39.8684 128.523 37.648H126.523ZM124.605 42.2322C123.339 43.5981 121.419 44.7379 118.758 45.6008L119.375 47.5032C122.24 46.5741 124.501 45.2873 126.072 43.5918L124.605 42.2322ZM118.754 45.602C116.159 46.4552 112.949 46.896 109.099 46.896V48.896C113.089 48.896 116.524 48.4408 119.379 47.502L118.754 45.602ZM132.441 15.024V14.024H131.441V15.024H132.441ZM143.921 15.024H144.921V14.024H143.921V15.024ZM143.921 24.208L144.857 24.5591L144.921 24.3893V24.208H143.921ZM143.417 25.552L142.48 25.2009L142.417 25.3707V25.552H143.417ZM143.417 34.512H142.417V34.6069L142.435 34.7001L143.417 34.512ZM143.921 37.144H144.921V37.0491L144.903 36.9559L143.921 37.144ZM143.921 56.24V57.24H144.921V56.24H143.921ZM132.441 56.24H131.441V57.24H132.441V56.24ZM140.281 31.04L139.29 30.9016L139.27 31.0478L139.293 31.1937L140.281 31.04ZM143.305 22.08L142.454 21.5545L142.452 21.558L143.305 22.08ZM149.241 16.2L149.741 17.0658L149.751 17.0599L149.241 16.2ZM165.593 16.2L165.076 17.0563L165.082 17.0599L165.593 16.2ZM171.137 22.136L170.247 22.5937L170.253 22.6039L171.137 22.136ZM171.137 39.888L170.25 39.4254L170.248 39.4304L171.137 39.888ZM165.593 45.824L166.099 46.6863L166.103 46.6839L165.593 45.824ZM149.241 45.824L148.73 46.6839L148.74 46.6897L149.241 45.824ZM143.361 39.888L142.504 40.4043L142.504 40.4043L143.361 39.888ZM160.609 26.784L159.72 27.242L159.725 27.2525L159.731 27.2629L160.609 26.784ZM157.865 23.872L157.342 24.7247L157.354 24.7319L157.865 23.872ZM149.521 23.872L149.977 24.7616L149.977 24.7616L149.521 23.872ZM145.881 26.784L145.118 26.137L145.118 26.137L145.881 26.784ZM143.473 31.04L142.528 30.7106L142.412 31.0439L142.531 31.3763L143.473 31.04ZM145.881 35.24L145.118 35.887L145.881 35.24ZM149.521 38.152L149.064 39.0416L149.074 39.0465L149.083 39.0512L149.521 38.152ZM157.865 38.152L158.367 39.0168L158.375 39.0119L157.865 38.152ZM160.609 35.24L159.731 34.7611L159.725 34.7715L159.72 34.782L160.609 35.24ZM132.441 16.024H143.921V14.024H132.441V16.024ZM142.921 15.024V24.208H144.921V15.024H142.921ZM142.984 23.8569L142.48 25.2009L144.353 25.9031L144.857 24.5591L142.984 23.8569ZM142.417 25.552V34.512H144.417V25.552H142.417ZM142.435 34.7001L142.939 37.3321L144.903 36.9559L144.399 34.3239L142.435 34.7001ZM142.921 37.144V56.24H144.921V37.144H142.921ZM143.921 55.24H132.441V57.24H143.921V55.24ZM133.441 56.24V15.024H131.441V56.24H133.441ZM141.271 31.1784C141.741 27.8163 142.711 24.9657 144.158 22.602L142.452 21.558C140.837 24.197 139.791 27.3197 139.29 30.9016L141.271 31.1784ZM144.155 22.6055C145.644 20.1957 147.506 18.3577 149.741 17.0657L148.74 15.3343C146.196 16.8049 144.102 18.8869 142.454 21.5545L144.155 22.6055ZM149.751 17.0599C151.973 15.7409 154.5 15.072 157.361 15.072V13.072C154.173 13.072 151.287 13.8217 148.73 15.3401L149.751 17.0599ZM157.361 15.072C160.341 15.072 162.901 15.7444 165.076 17.0563L166.109 15.3437C163.58 13.8183 160.652 13.072 157.361 13.072V15.072ZM165.082 17.0599C167.305 18.3799 169.024 20.2171 170.248 22.5936L172.026 21.6784C170.636 18.9776 168.659 16.8574 166.103 15.3401L165.082 17.0599ZM170.253 22.6039C171.508 24.9742 172.153 27.776 172.153 31.04H174.153C174.153 27.5093 173.454 24.3751 172.02 21.6681L170.253 22.6039ZM172.153 31.04C172.153 34.2249 171.51 37.0116 170.25 39.4254L172.023 40.3506C173.452 37.6124 174.153 34.5004 174.153 31.04H172.153ZM170.248 39.4304C169.024 41.8069 167.305 43.6441 165.082 44.9641L166.103 46.6839C168.659 45.1666 170.636 43.0464 172.026 40.3456L170.248 39.4304ZM165.086 44.9617C162.91 46.2401 160.346 46.896 157.361 46.896V48.896C160.648 48.896 163.572 48.1706 166.099 46.6863L165.086 44.9617ZM157.361 46.896C154.495 46.896 151.964 46.2434 149.741 44.9583L148.74 46.6897C151.296 48.1673 154.178 48.896 157.361 48.896V46.896ZM149.751 44.9641C147.513 43.6353 145.668 41.7788 144.217 39.3717L142.504 40.4043C144.114 43.0746 146.19 45.1754 148.73 46.6839L149.751 44.9641ZM144.217 39.3717C142.763 36.9593 141.774 34.1367 141.269 30.8863L139.293 31.1937C139.832 34.6633 140.897 37.7394 142.504 40.4043L144.217 39.3717ZM162.617 31.04C162.617 29.2917 162.25 27.704 161.487 26.3051L159.731 27.2629C160.312 28.328 160.617 29.5776 160.617 31.04H162.617ZM161.498 26.326C160.777 24.9268 159.731 23.817 158.375 23.0121L157.354 24.7319C158.388 25.3456 159.171 26.1772 159.72 27.242L161.498 26.326ZM158.387 23.0194C157.057 22.2042 155.547 21.808 153.889 21.808V23.808C155.217 23.808 156.358 24.1212 157.342 24.7246L158.387 23.0194ZM153.889 21.808C152.197 21.808 150.584 22.2016 149.064 22.9824L149.977 24.7616C151.22 24.1237 152.519 23.808 153.889 23.808V21.808ZM149.064 22.9824C147.561 23.7542 146.245 24.809 145.118 26.137L146.643 27.431C147.607 26.295 148.718 25.4085 149.977 24.7616L149.064 22.9824ZM145.118 26.137C143.989 27.4677 143.127 28.9953 142.528 30.7106L144.417 31.3694C144.939 29.874 145.682 28.5643 146.643 27.431L145.118 26.137ZM142.531 31.3763C143.13 33.0543 143.992 34.5603 145.118 35.887L146.643 34.593C145.678 33.4557 144.935 32.1617 144.414 30.7037L142.531 31.3763ZM145.118 35.887C146.245 37.215 147.561 38.2698 149.064 39.0416L149.977 37.2624C148.718 36.6155 147.607 35.729 146.643 34.593L145.118 35.887ZM149.083 39.0512C150.6 39.7893 152.206 40.16 153.889 40.16V38.16C152.51 38.16 151.204 37.8587 149.958 37.2528L149.083 39.0512ZM153.889 40.16C155.537 40.16 157.04 39.7873 158.367 39.0168L157.363 37.2872C156.375 37.8607 155.227 38.16 153.889 38.16V40.16ZM158.375 39.0119C159.731 38.207 160.777 37.0972 161.498 35.698L159.72 34.782C159.171 35.8468 158.388 36.6784 157.354 37.2921L158.375 39.0119ZM161.487 35.7189C162.248 34.3234 162.617 32.7553 162.617 31.04H160.617C160.617 32.4607 160.314 33.6926 159.731 34.7611L161.487 35.7189ZM207.001 47L206.009 47.1252L206.119 48H207.001V47ZM205.545 35.464L204.598 35.1406L204.524 35.3596L204.553 35.5892L205.545 35.464ZM207.057 31.04L208.003 31.3634L208.114 31.04L208.003 30.7166L207.057 31.04ZM205.545 26.616L204.553 26.4914L204.524 26.7207L204.598 26.9394L205.545 26.616ZM207.001 15.024V14.024H206.118L206.009 14.8994L207.001 15.024ZM218.873 15.024L219.865 15.1493L220.007 14.024H218.873V15.024ZM216.857 30.984L215.865 30.8587L215.849 30.9838L215.865 31.1089L216.857 30.984ZM218.873 47V48H220.007L219.865 46.8751L218.873 47ZM209.689 31.04L210.677 31.1937L210.7 31.0478L210.679 30.9016L209.689 31.04ZM206.553 39.888L205.702 39.3625L205.696 39.3717L206.553 39.888ZM200.673 45.824L201.179 46.6863L201.183 46.6839L200.673 45.824ZM184.321 45.824L183.804 46.6803L183.812 46.6851L183.82 46.6897L184.321 45.824ZM178.777 39.888L177.89 40.3506L177.893 40.3559L178.777 39.888ZM178.777 22.136L177.893 21.6681L177.893 21.6681L178.777 22.136ZM184.321 16.2L183.81 15.3401L183.804 15.3437L184.321 16.2ZM200.673 16.2L200.156 17.0563L200.164 17.0611L200.172 17.0657L200.673 16.2ZM206.609 22.08L205.758 22.6055L205.761 22.6111L206.609 22.08ZM189.305 35.24L188.416 35.698L188.421 35.7085L188.427 35.7189L189.305 35.24ZM192.049 38.152L191.526 39.0046L191.536 39.0108L191.547 39.0168L192.049 38.152ZM200.449 38.152L200.886 39.0512L200.896 39.0465L200.906 39.0416L200.449 38.152ZM204.089 35.24L204.851 35.887L204.851 35.887L204.089 35.24ZM206.441 31.04L207.389 31.3562L207.494 31.0437L207.392 30.7304L206.441 31.04ZM204.089 26.784L204.851 26.137L204.851 26.137L204.089 26.784ZM192.049 23.872L191.526 23.0194L191.526 23.0194L192.049 23.872ZM189.305 26.784L188.427 26.3051L188.421 26.3155L188.416 26.326L189.305 26.784ZM207.993 46.8748L206.537 35.3388L204.553 35.5892L206.009 47.1252L207.993 46.8748ZM206.491 35.7874L208.003 31.3634L206.11 30.7166L204.598 35.1406L206.491 35.7874ZM208.003 30.7166L206.491 26.2926L204.598 26.9394L206.11 31.3634L208.003 30.7166ZM206.537 26.7406L207.993 15.1486L206.009 14.8994L204.553 26.4914L206.537 26.7406ZM207.001 16.024H218.873V14.024H207.001V16.024ZM217.881 14.8987L215.865 30.8587L217.849 31.1093L219.865 15.1493L217.881 14.8987ZM215.865 31.1089L217.881 47.1249L219.865 46.8751L217.849 30.8591L215.865 31.1089ZM218.873 46H207.001V48H218.873V46ZM208.701 30.8863C208.196 34.1328 207.191 36.9521 205.702 39.3625L207.404 40.4135C209.051 37.7465 210.137 34.6672 210.677 31.1937L208.701 30.8863ZM205.696 39.3717C204.245 41.7788 202.4 43.6353 200.162 44.9641L201.183 46.6839C203.724 45.1754 205.799 43.0746 207.409 40.4043L205.696 39.3717ZM200.166 44.9617C197.984 46.2433 195.475 46.896 192.609 46.896V48.896C195.791 48.896 198.657 48.1673 201.179 46.6863L200.166 44.9617ZM192.609 46.896C189.624 46.896 187.039 46.2402 184.821 44.9583L183.82 46.6897C186.382 48.1705 189.321 48.896 192.609 48.896V46.896ZM184.837 44.9677C182.648 43.6472 180.924 41.8061 179.661 39.4201L177.893 40.3559C179.318 43.0473 181.29 45.1635 183.804 46.6803L184.837 44.9677ZM179.663 39.4254C178.404 37.0116 177.761 34.2249 177.761 31.04H175.761C175.761 34.5004 176.462 37.6124 177.89 40.3506L179.663 39.4254ZM177.761 31.04C177.761 27.776 178.406 24.9742 179.661 22.6039L177.893 21.6681C176.46 24.3751 175.761 27.5093 175.761 31.04H177.761ZM179.661 22.6039C180.924 20.2179 182.648 18.3768 184.837 17.0563L183.804 15.3437C181.29 16.8605 179.318 18.9767 177.893 21.6681L179.661 22.6039ZM184.831 17.0599C187.047 15.7443 189.629 15.072 192.609 15.072V13.072C189.317 13.072 186.373 13.8184 183.81 15.3401L184.831 17.0599ZM192.609 15.072C195.47 15.072 197.976 15.741 200.156 17.0563L201.189 15.3437C198.666 13.8217 195.796 13.072 192.609 13.072V15.072ZM200.172 17.0657C202.407 18.3577 204.27 20.1957 205.758 22.6055L207.46 21.5545C205.812 18.8869 203.717 16.8049 201.173 15.3343L200.172 17.0657ZM205.761 22.6111C207.242 24.9729 208.229 27.8202 208.698 31.1784L210.679 30.9016C210.178 27.3158 209.112 24.1898 207.456 21.5489L205.761 22.6111ZM187.353 31.04C187.353 32.7462 187.699 34.3067 188.416 35.698L190.194 34.782C189.641 33.7093 189.353 32.4698 189.353 31.04H187.353ZM188.427 35.7189C189.18 37.0989 190.215 38.2007 191.526 39.0046L192.571 37.2994C191.568 36.6846 190.774 35.8451 190.183 34.7611L188.427 35.7189ZM191.547 39.0168C192.874 39.7873 194.376 40.16 196.025 40.16V38.16C194.687 38.16 193.539 37.8607 192.551 37.2872L191.547 39.0168ZM196.025 40.16C197.741 40.16 199.366 39.791 200.886 39.0512L200.011 37.2528C198.769 37.857 197.444 38.16 196.025 38.16V40.16ZM200.906 39.0416C202.408 38.2698 203.724 37.215 204.851 35.887L203.326 34.593C202.362 35.729 201.252 36.6155 199.992 37.2624L200.906 39.0416ZM204.851 35.887C205.981 34.5554 206.827 33.0425 207.389 31.3562L205.492 30.7238C205.009 32.1735 204.287 33.4606 203.326 34.593L204.851 35.887ZM207.392 30.7304C206.831 29.0071 205.984 27.4726 204.851 26.137L203.326 27.431C204.284 28.5594 205.006 29.8622 205.49 31.3496L207.392 30.7304ZM204.851 26.137C203.724 24.809 202.408 23.7542 200.906 22.9824L199.992 24.7616C201.252 25.4085 202.362 26.295 203.326 27.431L204.851 26.137ZM200.906 22.9824C199.381 22.1998 197.75 21.808 196.025 21.808V23.808C197.435 23.808 198.753 24.1255 199.992 24.7616L200.906 22.9824ZM196.025 21.808C194.366 21.808 192.856 22.2042 191.526 23.0194L192.571 24.7246C193.556 24.1212 194.697 23.808 196.025 23.808V21.808ZM191.526 23.0194C190.215 23.8233 189.18 24.9251 188.427 26.3051L190.183 27.2629C190.774 26.1789 191.568 25.3394 192.571 24.7246L191.526 23.0194ZM188.416 26.326C187.697 27.7206 187.353 29.3006 187.353 31.04H189.353C189.353 29.5687 189.643 28.3114 190.194 27.242L188.416 26.326ZM232.942 45.432L232.474 46.3159L232.487 46.3222L232.942 45.432ZM225.606 38.208L224.722 38.6759L224.729 38.6883L225.606 38.208ZM228.574 11.16L229.295 11.8528L229.299 11.8493L228.574 11.16ZM244.254 4.496L244.175 3.49915L244.167 3.49984L244.254 4.496ZM251.198 3.936L251.28 4.93268L251.29 4.93186L251.3 4.93083L251.198 3.936ZM255.678 3.432L255.806 4.42377L255.82 4.42207L255.833 4.42001L255.678 3.432ZM258.702 2.872L258.49 1.89478L258.481 1.89686L258.702 2.872ZM261.166 2.2H262.166V0.812575L260.85 1.25132L261.166 2.2ZM261.166 11.496L261.517 12.4323L262.166 12.189V11.496H261.166ZM253.326 12.896L253.247 11.8992L253.245 11.8993L253.326 12.896ZM246.438 13.288L246.477 14.2872L246.479 14.2872L246.438 13.288ZM235.91 16.928L236.617 17.6351L236.617 17.6351L235.91 16.928ZM232.606 27.736L231.678 28.1074L233.606 27.736H232.606ZM232.27 26.896L231.329 26.5573L231.201 26.9147L231.342 27.2674L232.27 26.896ZM235.518 22.08L236.187 22.8233L236.187 22.8233L235.518 22.08ZM240.95 19L241.267 19.9487L241.274 19.9462L241.281 19.9436L240.95 19ZM262.062 24.768L262.916 24.2471L262.916 24.2471L262.062 24.768ZM261.614 40.616L260.794 40.0434L260.793 40.0461L261.614 40.616ZM254.838 45.992L254.439 45.0753L254.838 45.992ZM248.902 38.6L248.467 37.6998L248.902 38.6ZM251.59 36.192L252.445 36.711L252.445 36.711L251.59 36.192ZM251.59 28.968L252.437 28.4352L252.437 28.4352L251.59 28.968ZM248.902 26.616L249.338 25.7158L249.338 25.7158L248.902 26.616ZM238.822 27.512L239.36 28.3549L239.365 28.352L238.822 27.512ZM234.902 32.216L233.982 31.8241L233.853 32.1288L233.93 32.4506L234.902 32.216ZM238.374 37.48L237.774 38.28L237.784 38.287L237.793 38.2937L238.374 37.48ZM244.534 46.896C240.136 46.896 236.436 46.0964 233.398 44.5418L232.487 46.3222C235.87 48.053 239.898 48.896 244.534 48.896V46.896ZM233.41 44.5482C230.409 42.9594 228.106 40.6913 226.483 37.7277L224.729 38.6883C226.541 41.9967 229.129 44.5446 232.474 46.3158L233.41 44.5482ZM226.49 37.7401C224.902 34.7412 224.086 31.1017 224.086 26.784H222.086C222.086 31.3517 222.95 35.3281 224.723 38.6759L226.49 37.7401ZM224.086 26.784C224.086 20.3662 225.858 15.4306 229.295 11.8528L227.853 10.4672C223.973 14.5054 222.086 19.9858 222.086 26.784H224.086ZM229.299 11.8493C232.746 8.22598 237.719 6.07441 244.342 5.49215L244.167 3.49984C237.201 4.11225 231.72 6.40335 227.85 10.4707L229.299 11.8493ZM244.334 5.49281C247.134 5.26879 249.45 5.08208 251.28 4.93268L251.117 2.93931C249.288 3.08859 246.974 3.2752 244.175 3.49918L244.334 5.49281ZM251.3 4.93083C253.134 4.74371 254.637 4.5747 255.806 4.42377L255.55 2.44022C254.405 2.58797 252.922 2.75495 251.097 2.94116L251.3 4.93083ZM255.833 4.42001C257.041 4.23119 258.073 4.04051 258.924 3.84713L258.481 1.89686C257.689 2.07682 256.705 2.25947 255.524 2.44398L255.833 4.42001ZM258.915 3.84917C259.806 3.65536 260.662 3.42206 261.483 3.14868L260.85 1.25132C260.102 1.50061 259.316 1.71531 258.49 1.89482L258.915 3.84917ZM260.166 2.2V11.496H262.166V2.2H260.166ZM260.815 10.5597C259.989 10.8695 258.986 11.1357 257.795 11.3521L258.153 13.3199C259.427 13.0883 260.552 12.7945 261.517 12.4323L260.815 10.5597ZM257.795 11.3521C256.608 11.568 255.095 11.7513 253.247 11.8992L253.406 13.8928C255.291 13.742 256.877 13.552 258.153 13.3199L257.795 11.3521ZM253.245 11.8993C251.434 12.0471 249.153 12.1771 246.398 12.2888L246.479 14.2872C249.249 14.1749 251.56 14.0435 253.408 13.8927L253.245 11.8993ZM246.399 12.2888C241.494 12.4804 237.693 13.7308 235.203 16.2209L236.617 17.6351C238.607 15.6452 241.825 14.469 246.477 14.2872L246.399 12.2888ZM235.203 16.2209C232.754 18.6698 231.606 22.1727 231.606 26.56H233.606C233.606 22.51 234.661 19.5915 236.617 17.6351L235.203 16.2209ZM231.606 26.56V27.736H233.606V26.56H231.606ZM233.535 27.3646L233.199 26.5246L231.342 27.2674L231.678 28.1074L233.535 27.3646ZM233.211 27.2347C233.827 25.5253 234.815 24.0584 236.187 22.8233L234.849 21.3367C233.235 22.7896 232.058 24.5333 231.329 26.5573L233.211 27.2347ZM236.187 22.8233C237.567 21.5814 239.254 20.6196 241.267 19.9487L240.634 18.0513C238.391 18.7991 236.456 19.8906 234.849 21.3367L236.187 22.8233ZM241.281 19.9436C243.292 19.2381 245.494 18.88 247.894 18.88V16.88C245.292 16.88 242.865 17.2686 240.619 18.0564L241.281 19.9436ZM247.894 18.88C251.02 18.88 253.7 19.4544 255.965 20.5692L256.848 18.7748C254.259 17.5003 251.265 16.88 247.894 16.88V18.88ZM255.965 20.5692C258.23 21.6843 259.968 23.2562 261.209 25.2889L262.916 24.2471C261.468 21.8745 259.436 20.0491 256.848 18.7748L255.965 20.5692ZM261.209 25.2889C262.446 27.3172 263.078 29.6715 263.078 32.384H265.078C265.078 29.3471 264.366 26.6241 262.916 24.2471L261.209 25.2889ZM263.078 32.384C263.078 35.3352 262.309 37.875 260.794 40.0434L262.434 41.1886C264.205 38.653 265.078 35.7048 265.078 32.384H263.078ZM260.793 40.0461C259.306 42.1894 257.203 43.8704 254.439 45.0753L255.238 46.9087C258.298 45.5749 260.712 43.6719 262.436 41.1859L260.793 40.0461ZM254.439 45.0753C251.68 46.278 248.387 46.896 244.534 46.896V48.896C248.596 48.896 252.173 48.2447 255.238 46.9087L254.439 45.0753ZM244.814 40.44C246.501 40.44 248.018 40.1387 249.338 39.5002L248.467 37.6998C247.472 38.1813 246.264 38.44 244.814 38.44V40.44ZM249.338 39.5002C250.659 38.8607 251.705 37.9298 252.445 36.711L250.736 35.673C250.206 36.5449 249.46 37.2193 248.467 37.6998L249.338 39.5002ZM252.445 36.711C253.184 35.4939 253.542 34.1163 253.542 32.608H251.542C251.542 33.7877 251.266 34.7994 250.736 35.673L252.445 36.711ZM253.542 32.608C253.542 31.0372 253.189 29.631 252.437 28.4352L250.744 29.5008C251.261 30.321 251.542 31.3415 251.542 32.608H253.542ZM252.437 28.4352C251.694 27.2561 250.65 26.3507 249.338 25.7158L248.467 27.5162C249.469 28.0013 250.217 28.6639 250.744 29.5008L252.437 28.4352ZM249.338 25.7158C248.018 25.0773 246.501 24.776 244.814 24.776V26.776C246.264 26.776 247.472 27.0347 248.467 27.5162L249.338 25.7158ZM244.814 24.776C242.426 24.776 240.239 25.4067 238.28 26.672L239.365 28.352C240.99 27.3027 242.797 26.776 244.814 26.776V24.776ZM238.284 26.6691C236.351 27.9034 234.916 29.633 233.982 31.8241L235.822 32.6079C236.606 30.767 237.785 29.3606 239.36 28.3549L238.284 26.6691ZM233.93 32.4506C234.508 34.8433 235.797 36.7974 237.774 38.28L238.974 36.68C237.367 35.4746 236.342 33.9193 235.874 31.9814L233.93 32.4506ZM237.793 38.2937C239.808 39.7332 242.163 40.44 244.814 40.44V38.44C242.538 38.44 240.599 37.8401 238.956 36.6663L237.793 38.2937ZM277.229 45.824L276.808 46.7314L276.817 46.7355L277.229 45.824ZM270.061 39.888L269.229 40.4427L269.232 40.4483L270.061 39.888ZM270.061 22.136L269.232 21.5757L269.232 21.5757L270.061 22.136ZM277.229 16.2L276.808 15.2927L277.229 16.2ZM298.677 16.2L298.256 17.1073L298.26 17.1092L298.677 16.2ZM305.901 22.136L306.729 21.5757L306.729 21.5757L305.901 22.136ZM305.901 39.888L306.729 40.4483L306.733 40.4427L305.901 39.888ZM298.677 45.824L299.088 46.7355L299.093 46.7332L298.677 45.824ZM292.741 38.432L292.293 37.5375L292.283 37.5427L292.741 38.432ZM295.821 35.52L294.948 35.0322L294.948 35.0322L295.821 35.52ZM295.821 26.504L294.948 26.9919L294.954 27.003L295.821 26.504ZM292.741 23.592L292.283 24.4813L292.293 24.4864L292.741 23.592ZM283.165 23.592L282.717 22.6976L282.717 22.6976L283.165 23.592ZM280.085 26.504L280.951 27.003L280.958 26.9918L280.085 26.504ZM280.085 35.52L280.958 35.0322L280.958 35.0322L280.085 35.52ZM287.981 46.896C283.985 46.896 280.547 46.224 277.64 44.9125L276.817 46.7355C280.033 48.1867 283.763 48.896 287.981 48.896V46.896ZM277.649 44.9167C274.736 43.5665 272.494 41.7008 270.889 39.3277L269.232 40.4483C271.062 43.1525 273.599 45.2441 276.808 46.7313L277.649 44.9167ZM270.893 39.3333C269.293 36.9337 268.485 34.1804 268.485 31.04H266.485C266.485 34.5449 267.394 37.6903 269.229 40.4427L270.893 39.3333ZM268.485 31.04C268.485 27.8198 269.296 25.0518 270.889 22.6963L269.232 21.5757C267.391 24.2975 266.485 27.4655 266.485 31.04H268.485ZM270.889 22.6963C272.494 20.3232 274.736 18.4575 277.649 17.1073L276.808 15.2927C273.599 16.7799 271.062 18.8715 269.232 21.5757L270.889 22.6963ZM277.649 17.1073C280.553 15.7615 283.988 15.072 287.981 15.072V13.072C283.76 13.072 280.027 13.8012 276.808 15.2927L277.649 17.1073ZM287.981 15.072C291.934 15.072 295.351 15.761 298.256 17.1073L299.097 15.2927C295.88 13.8017 292.166 13.072 287.981 13.072V15.072ZM298.26 17.1092C301.212 18.4604 303.469 20.3261 305.072 22.6963L306.729 21.5757C304.898 18.8686 302.339 16.777 299.093 15.2908L298.26 17.1092ZM305.072 22.6963C306.666 25.0518 307.477 27.8198 307.477 31.04H309.477C309.477 27.4655 308.57 24.2975 306.729 21.5757L305.072 22.6963ZM307.477 31.04C307.477 34.1804 306.668 36.9337 305.069 39.3333L306.733 40.4427C308.568 37.6903 309.477 34.5449 309.477 31.04H307.477ZM305.072 39.3277C303.469 41.6979 301.212 43.5636 298.26 44.9148L299.093 46.7332C302.339 45.247 304.898 43.1554 306.729 40.4483L305.072 39.3277ZM298.265 44.9125C295.358 46.2245 291.938 46.896 287.981 46.896V48.896C292.162 48.896 295.873 48.1862 299.088 46.7355L298.265 44.9125ZM287.981 40.44C289.965 40.44 291.717 40.083 293.198 39.3213L292.283 37.5427C291.151 38.1249 289.73 38.44 287.981 38.44V40.44ZM293.188 39.3264C294.705 38.5679 295.883 37.4584 296.694 36.0078L294.948 35.0322C294.34 36.1202 293.464 36.9521 292.293 37.5376L293.188 39.3264ZM296.694 36.0078C297.5 34.5645 297.885 32.8971 297.885 31.04H295.885C295.885 32.6176 295.56 33.9369 294.948 35.0322L296.694 36.0078ZM297.885 31.04C297.885 29.1178 297.504 27.4235 296.687 26.005L294.954 27.003C295.556 28.0485 295.885 29.3782 295.885 31.04H297.885ZM296.694 26.0162C295.883 24.5656 294.705 23.4561 293.188 22.6976L292.293 24.4864C293.464 25.0719 294.34 25.9038 294.948 26.9918L296.694 26.0162ZM293.198 22.7027C291.717 21.9409 289.965 21.584 287.981 21.584V23.584C289.73 23.584 291.151 23.899 292.283 24.4813L293.198 22.7027ZM287.981 21.584C285.996 21.584 284.23 21.9414 282.717 22.6976L283.612 24.4864C284.787 23.8986 286.232 23.584 287.981 23.584V21.584ZM282.717 22.6976C281.2 23.4561 280.022 24.5656 279.212 26.0162L280.958 26.9918C281.566 25.9038 282.441 25.0719 283.612 24.4864L282.717 22.6976ZM279.218 26.005C278.403 27.4206 278.021 29.0949 278.021 30.984H280.021C280.021 29.3638 280.348 28.0514 280.951 27.003L279.218 26.005ZM278.021 30.984C278.021 32.8743 278.403 34.5614 279.212 36.0078L280.958 35.0322C280.347 33.9399 280.021 32.6031 280.021 30.984H278.021ZM279.212 36.0078C280.022 37.4584 281.2 38.5679 282.717 39.3264L283.612 37.5376C282.441 36.9521 281.566 36.1202 280.958 35.0322L279.212 36.0078ZM282.717 39.3264C284.23 40.0826 285.996 40.44 287.981 40.44V38.44C286.232 38.44 284.787 38.1254 283.612 37.5376L282.717 39.3264ZM322.053 18.944V17.944H321.053V18.944H322.053ZM333.533 18.944H334.533V17.944H333.533V18.944ZM333.533 47V48H334.533V47H333.533ZM322.053 47H321.053V48H322.053V47ZM309.901 15.024V14.024H308.901V15.024H309.901ZM345.685 15.024H346.685V14.024H345.685V15.024ZM345.685 23.648V24.648H346.685V23.648H345.685ZM309.901 23.648H308.901V24.648H309.901V23.648ZM322.053 19.944H333.533V17.944H322.053V19.944ZM332.533 18.944V47H334.533V18.944H332.533ZM333.533 46H322.053V48H333.533V46ZM323.053 47V18.944H321.053V47H323.053ZM309.901 16.024H345.685V14.024H309.901V16.024ZM344.685 15.024V23.648H346.685V15.024H344.685ZM345.685 22.648H309.901V24.648H345.685V22.648ZM310.901 23.648V15.024H308.901V23.648H310.901ZM349.605 47H348.605V48H349.605V47ZM349.605 15.024V14.024H348.605V15.024H349.605ZM361.085 15.024H362.085V14.024H361.085V15.024ZM361.085 38.096L360.754 39.0399L362.085 39.5055V38.096H361.085ZM357.725 36.92L356.949 36.289L356.051 37.3935L357.394 37.8639L357.725 36.92ZM375.533 15.024V14.024H375.057L374.757 14.393L375.533 15.024ZM387.629 15.024L388.383 15.6805L389.825 14.024H387.629V15.024ZM359.797 47V48H360.252L360.551 47.6565L359.797 47ZM375.645 47L374.781 47.5044L375.071 48H375.645V47ZM366.517 31.376L365.943 30.5573L365.189 31.0857L365.653 31.8804L366.517 31.376ZM375.141 25.328L375.992 24.8026L375.435 23.9006L374.567 24.5093L375.141 25.328ZM388.525 47V48H390.318L389.376 46.4746L388.525 47ZM350.605 47V15.024H348.605V47H350.605ZM349.605 16.024H361.085V14.024H349.605V16.024ZM360.085 15.024V38.096H362.085V15.024H360.085ZM361.415 37.1521L358.055 35.9761L357.394 37.8639L360.754 39.0399L361.415 37.1521ZM358.501 37.551L376.309 15.655L374.757 14.393L356.949 36.289L358.501 37.551ZM375.533 16.024H387.629V14.024H375.533V16.024ZM386.874 14.3675L359.042 46.3435L360.551 47.6565L388.383 15.6805L386.874 14.3675ZM359.797 46H349.605V48H359.797V46ZM376.508 46.4956L367.38 30.8716L365.653 31.8804L374.781 47.5044L376.508 46.4956ZM367.091 32.1947L375.715 26.1467L374.567 24.5093L365.943 30.5573L367.091 32.1947ZM374.29 25.8534L387.674 47.5254L389.376 46.4746L375.992 24.8026L374.29 25.8534ZM388.525 46H375.645V48H388.525V46ZM418.368 47L417.376 47.1252L417.486 48H418.368V47ZM416.912 35.464L415.966 35.1406L415.891 35.3596L415.92 35.5892L416.912 35.464ZM418.424 31.04L419.37 31.3634L419.481 31.04L419.37 30.7166L418.424 31.04ZM416.912 26.616L415.92 26.4914L415.891 26.7207L415.966 26.9394L416.912 26.616ZM418.368 15.024V14.024H417.486L417.376 14.8994L418.368 15.024ZM430.24 15.024L431.232 15.1493L431.374 14.024H430.24V15.024ZM428.224 30.984L427.232 30.8587L427.216 30.9838L427.232 31.1089L428.224 30.984ZM430.24 47V48H431.374L431.232 46.8751L430.24 47ZM421.056 31.04L422.044 31.1937L422.067 31.0478L422.046 30.9016L421.056 31.04ZM417.92 39.888L417.069 39.3625L417.064 39.3717L417.92 39.888ZM412.04 45.824L412.546 46.6863L412.55 46.6839L412.04 45.824ZM395.688 45.824L395.171 46.6803L395.179 46.6851L395.187 46.6897L395.688 45.824ZM390.144 39.888L389.257 40.3506L389.26 40.3559L390.144 39.888ZM390.144 22.136L389.26 21.6681L389.26 21.6681L390.144 22.136ZM395.688 16.2L395.177 15.3401L395.171 15.3437L395.688 16.2ZM412.04 16.2L411.523 17.0563L411.531 17.0611L411.539 17.0657L412.04 16.2ZM417.976 22.08L417.125 22.6055L417.129 22.6111L417.976 22.08ZM400.672 35.24L399.783 35.698L399.788 35.7085L399.794 35.7189L400.672 35.24ZM403.416 38.152L402.893 39.0046L402.904 39.0108L402.914 39.0168L403.416 38.152ZM411.816 38.152L412.253 39.0512L412.263 39.0465L412.273 39.0416L411.816 38.152ZM415.456 35.24L416.218 35.887L416.218 35.887L415.456 35.24ZM417.808 31.04L418.757 31.3562L418.861 31.0437L418.759 30.7304L417.808 31.04ZM415.456 26.784L416.218 26.137L416.218 26.137L415.456 26.784ZM403.416 23.872L402.893 23.0194L402.893 23.0194L403.416 23.872ZM400.672 26.784L399.794 26.3051L399.788 26.3155L399.783 26.326L400.672 26.784ZM419.36 46.8748L417.904 35.3388L415.92 35.5892L417.376 47.1252L419.36 46.8748ZM417.858 35.7874L419.37 31.3634L417.478 30.7166L415.966 35.1406L417.858 35.7874ZM419.37 30.7166L417.858 26.2926L415.966 26.9394L417.478 31.3634L419.37 30.7166ZM417.904 26.7406L419.36 15.1486L417.376 14.8994L415.92 26.4914L417.904 26.7406ZM418.368 16.024H430.24V14.024H418.368V16.024ZM429.248 14.8987L427.232 30.8587L429.216 31.1093L431.232 15.1493L429.248 14.8987ZM427.232 31.1089L429.248 47.1249L431.232 46.8751L429.216 30.8591L427.232 31.1089ZM430.24 46H418.368V48H430.24V46ZM420.068 30.8863C419.563 34.1328 418.558 36.9521 417.069 39.3625L418.771 40.4135C420.418 37.7465 421.504 34.6672 422.044 31.1937L420.068 30.8863ZM417.064 39.3717C415.612 41.7788 413.767 43.6353 411.529 44.9641L412.55 46.6839C415.091 45.1754 417.166 43.0746 418.776 40.4043L417.064 39.3717ZM411.534 44.9617C409.351 46.2433 406.842 46.896 403.976 46.896V48.896C407.158 48.896 410.025 48.1673 412.546 46.6863L411.534 44.9617ZM403.976 46.896C400.991 46.896 398.406 46.2402 396.188 44.9583L395.187 46.6897C397.749 48.1705 400.689 48.896 403.976 48.896V46.896ZM396.204 44.9677C394.015 43.6472 392.291 41.8061 391.028 39.4201L389.26 40.3559C390.685 43.0473 392.657 45.1635 395.171 46.6803L396.204 44.9677ZM391.031 39.4254C389.771 37.0116 389.128 34.2249 389.128 31.04H387.128C387.128 34.5004 387.829 37.6124 389.257 40.3506L391.031 39.4254ZM389.128 31.04C389.128 27.776 389.773 24.9742 391.028 22.6039L389.26 21.6681C387.827 24.3751 387.128 27.5093 387.128 31.04H389.128ZM391.028 22.6039C392.291 20.2179 394.015 18.3768 396.204 17.0563L395.171 15.3437C392.657 16.8605 390.685 18.9767 389.26 21.6681L391.028 22.6039ZM396.198 17.0599C398.414 15.7443 400.996 15.072 403.976 15.072V13.072C400.684 13.072 397.74 13.8184 395.177 15.3401L396.198 17.0599ZM403.976 15.072C406.837 15.072 409.343 15.741 411.523 17.0563L412.556 15.3437C410.033 13.8217 407.163 13.072 403.976 13.072V15.072ZM411.539 17.0657C413.774 18.3577 415.637 20.1957 417.125 22.6055L418.827 21.5545C417.179 18.8869 415.084 16.8049 412.54 15.3343L411.539 17.0657ZM417.129 22.6111C418.609 24.9729 419.596 27.8202 420.066 31.1784L422.046 30.9016C421.545 27.3158 420.479 24.1898 418.823 21.5489L417.129 22.6111ZM398.72 31.04C398.72 32.7462 399.066 34.3067 399.783 35.698L401.561 34.782C401.008 33.7093 400.72 32.4698 400.72 31.04H398.72ZM399.794 35.7189C400.547 37.0989 401.582 38.2007 402.893 39.0046L403.938 37.2994C402.935 36.6846 402.141 35.8451 401.55 34.7611L399.794 35.7189ZM402.914 39.0168C404.241 39.7873 405.743 40.16 407.392 40.16V38.16C406.054 38.16 404.906 37.8607 403.918 37.2872L402.914 39.0168ZM407.392 40.16C409.108 40.16 410.733 39.791 412.253 39.0512L411.378 37.2528C410.136 37.857 408.812 38.16 407.392 38.16V40.16ZM412.273 39.0416C413.776 38.2698 415.092 37.215 416.218 35.887L414.693 34.593C413.73 35.729 412.619 36.6155 411.359 37.2624L412.273 39.0416ZM416.218 35.887C417.348 34.5554 418.195 33.0425 418.757 31.3562L416.859 30.7238C416.376 32.1735 415.654 33.4606 414.693 34.593L416.218 35.887ZM418.759 30.7304C418.198 29.0071 417.352 27.4726 416.218 26.137L414.693 27.431C415.651 28.5594 416.373 29.8622 416.857 31.3496L418.759 30.7304ZM416.218 26.137C415.092 24.809 413.776 23.7542 412.273 22.9824L411.359 24.7616C412.619 25.4085 413.73 26.295 414.693 27.431L416.218 26.137ZM412.273 22.9824C410.749 22.1998 409.117 21.808 407.392 21.808V23.808C408.803 23.808 410.121 24.1255 411.359 24.7616L412.273 22.9824ZM407.392 21.808C405.733 21.808 404.223 22.2042 402.893 23.0194L403.938 24.7246C404.923 24.1212 406.064 23.808 407.392 23.808V21.808ZM402.893 23.0194C401.582 23.8233 400.547 24.9251 399.794 26.3051L401.55 27.2629C402.141 26.1789 402.935 25.3394 403.938 24.7246L402.893 23.0194ZM399.783 26.326C399.065 27.7206 398.72 29.3006 398.72 31.04H400.72C400.72 29.5687 401.01 28.3114 401.561 27.242L399.783 26.326Z" fill="#8073FF" mask="url(#path-1-outside-1_974_888)"/>
</svg>
