<svg width="177" height="177" viewBox="0 0 177 177" fill="none" xmlns="http://www.w3.org/2000/svg">
<path fill-rule="evenodd" clip-rule="evenodd" d="M154.875 147.5H103.25C99.4678 147.5 96.3506 144.653 95.9246 140.985L95.875 140.125V81.125C95.875 80.5965 95.9318 80.0704 96.0439 79.5555L96.2535 78.7928L111.003 34.5428C111.916 31.8051 114.328 29.8774 117.144 29.5496L118 29.5H147.5C152.238 29.5 155.665 33.8685 154.725 38.3638L154.497 39.2072L142.982 73.75H154.875C158.657 73.75 161.774 76.5971 162.2 80.2649L162.25 81.125V140.125C162.25 143.907 159.403 147.024 155.735 147.45L154.875 147.5ZM73.75 147.5H22.125C18.3428 147.5 15.2256 144.653 14.7996 140.985L14.75 140.125V81.125C14.75 80.5965 14.8068 80.0704 14.9189 79.5555L15.1285 78.7928L29.8785 34.5428C30.791 31.8051 33.2032 29.8774 36.0192 29.5496L36.875 29.5H66.375C71.1128 29.5 74.5401 33.8685 73.5998 38.3638L73.3715 39.2072L61.8573 73.75H73.75C77.5322 73.75 80.6494 76.5971 81.0754 80.2649L81.125 81.125V140.125C81.125 143.907 78.2779 147.024 74.6101 147.45L73.75 147.5Z" fill="#EFEFEF"/>
</svg>
