<svg width="177" height="177" viewBox="0 0 177 177" fill="none" xmlns="http://www.w3.org/2000/svg">
<path fill-rule="evenodd" clip-rule="evenodd" d="M22.125 29.5H73.75C77.5322 29.5 80.6494 32.347 81.0754 36.0149L81.125 36.875V95.875C81.125 96.4035 81.0682 96.9296 80.9561 97.4445L80.7465 98.2072L65.9965 142.457C65.084 145.195 62.6718 147.123 59.8558 147.45L59 147.5H29.5C24.7622 147.5 21.3349 143.132 22.2752 138.636L22.5035 137.793L34.0177 103.25H22.125C18.3428 103.25 15.2256 100.403 14.7996 96.7351L14.75 95.875V36.875C14.75 33.0928 17.597 29.9756 21.2649 29.5496L22.125 29.5ZM103.25 29.5H154.875C158.657 29.5 161.774 32.347 162.2 36.0149L162.25 36.875V95.875C162.25 96.4035 162.193 96.9296 162.081 97.4445L161.872 98.2072L147.122 142.457C146.209 145.195 143.797 147.123 140.981 147.45L140.125 147.5H110.625C105.887 147.5 102.46 143.132 103.4 138.636L103.628 137.793L115.143 103.25H103.25C99.4678 103.25 96.3506 100.403 95.9246 96.7351L95.875 95.875V36.875C95.875 33.0928 98.7221 29.9756 102.39 29.5496L103.25 29.5Z" fill="#EFEFEF"/>
</svg>
