<svg width="229" height="144" viewBox="0 0 229 144" fill="none" xmlns="http://www.w3.org/2000/svg">
<path d="M4.71055 158.624C2.49299 154.803 3.8011 149.921 7.63228 147.72L257.855 3.98492C261.686 1.78419 266.59 3.09805 268.807 6.91952L284.231 33.4991C286.449 37.3206 285.141 42.2025 281.309 44.4033L31.0866 188.138C27.2554 190.339 22.3519 189.025 20.1344 185.204L4.71055 158.624Z" fill="#6924FF"/>
<path d="M204.92 122.5C204.92 165.302 170.222 200 127.419 200C84.6162 200 49.918 165.302 49.918 122.5C49.918 79.698 84.6162 45 127.419 45C170.222 45 204.92 79.698 204.92 122.5Z" stroke="#333333" stroke-width="20"/>
</svg>
