<svg width="227" height="144" viewBox="0 0 227 144" fill="none" xmlns="http://www.w3.org/2000/svg">
<path d="M3.998 158.634C1.78997 154.807 3.10134 149.913 6.92705 147.703L255.658 4.00214C259.483 1.7919 264.375 3.10252 266.583 6.9295L281.907 33.4891C284.115 37.3161 282.803 42.2103 278.978 44.4205L30.247 188.121C26.4213 190.331 21.53 189.021 19.322 185.194L3.998 158.634Z" fill="#8073FF"/>
<path d="M203 122.5C203 165.356 168.472 200 126 200C83.528 200 49 165.356 49 122.5C49 79.6438 83.528 45 126 45C168.472 45 203 79.6438 203 122.5Z" stroke="#F0F0F0" stroke-width="20"/>
</svg>
