<svg width="16" height="16" viewBox="0 0 16 16" fill="none" xmlns="http://www.w3.org/2000/svg">
<path fill-rule="evenodd" clip-rule="evenodd" d="M8.80777 13.0752L8.86323 13.138C9.10355 13.3783 9.48171 13.3968 9.74324 13.1934L9.80604 13.138L14.4727 8.47132L14.5003 8.44202L14.5371 8.39679L14.5849 8.32263L14.6205 8.24748L14.6441 8.17725L14.6634 8.07865L14.668 7.99992L14.6661 7.94976L14.6545 7.8661L14.6348 7.79182L14.6055 7.71777L14.5706 7.65278L14.5215 7.58295L14.4727 7.52851L9.80604 2.86185C9.54569 2.6015 9.12358 2.6015 8.86323 2.86185C8.62291 3.10217 8.60442 3.48032 8.80777 3.74185L8.86323 3.80466L12.3906 7.33325L2.0013 7.33325C1.63311 7.33325 1.33464 7.63173 1.33464 7.99992C1.33464 8.36811 1.63311 8.66658 2.0013 8.66658L12.392 8.66659L8.86323 12.1952C8.62291 12.4355 8.60442 12.8137 8.80777 13.0752L8.86323 13.138L8.80777 13.0752Z" fill="white"/>
</svg>
