<svg width="20" height="20" viewBox="0 0 20 20" fill="none" xmlns="http://www.w3.org/2000/svg">
<path fill-rule="evenodd" clip-rule="evenodd" d="M11.0087 16.3442L11.0781 16.4227C11.3785 16.7231 11.8512 16.7462 12.1781 16.492L12.2566 16.4227L18.0899 10.5893L18.1244 10.5527L18.1704 10.4962L18.2301 10.4035L18.2746 10.3095L18.3041 10.2217L18.3282 10.0985L18.334 10.0001L18.3317 9.93738L18.3171 9.83281L18.2925 9.73996L18.2559 9.6474L18.2123 9.56616L18.1509 9.47887L18.0899 9.41083L12.2566 3.57749C11.9311 3.25205 11.4035 3.25205 11.0781 3.57749C10.7777 3.87789 10.7546 4.35059 11.0087 4.6775L11.0781 4.756L15.4873 9.16675L2.50065 9.16675C2.04042 9.16675 1.66732 9.53984 1.66732 10.0001C1.66732 10.4603 2.04042 10.8334 2.50065 10.8334L15.489 10.8334L11.0781 15.2442C10.7777 15.5446 10.7546 16.0173 11.0087 16.3442L11.0781 16.4227L11.0087 16.3442Z" fill="#8073FF"/>
</svg>
