<svg width="20" height="20" viewBox="0 0 20 20" fill="none" xmlns="http://www.w3.org/2000/svg">
<path fill-rule="evenodd" clip-rule="evenodd" d="M11.0087 16.344L11.0781 16.4225C11.3785 16.723 11.8512 16.7461 12.1781 16.4919L12.2566 16.4225L18.0899 10.5892L18.1244 10.5526L18.1704 10.496L18.2301 10.4033L18.2746 10.3094L18.3041 10.2216L18.3282 10.0984L18.334 9.99996L18.3317 9.93726L18.3171 9.83269L18.2925 9.73984L18.2559 9.64727L18.2123 9.56604L18.1509 9.47875L18.0899 9.4107L12.2566 3.57737C11.9311 3.25193 11.4035 3.25193 11.0781 3.57737C10.7777 3.87777 10.7546 4.35047 11.0087 4.67738L11.0781 4.75588L15.4873 9.16663L2.50065 9.16662C2.04042 9.16662 1.66732 9.53972 1.66732 9.99996C1.66732 10.4602 2.04042 10.8333 2.50065 10.8333L15.489 10.8333L11.0781 15.244C10.7777 15.5444 10.7546 16.0171 11.0087 16.344L11.0781 16.4225L11.0087 16.344Z" fill="white"/>
</svg>
