<svg width="20" height="20" viewBox="0 0 20 20" fill="none" xmlns="http://www.w3.org/2000/svg">
<path fill-rule="evenodd" clip-rule="evenodd" d="M11.0107 16.344L11.08 16.4225C11.3804 16.723 11.8531 16.7461 12.18 16.4919L12.2585 16.4225L18.0919 10.5892L18.1264 10.5526L18.1723 10.496L18.232 10.4033L18.2766 10.3094L18.3061 10.2216L18.3302 10.0984L18.3359 9.99996L18.3336 9.93726L18.3191 9.83269L18.2945 9.73984L18.2579 9.64727L18.2143 9.56604L18.1529 9.47875L18.0919 9.4107L12.2585 3.57737C11.9331 3.25193 11.4055 3.25193 11.08 3.57737C10.7796 3.87777 10.7565 4.35047 11.0107 4.67738L11.08 4.75588L15.4893 9.16663L2.50261 9.16662C2.04237 9.16662 1.66927 9.53972 1.66927 9.99996C1.66927 10.4602 2.04237 10.8333 2.5026 10.8333L15.4909 10.8333L11.08 15.244C10.7796 15.5444 10.7565 16.0171 11.0107 16.344L11.08 16.4225L11.0107 16.344Z" fill="#6924FF"/>
</svg>
