<svg width="24" height="24" viewBox="0 0 24 24" fill="none" xmlns="http://www.w3.org/2000/svg">
<rect width="24" height="24" rx="12" fill="#8073ff"/>
<path d="M11.3225 11.1318C11.5523 10.7872 11.6672 10.3851 11.6672 9.9255C11.6672 8.71916 10.6332 7.80005 9.48426 7.80005H6.15246C5.98012 7.80005 5.86523 7.91494 5.86523 8.08727V15.3828C5.86523 15.5551 5.98012 15.67 6.15246 15.67H9.82892C11.2076 15.67 12.3565 14.5785 12.3565 13.1999C12.3565 12.3382 11.9544 11.5914 11.3225 11.1318ZM7.30135 9.29361H9.48426C9.88637 9.29361 10.1736 9.63828 10.1736 9.98295C10.1736 10.3851 9.82892 10.6723 9.48426 10.6723H7.30135V9.29361ZM9.88637 14.2339H7.30135V12.1659H9.88637C10.4608 12.1659 10.9204 12.6254 10.9204 13.1999C10.9204 13.7743 10.4608 14.2339 9.88637 14.2339Z" fill="white"/>
<path d="M18.7329 12.6829C18.7329 10.9595 17.4116 9.58084 15.7457 9.58084C14.0798 9.58084 12.7586 10.9595 12.7586 12.6829C12.7586 14.4062 14.0798 15.7849 15.7457 15.7849C16.7223 15.7849 17.6414 15.2679 18.2159 14.4062C18.2733 14.2913 18.3307 14.1764 18.3882 14.0615C18.4456 14.0041 18.3882 13.8892 18.2733 13.8892H16.8372C16.7797 13.8892 16.7797 13.8892 16.7223 13.9466C16.4351 14.2339 16.0904 14.3488 15.7457 14.3488C14.999 14.3488 14.4245 13.8317 14.2522 13.085H18.4456C18.618 13.085 18.7329 12.9701 18.7329 12.7977V12.6829ZM15.7457 11.0744C16.2627 11.0744 16.7223 11.3616 17.0095 11.8212H14.4819C14.7117 11.3616 15.2287 11.0744 15.7457 11.0744Z" fill="white"/>
<path d="M16.9521 9.23618H14.3096C14.1947 9.23618 14.0798 9.12129 14.0798 9.0064V8.3745C14.0798 8.25962 14.1947 8.14472 14.3096 8.14472H16.9521C17.067 8.14472 17.1819 8.25962 17.1819 8.3745V9.06384C17.1819 9.12128 17.1244 9.23618 16.9521 9.23618Z" fill="white"/>
</svg>
