<svg width="24" height="24" viewBox="0 0 24 24" fill="none" xmlns="http://www.w3.org/2000/svg">
<rect width="24" height="24" rx="12" fill="#1C66FB"/>
<path d="M11.3225 11.1316C11.5523 10.7869 11.6672 10.3848 11.6672 9.92526C11.6672 8.71892 10.6332 7.7998 9.48426 7.7998H6.15246C5.98012 7.7998 5.86523 7.91469 5.86523 8.08703V15.3825C5.86523 15.5548 5.98012 15.6697 6.15246 15.6697H9.82892C11.2076 15.6697 12.3565 14.5783 12.3565 13.1996C12.3565 12.3379 11.9544 11.5912 11.3225 11.1316ZM7.30135 9.29337H9.48426C9.88637 9.29337 10.1736 9.63804 10.1736 9.98271C10.1736 10.3848 9.82892 10.672 9.48426 10.672H7.30135V9.29337ZM9.88637 14.2336H7.30135V12.1656H9.88637C10.4608 12.1656 10.9204 12.6252 10.9204 13.1996C10.9204 13.7741 10.4608 14.2336 9.88637 14.2336Z" fill="white"/>
<path d="M18.7329 12.6826C18.7329 10.9593 17.4116 9.5806 15.7457 9.5806C14.0798 9.5806 12.7586 10.9593 12.7586 12.6826C12.7586 14.406 14.0798 15.7846 15.7457 15.7846C16.7223 15.7846 17.6414 15.2676 18.2159 14.406C18.2733 14.2911 18.3307 14.1762 18.3882 14.0613C18.4456 14.0038 18.3882 13.889 18.2733 13.889H16.8372C16.7797 13.889 16.7797 13.889 16.7223 13.9464C16.4351 14.2336 16.0904 14.3485 15.7457 14.3485C14.999 14.3485 14.4245 13.8315 14.2522 13.0847H18.4456C18.618 13.0847 18.7329 12.9698 18.7329 12.7975V12.6826ZM15.7457 11.0742C16.2627 11.0742 16.7223 11.3614 17.0095 11.8209H14.4819C14.7117 11.3614 15.2287 11.0742 15.7457 11.0742Z" fill="white"/>
<path d="M16.9521 9.23593H14.3096C14.1947 9.23593 14.0798 9.12104 14.0798 9.00615V8.37426C14.0798 8.25937 14.1947 8.14448 14.3096 8.14448H16.9521C17.067 8.14448 17.1819 8.25937 17.1819 8.37426V9.0636C17.1819 9.12104 17.1244 9.23593 16.9521 9.23593Z" fill="white"/>
</svg>
