<svg width="20" height="20" viewBox="0 0 20 20" fill="none" xmlns="http://www.w3.org/2000/svg">
<path fill-rule="evenodd" clip-rule="evenodd" d="M14.166 1.66666C14.6263 1.66666 14.9993 2.03975 14.9993 2.49999V3.33332H15.8327C17.2134 3.33332 18.3327 4.45261 18.3327 5.83332V15.8333C18.3327 17.214 17.2134 18.3333 15.8327 18.3333H4.16602C2.7853 18.3333 1.66602 17.214 1.66602 15.8333V5.83332C1.66602 4.45261 2.7853 3.33332 4.16602 3.33332H4.99935V2.49999C4.99935 2.03975 5.37244 1.66666 5.83268 1.66666C6.29292 1.66666 6.66602 2.03975 6.66602 2.49999V3.33332H13.3327V2.49999C13.3327 2.03975 13.7058 1.66666 14.166 1.66666ZM3.33268 9.99999V15.8333C3.33268 16.2936 3.70578 16.6667 4.16602 16.6667H15.8327C16.2929 16.6667 16.666 16.2936 16.666 15.8333V9.99999H3.33268ZM3.33268 8.33332H16.666V5.83332C16.666 5.37309 16.2929 4.99999 15.8327 4.99999H14.9993V5.83332C14.9993 6.29356 14.6263 6.66666 14.166 6.66666C13.7058 6.66666 13.3327 6.29356 13.3327 5.83332V4.99999H6.66602V5.83332C6.66602 6.29356 6.29292 6.66666 5.83268 6.66666C5.37244 6.66666 4.99935 6.29356 4.99935 5.83332V4.99999H4.16602C3.70578 4.99999 3.33268 5.37309 3.33268 5.83332V8.33332Z" fill="#8073FF"/>
</svg>
