<svg width="20" height="20" viewBox="0 0 20 20" fill="none" xmlns="http://www.w3.org/2000/svg">
<path fill-rule="evenodd" clip-rule="evenodd" d="M17.4993 13.3332C17.9267 13.3332 18.2789 13.6549 18.3271 14.0693L18.3327 14.1665V15.8332C18.3327 17.1646 17.2919 18.2529 15.9796 18.3289L15.8327 18.3332H4.16602C2.83461 18.3332 1.7463 17.2924 1.67026 15.9801L1.66602 15.8332V14.1665C1.66602 13.7063 2.03911 13.3332 2.49935 13.3332C2.92671 13.3332 3.27894 13.6549 3.32708 14.0693L3.33268 14.1665V15.8332C3.33268 16.2605 3.65438 16.6128 4.06883 16.6609L4.16602 16.6665H15.8327C16.26 16.6665 16.6123 16.3448 16.6604 15.9304L16.666 15.8332V14.1665C16.666 13.7063 17.0391 13.3332 17.4993 13.3332ZM9.99935 1.6665C10.4596 1.6665 10.8327 2.0396 10.8327 2.49984V10.4873L11.9101 9.41058C12.2105 9.11018 12.6832 9.08707 13.0101 9.34126L13.0886 9.41058C13.389 9.71099 13.4121 10.1837 13.1579 10.5106L13.0886 10.5891L10.5886 13.0891L10.552 13.1236L10.4954 13.1696L10.4027 13.2293L10.3088 13.2738L10.221 13.3033L10.0972 13.3275L9.99935 13.3332L9.93665 13.3308L9.83208 13.3163L9.73923 13.2917L9.64666 13.2551L9.56542 13.2115L9.48539 13.1558C9.45896 13.1351 9.43382 13.1128 9.41009 13.0891L6.91009 10.5891C6.58466 10.2637 6.58466 9.73602 6.91009 9.41058C7.2105 9.11018 7.68319 9.08707 8.0101 9.34126L8.0886 9.41058L9.16602 10.4873V2.49984C9.16602 2.0396 9.53911 1.6665 9.99935 1.6665Z" fill="#8073FF"/>
</svg>
