<svg width="24" height="24" viewBox="0 0 24 24" fill="none" xmlns="http://www.w3.org/2000/svg">
<path d="M0 12C0 5.37258 5.37258 0 12 0C18.6274 0 24 5.37258 24 12C24 18.6274 18.6274 24 12 24C5.37258 24 0 18.6274 0 12Z" fill="#2C3036"/>
<path d="M13.1571 13.1571C12.2143 14.13 12.1457 15.3429 12.0643 18C14.5414 18 16.2514 17.9914 17.1343 17.1343C17.9914 16.2514 18 14.46 18 12.0643C15.3429 12.15 14.13 12.2143 13.1571 13.1571ZM6 12.0643C6 14.46 6.00857 16.2514 6.86571 17.1343C7.74857 17.9914 9.45857 18 11.9357 18C11.85 15.3429 11.7857 14.13 10.8429 13.1571C9.87 12.2143 8.65714 12.1457 6 12.0643ZM11.9357 6C9.46286 6 7.74857 6.00857 6.86571 6.86571C6.00857 7.74857 6 9.54 6 11.9357C8.65714 11.85 9.87 11.7857 10.8429 10.8429C11.7857 9.87 11.8543 8.65714 11.9357 6ZM13.1571 10.8429C12.2143 9.87 12.1457 8.65714 12.0643 6C14.5414 6 16.2514 6.00857 17.1343 6.86571C17.9914 7.74857 18 9.54 18 11.9357C15.3429 11.85 14.13 11.7857 13.1571 10.8429Z" fill="white"/>
<path d="M18 12.0643V11.9357C15.3429 11.85 14.13 11.7857 13.1571 10.8429C12.2143 9.87 12.1457 8.65714 12.0643 6H11.9357C11.85 8.65714 11.7857 9.87 10.8429 10.8429C9.87 11.7857 8.65714 11.8543 6 11.9357V12.0643C8.65714 12.15 9.87 12.2143 10.8429 13.1571C11.7857 14.13 11.8543 15.3429 11.9357 18H12.0643C12.15 15.3429 12.2143 14.13 13.1571 13.1571C14.13 12.2143 15.3429 12.1457 18 12.0643Z" fill="#2C3036"/>
</svg>
