<svg width="24" height="24" viewBox="0 0 24 24" fill="none" xmlns="http://www.w3.org/2000/svg">
<path d="M0 12C0 5.37258 5.37258 0 12 0C18.6274 0 24 5.37258 24 12C24 18.6274 18.6274 24 12 24C5.37258 24 0 18.6274 0 12Z" fill="#8073FF"/>
<path fill-rule="evenodd" clip-rule="evenodd" d="M13.1571 13.1571C12.2143 14.13 12.15 15.3429 12.0643 18C14.5414 18 16.2514 17.9914 17.1343 17.1343C17.9914 16.2514 18 14.46 18 12.0643C15.3429 12.15 14.13 12.2143 13.1571 13.1571ZM11.9357 18C9.45857 18 7.74857 17.9914 6.86571 17.1343C6.00857 16.2514 6 14.46 6 12.0643C8.65714 12.15 9.87 12.2143 10.8429 13.1571C11.7857 14.13 11.85 15.3429 11.9357 18ZM10.8429 10.8429C9.87 11.7857 8.65714 11.85 6 11.9357C6 9.54 6.00857 7.74857 6.86571 6.86571C7.74857 6.00857 9.46286 6 11.9357 6C11.85 8.65714 11.7857 9.87 10.8429 10.8429ZM12.0643 6C12.1457 8.65714 12.2143 9.87 13.1571 10.8429C14.13 11.7857 15.3429 11.85 18 11.9357C18 9.54 17.9914 7.74857 17.1343 6.86571C16.2514 6.00857 14.5414 6 12.0643 6Z" fill="white"/>
</svg>
