<svg width="20" height="20" viewBox="0 0 20 20" fill="none" xmlns="http://www.w3.org/2000/svg">
<path fill-rule="evenodd" clip-rule="evenodd" d="M15.8327 3.33301C17.2134 3.33301 18.3327 4.4523 18.3327 5.83301V14.1663C18.3327 15.5471 17.2134 16.6663 15.8327 16.6663H4.16602C2.7853 16.6663 1.66602 15.5471 1.66602 14.1663V5.83301C1.66602 4.4523 2.7853 3.33301 4.16602 3.33301H15.8327ZM16.666 6.10634L10.5481 11.4602C10.2601 11.7122 9.8419 11.7332 9.53219 11.5232L9.45059 11.4602L3.33268 6.10717V14.1663C3.33268 14.6266 3.70578 14.9997 4.16602 14.9997H15.8327C16.2929 14.9997 16.666 14.6266 16.666 14.1663V6.10634ZM15.3993 4.99967H4.59768L9.99935 9.7257L15.3993 4.99967Z" fill="#8073FF"/>
</svg>
