<svg width="1620" height="82" viewBox="0 0 1620 82" fill="none" xmlns="http://www.w3.org/2000/svg">
<path d="M195.721 81.8846V53.0162H209.154L215.333 53.1978L262.887 53.1978L267.006 53.0162H285.813V81.8846H270.051V68.0859L211.482 68.0859V81.8846H195.721ZM209.87 0L274.171 0V63.0022L257.245 63.0022V7.17172L264.857 14.9789L218.915 14.9789L225.901 9.25969C226.319 12.2252 226.587 15.0999 226.707 17.8839C226.826 20.6073 226.886 23.2097 226.886 25.6911C226.886 32.9536 226.289 39.0662 225.095 44.0289C223.901 48.9916 222.11 52.7741 219.721 55.3765C217.393 57.9184 214.497 59.1893 211.035 59.1893L203.96 53.1978C206.408 50.3533 208.229 46.3892 209.423 41.3055C210.617 36.1612 211.214 29.8065 211.214 22.2414C211.214 18.7917 211.094 15.221 210.855 11.5292C210.617 7.77692 210.288 3.93385 209.87 0Z" fill="url(#paint0_linear_463_297)"/>
<path d="M140.992 81.9995C131.899 81.9995 123.908 80.2868 117.02 76.8614C110.2 73.4361 104.896 68.6475 101.107 62.4958C97.3182 56.3441 95.4238 49.1787 95.4238 40.9998C95.4238 32.8208 97.3182 25.6554 101.107 19.5037C104.896 13.352 110.2 8.56346 117.02 5.13808C123.908 1.71269 131.899 0 140.992 0C150.085 0 158.041 1.71269 164.861 5.13808C171.749 8.56346 177.088 13.352 180.877 19.5037C184.734 25.6554 186.663 32.8208 186.663 40.9998C186.663 49.1787 184.734 56.3441 180.877 62.4958C177.088 68.6475 171.749 73.4361 164.861 76.8614C158.041 80.2868 150.085 81.9995 140.992 81.9995ZM140.992 64.2784C146.365 64.2784 150.98 63.3696 154.838 61.5521C158.695 59.6646 161.657 56.9732 163.724 53.4779C165.86 49.9827 166.927 45.8233 166.927 40.9998C166.927 36.1763 165.86 32.0169 163.724 28.5216C161.657 25.0263 158.695 22.3699 154.838 20.5523C150.98 18.6649 146.365 17.7211 140.992 17.7211C135.688 17.7211 131.107 18.6649 127.249 20.5523C123.391 22.3699 120.395 25.0263 118.259 28.5216C116.124 32.0169 115.056 36.1763 115.056 40.9998C115.056 45.8233 116.124 49.9827 118.259 53.4779C120.395 56.9732 123.391 59.6646 127.249 61.5521C131.107 63.3696 135.688 64.2784 140.992 64.2784Z" fill="url(#paint1_linear_463_297)"/>
<path fill-rule="evenodd" clip-rule="evenodd" d="M0 0L0 81.9995H18.5665L35.9934 60.585L26.8763 46.1837L20.5324 54.1936L20.5324 0L0 0Z" fill="url(#paint2_linear_463_297)"/>
<path fill-rule="evenodd" clip-rule="evenodd" d="M35.9922 35.7873L40.0937 42.2936L45.1692 50.3451L65.1237 81.9995L87.0527 81.9995L57.9568 34.5643L85.9652 0L64.2152 0L35.9922 35.7873Z" fill="url(#paint3_linear_463_297)"/>
<path d="M1530.63 81.9995V0L1550.73 0V71.2849L1544.79 70.0823L1593.42 0L1620 0V81.9995H1600.01V9.51195L1605.84 10.7146L1556.57 81.9995H1530.63Z" fill="url(#paint4_linear_463_297)"/>
<path d="M1432.89 81.9995V0L1452.99 0V71.2849L1447.05 70.0823L1495.68 0L1522.26 0V81.9995H1502.27V9.51195L1508.1 10.7146L1458.83 81.9995H1432.89Z" fill="url(#paint5_linear_463_297)"/>
<path d="M1412.84 0V58.5451L1406.91 52.9997L1424.52 52.9997V81.9995H1408.62V65.0905L1413.83 68.1814L1343.38 68.1814V0L1360.37 0V58.5451L1354.89 52.9997L1401.79 52.9997L1395.86 58.5451V0L1412.84 0Z" fill="url(#paint6_linear_463_297)"/>
<path d="M1255.91 65.4903V48.7624L1311.89 48.7624V65.4903L1255.91 65.4903ZM1297.62 0L1335.01 81.9995H1313.29L1281.2 8.63729L1287.47 8.63729L1255.48 81.9995H1233.65L1271.15 0L1297.62 0Z" fill="url(#paint7_linear_463_297)"/>
<path d="M1186.1 81.9995C1178.02 81.9995 1170.94 80.8461 1164.86 78.5392C1158.78 76.2323 1154.04 72.9817 1150.66 68.7873C1147.27 64.5231 1145.44 59.5597 1145.17 53.8974H1164.75C1165.31 58.0218 1167.38 61.2025 1170.97 63.4395C1174.57 65.6066 1179.61 66.6901 1186.1 66.6901C1192.18 66.6901 1196.88 65.8163 1200.2 64.0687C1203.59 62.321 1205.28 59.6996 1205.28 56.2043C1205.28 53.1983 1203.86 50.9963 1201.03 49.5982C1198.2 48.2001 1193.6 47.501 1187.24 47.501H1172.73V34.2888H1186.93C1190.66 34.2888 1193.74 33.9043 1196.16 33.1354C1198.64 32.3664 1200.48 31.2829 1201.65 29.8847C1202.82 28.4866 1203.41 26.8788 1203.41 25.0612C1203.41 22.9641 1202.72 21.1815 1201.34 19.7134C1199.96 18.2454 1197.99 17.1619 1195.43 16.4628C1192.88 15.6939 1189.8 15.3094 1186.21 15.3094C1180.33 15.3094 1175.67 16.3929 1172.22 18.56C1168.83 20.6572 1166.83 23.6282 1166.21 27.473L1146.82 27.473C1147.17 22.3699 1148.93 17.7561 1152.11 13.6316C1155.36 9.50719 1159.92 6.22162 1165.79 3.77491C1171.73 1.25831 1178.85 0 1187.14 0C1194.46 0 1200.82 0.943729 1206.21 2.83119C1211.6 4.71864 1215.78 7.30516 1218.75 10.5907C1221.79 13.8763 1223.31 17.6862 1223.31 22.0203C1223.31 25.5855 1222.24 28.8711 1220.1 31.877C1218.03 34.883 1214.74 37.2598 1210.25 39.0074C1205.83 40.7551 1200.1 41.594 1193.05 41.5241V39.4269C1199.75 39.0773 1205.49 39.5667 1210.25 40.8949C1215.09 42.1532 1218.79 44.1805 1221.34 46.9767C1223.97 49.7729 1225.28 53.3381 1225.28 57.6723C1225.28 62.4259 1223.76 66.6552 1220.72 70.3602C1217.68 73.9953 1213.22 76.8614 1207.35 78.9586C1201.55 80.9859 1194.46 81.9995 1186.1 81.9995Z" fill="url(#paint8_linear_463_297)"/>
<path d="M1047.43 81.9995V0L1067.53 0V71.2849L1061.58 70.0823L1110.21 0L1136.8 0V81.9995H1116.8V9.51195L1122.64 10.7146L1073.36 81.9995H1047.43Z" fill="url(#paint9_linear_463_297)"/>
<path d="M987.08 9.18395L1007.5 9.18395V81.9995L987.08 81.9995V9.18395ZM955.525 0L1039.06 0V18.2586L955.525 18.2586V0Z" fill="url(#paint10_linear_463_297)"/>
<path d="M868.052 65.4903V48.7624L924.029 48.7624V65.4903L868.052 65.4903ZM909.764 0L947.154 81.9995H925.434L893.339 8.63729L899.606 8.63729L867.62 81.9995H845.791L883.289 0L909.764 0Z" fill="url(#paint11_linear_463_297)"/>
<path d="M837.42 0V81.9995H817.968V7.21596L822.723 7.54395L789.764 81.9995H768.908L735.949 7.76262L740.703 7.32529V81.9995H721.252V0L752.698 0L783.496 71.7222H775.283L805.973 0L837.42 0Z" fill="url(#paint12_linear_463_297)"/>
<path d="M667.071 81.9995C657.951 81.9995 649.936 80.2868 643.026 76.8614C636.186 73.4361 630.866 68.6475 627.065 62.4958C623.265 56.3441 621.365 49.1787 621.365 40.9998C621.365 32.8208 623.265 25.6554 627.065 19.5037C630.866 13.352 636.186 8.56346 643.026 5.13808C649.936 1.71269 657.951 0 667.071 0C676.191 0 684.172 1.71269 691.012 5.13808C697.921 8.56346 703.276 13.352 707.076 19.5037C710.946 25.6554 712.88 32.8208 712.88 40.9998C712.88 49.1787 710.946 56.3441 707.076 62.4958C703.276 68.6475 697.921 73.4361 691.012 76.8614C684.172 80.2868 676.191 81.9995 667.071 81.9995ZM667.071 64.2784C672.46 64.2784 677.09 63.3696 680.959 61.5521C684.828 59.6646 687.799 56.9732 689.872 53.4779C692.014 49.9826 693.085 45.8233 693.085 40.9998C693.085 36.1763 692.014 32.0169 689.872 28.5216C687.799 25.0263 684.828 22.3699 680.959 20.5523C677.09 18.6649 672.46 17.7211 667.071 17.7211C661.751 17.7211 657.156 18.6649 653.287 20.5523C649.417 22.3699 646.412 25.0263 644.27 28.5216C642.128 32.0169 641.057 36.1763 641.057 40.9998C641.057 45.8233 642.128 49.9826 644.27 53.4779C646.412 56.9732 649.417 59.6646 653.287 61.5521C657.156 63.3696 661.751 64.2784 667.071 64.2784Z" fill="url(#paint13_linear_463_297)"/>
<path d="M561.017 9.18395L581.441 9.18395V81.9995L561.017 81.9995V9.18395ZM529.463 0L612.996 0V18.2586L529.463 18.2586V0Z" fill="url(#paint14_linear_463_297)"/>
<path d="M491.699 41.7651L493.428 37.7198C499.768 37.8656 504.955 38.8496 508.989 40.6718C513.096 42.494 516.122 45.0086 518.067 48.2157C520.084 51.3499 521.092 54.9579 521.092 59.0396C521.092 63.4858 520.084 67.4583 518.067 70.9569C516.049 74.3827 513.024 77.0795 508.989 79.0475C505.027 81.0155 500.056 81.9995 494.077 81.9995L435.723 81.9995L441.99 39.9064L435.723 0L492.023 0C499.516 0 505.315 1.78577 509.422 5.3573C513.6 8.85595 515.689 13.703 515.689 19.8986C515.689 23.3243 514.897 26.6043 513.312 29.7385C511.727 32.8727 509.206 35.5331 505.747 37.7198C502.289 39.8335 497.607 41.182 491.699 41.7651ZM455.822 76.9702L448.042 67.2396L489.214 67.2396C492.744 67.2396 495.482 66.4014 497.427 64.725C499.444 62.9756 500.452 60.5339 500.452 57.3997C500.452 54.2655 499.336 51.7873 497.102 49.965C494.941 48.0699 491.699 47.1224 487.377 47.1224L453.661 47.1224V32.6905L484.783 32.6905C487.737 32.6905 490.186 31.8523 492.132 30.1758C494.077 28.4265 495.049 26.0576 495.049 23.0692C495.049 20.6639 494.185 18.6959 492.456 17.1652C490.799 15.5617 488.421 14.7599 485.324 14.7599L448.15 14.7599L455.822 5.0293L461.55 39.9064L455.822 76.9702Z" fill="url(#paint15_linear_463_297)"/>
<path d="M348.251 65.4903V48.7624L404.228 48.7624V65.4903L348.251 65.4903ZM389.964 0L427.353 81.9995H405.633L373.538 8.63729L379.806 8.63729L347.819 81.9995H325.99L363.488 0L389.964 0Z" fill="url(#paint16_linear_463_297)"/>
<defs>
<linearGradient id="paint0_linear_463_297" x1="239.321" y1="-43.6188" x2="239.321" y2="80.1584" gradientUnits="userSpaceOnUse">
<stop offset="0.0231932" stop-color="#EAEAEA"/>
<stop offset="1" stop-color="#F8F8F8"/>
</linearGradient>
<linearGradient id="paint1_linear_463_297" x1="139.579" y1="-43.68" x2="139.579" y2="80.2708" gradientUnits="userSpaceOnUse">
<stop offset="0.0231932" stop-color="#EAEAEA"/>
<stop offset="1" stop-color="#F8F8F8"/>
</linearGradient>
<linearGradient id="paint2_linear_463_297" x1="17.4191" y1="-43.68" x2="17.4191" y2="80.2708" gradientUnits="userSpaceOnUse">
<stop offset="0.0231932" stop-color="#EAEAEA"/>
<stop offset="1" stop-color="#F8F8F8"/>
</linearGradient>
<linearGradient id="paint3_linear_463_297" x1="60.7029" y1="-43.68" x2="60.703" y2="80.2708" gradientUnits="userSpaceOnUse">
<stop offset="0.0231932" stop-color="#EAEAEA"/>
<stop offset="1" stop-color="#F8F8F8"/>
</linearGradient>
<linearGradient id="paint4_linear_463_297" x1="1573.88" y1="-43.68" x2="1573.88" y2="80.2708" gradientUnits="userSpaceOnUse">
<stop offset="0.0231932" stop-color="#EAEAEA"/>
<stop offset="1" stop-color="#F8F8F8"/>
</linearGradient>
<linearGradient id="paint5_linear_463_297" x1="1476.14" y1="-43.68" x2="1476.14" y2="80.2708" gradientUnits="userSpaceOnUse">
<stop offset="0.0231932" stop-color="#EAEAEA"/>
<stop offset="1" stop-color="#F8F8F8"/>
</linearGradient>
<linearGradient id="paint6_linear_463_297" x1="1382.65" y1="-43.68" x2="1382.65" y2="80.2708" gradientUnits="userSpaceOnUse">
<stop offset="0.0231932" stop-color="#EAEAEA"/>
<stop offset="1" stop-color="#F8F8F8"/>
</linearGradient>
<linearGradient id="paint7_linear_463_297" x1="1282.71" y1="-43.68" x2="1282.71" y2="80.2708" gradientUnits="userSpaceOnUse">
<stop offset="0.0231932" stop-color="#EAEAEA"/>
<stop offset="1" stop-color="#F8F8F8"/>
</linearGradient>
<linearGradient id="paint8_linear_463_297" x1="1183.94" y1="-43.68" x2="1183.94" y2="80.2708" gradientUnits="userSpaceOnUse">
<stop offset="0.0231932" stop-color="#EAEAEA"/>
<stop offset="1" stop-color="#F8F8F8"/>
</linearGradient>
<linearGradient id="paint9_linear_463_297" x1="1090.68" y1="-43.68" x2="1090.68" y2="80.2708" gradientUnits="userSpaceOnUse">
<stop offset="0.0231932" stop-color="#EAEAEA"/>
<stop offset="1" stop-color="#F8F8F8"/>
</linearGradient>
<linearGradient id="paint10_linear_463_297" x1="995.951" y1="-43.68" x2="995.951" y2="80.2708" gradientUnits="userSpaceOnUse">
<stop offset="0.0231932" stop-color="#EAEAEA"/>
<stop offset="1" stop-color="#F8F8F8"/>
</linearGradient>
<linearGradient id="paint11_linear_463_297" x1="894.846" y1="-43.68" x2="894.846" y2="80.2708" gradientUnits="userSpaceOnUse">
<stop offset="0.0231932" stop-color="#EAEAEA"/>
<stop offset="1" stop-color="#F8F8F8"/>
</linearGradient>
<linearGradient id="paint12_linear_463_297" x1="777.471" y1="-43.68" x2="777.471" y2="80.2708" gradientUnits="userSpaceOnUse">
<stop offset="0.0231932" stop-color="#EAEAEA"/>
<stop offset="1" stop-color="#F8F8F8"/>
</linearGradient>
<linearGradient id="paint13_linear_463_297" x1="665.654" y1="-43.68" x2="665.654" y2="80.2708" gradientUnits="userSpaceOnUse">
<stop offset="0.0231932" stop-color="#EAEAEA"/>
<stop offset="1" stop-color="#F8F8F8"/>
</linearGradient>
<linearGradient id="paint14_linear_463_297" x1="569.889" y1="-43.68" x2="569.889" y2="80.2708" gradientUnits="userSpaceOnUse">
<stop offset="0.0231932" stop-color="#EAEAEA"/>
<stop offset="1" stop-color="#F8F8F8"/>
</linearGradient>
<linearGradient id="paint15_linear_463_297" x1="477.037" y1="-43.68" x2="477.037" y2="80.2708" gradientUnits="userSpaceOnUse">
<stop offset="0.0231932" stop-color="#EAEAEA"/>
<stop offset="1" stop-color="#F8F8F8"/>
</linearGradient>
<linearGradient id="paint16_linear_463_297" x1="375.045" y1="-43.68" x2="375.045" y2="80.2708" gradientUnits="userSpaceOnUse">
<stop offset="0.0231932" stop-color="#EAEAEA"/>
<stop offset="1" stop-color="#F8F8F8"/>
</linearGradient>
</defs>
</svg>
