<svg width="24" height="24" viewBox="0 0 24 24" fill="none" xmlns="http://www.w3.org/2000/svg">
<rect width="24" height="24" rx="12" fill="#2878B7"/>
<path d="M16.8008 12.4467V15.7561H14.8636V12.6484C14.8636 11.8816 14.5811 11.357 13.895 11.357C13.3703 11.357 13.0474 11.7202 12.9263 12.0431C12.886 12.1641 12.8456 12.3256 12.8456 12.5274V15.7561H10.9084C10.9084 15.7561 10.9488 10.5094 10.9084 9.98477H12.8456V10.7919C13.0878 10.3884 13.5721 9.82333 14.581 9.82333C15.8322 9.82333 16.8008 10.6709 16.8008 12.4467ZM8.89047 7.20001C8.24473 7.20001 7.80078 7.64396 7.80078 8.20898C7.80078 8.774 8.20437 9.21795 8.85011 9.21795C9.53621 9.21795 9.93979 8.774 9.93979 8.20898C9.98015 7.6036 9.57657 7.20001 8.89047 7.20001ZM7.92186 15.7561H9.85908V9.98477H7.92186V15.7561Z" fill="white"/>
</svg>
