<svg width="24" height="24" viewBox="0 0 24 24" fill="none" xmlns="http://www.w3.org/2000/svg">
<rect width="24" height="24" rx="12" fill="#333333"/>
<path d="M16.8008 12.4466V15.756H14.8636V12.6484C14.8636 11.8816 14.5811 11.3569 13.895 11.3569C13.3703 11.3569 13.0474 11.7201 12.9263 12.043C12.886 12.1641 12.8456 12.3255 12.8456 12.5273V15.756H10.9084C10.9084 15.756 10.9488 10.5094 10.9084 9.98471H12.8456V10.7919C13.0878 10.3883 13.5721 9.82327 14.581 9.82327C15.8322 9.82327 16.8008 10.6708 16.8008 12.4466ZM8.89047 7.19995C8.24473 7.19995 7.80078 7.6439 7.80078 8.20892C7.80078 8.77394 8.20437 9.21789 8.85011 9.21789C9.53621 9.21789 9.93979 8.77394 9.93979 8.20892C9.98015 7.60354 9.57657 7.19995 8.89047 7.19995ZM7.92186 15.756H9.85908V9.98471H7.92186V15.756Z" fill="white"/>
</svg>
