<svg width="257" height="35" viewBox="0 0 257 35" fill="none" xmlns="http://www.w3.org/2000/svg">
<rect x="85.0742" width="171.925" height="35" rx="17.5" fill="#6924FF"/>
<path d="M49.0898 31.4334L49.0898 22.0799H53.4467L55.4509 22.1387L70.8741 22.1387L72.2102 22.0799H78.3099V31.4334H73.1978V26.9625L54.2019 26.9625L54.2019 31.4334H49.0898ZM53.6791 4.90234L74.5339 4.90234V25.3154H69.0443V7.22602L71.5131 9.75558L56.6127 9.75558L58.8783 7.90253C59.0138 8.86337 59.1009 9.7948 59.1397 10.6968C59.1784 11.5792 59.1978 12.4224 59.1978 13.2264C59.1978 15.5795 59.0041 17.56 58.6168 19.1679C58.2296 20.7759 57.6487 22.0014 56.8741 22.8446C56.1189 23.6682 55.1798 24.08 54.0567 24.08L51.7621 22.1387C52.556 21.2171 53.1466 19.9327 53.5338 18.2855C53.9211 16.6188 54.1148 14.5598 54.1148 12.1087C54.1148 10.991 54.076 9.83402 53.9986 8.63787C53.9211 7.42211 53.8146 6.17693 53.6791 4.90234Z" fill="#121212"/>
<path d="M35.3951 27.4331C32.8391 27.4331 30.5929 26.9526 28.6565 25.9918C26.7395 25.0309 25.2485 23.6877 24.1835 21.9621C23.1184 20.2365 22.5859 18.2266 22.5859 15.9323C22.5859 13.6381 23.1184 11.6282 24.1835 9.90256C25.2485 8.17697 26.7395 6.83375 28.6565 5.87291C30.5929 4.91206 32.8391 4.43164 35.3951 4.43164C37.9511 4.43164 40.1876 4.91206 42.1047 5.87291C44.041 6.83375 45.5417 8.17697 46.6068 9.90256C47.6911 11.6282 48.2333 13.6381 48.2333 15.9323C48.2333 18.2266 47.6911 20.2365 46.6068 21.9621C45.5417 23.6877 44.041 25.0309 42.1047 25.9918C40.1876 26.9526 37.9511 27.4331 35.3951 27.4331ZM35.3951 22.4622C36.9055 22.4622 38.2029 22.2072 39.2872 21.6974C40.3716 21.168 41.2043 20.413 41.7852 19.4326C42.3854 18.4521 42.6856 17.2854 42.6856 15.9323C42.6856 14.5793 42.3854 13.4126 41.7852 12.4321C41.2043 11.4517 40.3716 10.7065 39.2872 10.1967C38.2029 9.66726 36.9055 9.40253 35.3951 9.40253C33.9041 9.40253 32.6164 9.66726 31.532 10.1967C30.4476 10.7065 29.6053 11.4517 29.005 12.4321C28.4048 13.4126 28.1046 14.5793 28.1046 15.9323C28.1046 17.2854 28.4048 18.4521 29.005 19.4326C29.6053 20.413 30.4476 21.168 31.532 21.6974C32.6164 22.2072 33.9041 22.4622 35.3951 22.4622Z" fill="#121212"/>
<path fill-rule="evenodd" clip-rule="evenodd" d="M0 4.90234L0 26.9625H4.93777L9.57246 21.2014L7.14775 17.3271L5.4606 19.4819L5.4606 4.90234L0 4.90234Z" fill="#121212"/>
<path fill-rule="evenodd" clip-rule="evenodd" d="M9.74609 15.0125L10.8415 16.7629L12.1972 18.929L17.5267 27.4449L23.3837 27.4449L15.6126 14.6835L23.0932 5.38477L17.2841 5.38477L9.74609 15.0125Z" fill="#6924FF"/>
<path d="M232.805 22.4052V13.2109H235.056V21.2038L234.391 21.0689L239.838 13.2109H242.816V22.4052H240.577V14.2775L241.23 14.4123L235.71 22.4052H232.805Z" fill="white"/>
<path d="M221.031 22.4032V13.209H223.283V21.2018L222.617 21.067L228.065 13.209H231.043V22.4032H228.803V14.2755L229.457 14.4104L223.937 22.4032H221.031Z" fill="white"/>
<path d="M218.233 13.209V21.1038L217.434 20.356H219.806V24.2666H217.664V21.9864L218.366 22.4032H208.875V13.209H211.163V21.1038L210.425 20.356H216.744L215.945 21.1038V13.209H218.233Z" fill="white"/>
<path d="M199.091 20.5541V18.6784H205.362V20.5541H199.091ZM203.764 13.2109L207.953 22.4052H205.52L201.924 14.1794L202.626 14.1794L199.043 22.4052H196.598L200.798 13.2109L203.764 13.2109Z" fill="white"/>
<path d="M191.915 22.6002C190.97 22.6002 190.143 22.4653 189.433 22.1956C188.723 21.9259 188.17 21.5459 187.774 21.0556C187.379 20.557 187.165 19.9768 187.133 19.3148H189.421C189.485 19.797 189.727 20.1688 190.147 20.4303C190.567 20.6837 191.156 20.8104 191.915 20.8104C192.625 20.8104 193.174 20.7082 193.561 20.5039C193.956 20.2996 194.154 19.9931 194.154 19.5845C194.154 19.2331 193.989 18.9756 193.658 18.8122C193.327 18.6487 192.79 18.567 192.048 18.567H190.353V17.0224H192.011C192.447 17.0224 192.806 16.9774 193.089 16.8875C193.379 16.7976 193.593 16.6709 193.73 16.5075C193.868 16.344 193.936 16.1561 193.936 15.9436C193.936 15.6984 193.855 15.49 193.694 15.3184C193.533 15.1467 193.303 15.0201 193.004 14.9383C192.705 14.8484 192.346 14.8035 191.927 14.8035C191.241 14.8035 190.696 14.9302 190.292 15.1835C189.897 15.4287 189.663 15.776 189.59 16.2255H187.327C187.367 15.6289 187.573 15.0895 187.944 14.6073C188.323 14.1252 188.856 13.741 189.542 13.455C190.236 13.1608 191.067 13.0137 192.036 13.0137C192.891 13.0137 193.634 13.124 194.263 13.3447C194.893 13.5653 195.381 13.8677 195.728 14.2518C196.083 14.6359 196.26 15.0814 196.26 15.5881C196.26 16.0049 196.135 16.389 195.885 16.7404C195.643 17.0918 195.26 17.3697 194.735 17.574C194.219 17.7783 193.549 17.8764 192.726 17.8682V17.623C193.508 17.5822 194.178 17.6394 194.735 17.7947C195.3 17.9418 195.732 18.1788 196.03 18.5057C196.337 18.8326 196.49 19.2494 196.49 19.7561C196.49 20.3118 196.313 20.8063 195.958 21.2394C195.603 21.6644 195.082 21.9995 194.396 22.2447C193.718 22.4817 192.891 22.6002 191.915 22.6002Z" fill="white"/>
<path d="M175.953 22.4032V13.209H178.205V21.2018L177.539 21.067L182.987 13.209H185.965V22.4032H183.725V14.2755L184.379 14.4104L178.858 22.4032H175.953Z" fill="white"/>
<path d="M169.035 14.2387H171.323V22.4032H169.035V14.2387ZM165.5 13.209L174.858 13.209V15.2562L165.5 15.2562V13.209Z" fill="white"/>
<path d="M157.865 20.5521V18.6765H164.136V20.5521H157.865ZM162.538 13.209L166.726 22.4032H164.293L160.698 14.1774L161.4 14.1774L157.816 22.4032H155.371L159.572 13.209L162.538 13.209Z" fill="white"/>
<path d="M154.467 13.209V22.4032H152.288V14.0181L152.82 14.0549L149.128 22.4032H146.792L143.099 14.0794L143.632 14.0303V22.4032H141.453V13.209H144.976L148.426 21.2509H147.506L150.944 13.209H154.467Z" fill="white"/>
<path d="M134.753 22.6002C133.687 22.6002 132.751 22.4 131.944 21.9995C131.145 21.599 130.524 21.0392 130.08 20.32C129.636 19.6008 129.414 18.7631 129.414 17.8069C129.414 16.8507 129.636 16.013 130.08 15.2938C130.524 14.5746 131.145 14.0148 131.944 13.6144C132.751 13.2139 133.687 13.0137 134.753 13.0137C135.818 13.0137 136.75 13.2139 137.549 13.6144C138.356 14.0148 138.982 14.5746 139.425 15.2938C139.877 16.013 140.103 16.8507 140.103 17.8069C140.103 18.7631 139.877 19.6008 139.425 20.32C138.982 21.0392 138.356 21.599 137.549 21.9995C136.75 22.4 135.818 22.6002 134.753 22.6002ZM134.753 20.5284C135.382 20.5284 135.923 20.4222 136.375 20.2097C136.827 19.989 137.174 19.6744 137.416 19.2657C137.666 18.8571 137.791 18.3708 137.791 17.8069C137.791 17.243 137.666 16.7567 137.416 16.3481C137.174 15.9395 136.827 15.6289 136.375 15.4164C135.923 15.1958 135.382 15.0854 134.753 15.0854C134.131 15.0854 133.595 15.1958 133.143 15.4164C132.691 15.6289 132.34 15.9395 132.089 16.3481C131.839 16.7567 131.714 17.243 131.714 17.8069C131.714 18.3708 131.839 18.8571 132.089 19.2657C132.34 19.6744 132.691 19.989 133.143 20.2097C133.595 20.4222 134.131 20.5284 134.753 20.5284Z" fill="white"/>
<path d="M123.304 14.2387H125.592V22.4032H123.304V14.2387ZM119.77 13.209L129.127 13.209V15.2562L119.77 15.2562V13.209Z" fill="white"/>
<path d="M116.197 17.8919L116.39 17.4383C117.1 17.4547 117.681 17.565 118.133 17.7693C118.593 17.9736 118.932 18.2556 119.15 18.6152C119.376 18.9666 119.489 19.3712 119.489 19.8288C119.489 20.3274 119.376 20.7728 119.15 21.1651C118.924 21.5492 118.585 21.8516 118.133 22.0722C117.69 22.2929 117.133 22.4032 116.463 22.4032H109.926L110.628 17.6835L109.926 13.209L116.233 13.209C117.072 13.209 117.722 13.4092 118.182 13.8097C118.65 14.202 118.884 14.7454 118.884 15.4401C118.884 15.8242 118.795 16.192 118.618 16.5434C118.44 16.8949 118.158 17.1932 117.77 17.4383C117.383 17.6753 116.858 17.8265 116.197 17.8919ZM112.177 21.8393L111.306 20.7483H115.918C116.314 20.7483 116.62 20.6543 116.838 20.4663C117.064 20.2702 117.177 19.9964 117.177 19.6449C117.177 19.2935 117.052 19.0157 116.802 18.8113C116.56 18.5988 116.197 18.4926 115.712 18.4926H111.935V16.8744H115.422C115.753 16.8744 116.027 16.7804 116.245 16.5925C116.463 16.3963 116.572 16.1307 116.572 15.7956C116.572 15.5259 116.475 15.3053 116.281 15.1336C116.096 14.9538 115.829 14.8639 115.482 14.8639H111.318L112.177 13.7729L112.819 17.6835L112.177 21.8393Z" fill="white"/>
<path d="M100.412 20.5541V18.6784H106.682V20.5541H100.412ZM105.085 13.2109L109.273 22.4052H106.84L103.244 14.1794L103.947 14.1794L100.363 22.4052H97.918L102.119 13.2109L105.085 13.2109Z" fill="white"/>
</svg>
