<svg width="20" height="20" viewBox="0 0 20 20" fill="none" xmlns="http://www.w3.org/2000/svg">
<path fill-rule="evenodd" clip-rule="evenodd" d="M10 1.6665C14.1421 1.6665 17.5 4.98794 17.5 9.08514C17.5 11.7964 15.2314 14.663 10.7902 17.7858L10 18.3332L9.52316 18.0041C4.87535 14.7964 2.5 11.8594 2.5 9.08514C2.5 4.98794 5.85786 1.6665 10 1.6665ZM10 3.31509C6.77834 3.31509 4.16667 5.89843 4.16667 9.08514C4.16667 11.0872 6.0806 13.5302 10 16.318C13.9194 13.5302 15.8333 11.0872 15.8333 9.08514C15.8333 5.89843 13.2217 3.31509 10 3.31509ZM10 4.99984C11.8409 4.99984 13.3333 6.49222 13.3333 8.33317C13.3333 10.1741 11.8409 11.6665 10 11.6665C8.15905 11.6665 6.66667 10.1741 6.66667 8.33317C6.66667 6.49222 8.15905 4.99984 10 4.99984ZM10 6.6665C9.07952 6.6665 8.33333 7.4127 8.33333 8.33317C8.33333 9.25364 9.07952 9.99984 10 9.99984C10.9205 9.99984 11.6667 9.25364 11.6667 8.33317C11.6667 7.4127 10.9205 6.6665 10 6.6665Z" fill="#121212"/>
</svg>
