<svg width="24" height="24" viewBox="0 0 24 24" fill="none" xmlns="http://www.w3.org/2000/svg">
<rect width="24" height="24" rx="12" fill="#F79A38"/>
<path d="M15.7434 13.6756C16.0582 13.3608 16.1032 12.911 15.8333 12.4612C15.6084 12.1014 15.2037 11.9215 14.7539 12.0115C14.574 12.0564 14.3941 12.1464 14.2142 12.2813C12.8199 13.2258 10.9309 13.1809 9.5366 12.2364C9.44664 12.1914 9.35669 12.1464 9.26673 12.1014C8.77199 11.8765 8.27725 11.9665 8.00739 12.4163C7.69256 12.866 7.73753 13.3608 8.14232 13.7656C8.23227 13.8555 8.32223 13.9005 8.3672 13.9904L8.41218 14.0354C9.04185 14.5302 9.80646 14.845 10.7959 14.9799L10.2112 15.5646C9.7165 16.0594 9.17679 16.5991 8.68204 17.0938C8.54711 17.2288 8.3672 17.4536 8.3672 17.7685C8.3672 18.1733 8.59209 18.5781 8.99688 18.758C9.13181 18.8479 9.26674 18.8479 9.40167 18.8479C9.62655 18.8479 9.89641 18.758 10.0763 18.5331C10.751 17.8584 11.2907 17.3187 11.8304 16.779C11.8754 16.734 11.8754 16.734 11.8754 16.734C11.8754 16.734 11.9204 16.734 11.9204 16.779C12.2802 17.1838 12.685 17.5436 13.0448 17.9484C13.2247 18.1283 13.4046 18.3082 13.5845 18.4881C13.8094 18.713 13.9893 18.8029 14.2591 18.8029C14.6639 18.8479 15.1137 18.578 15.2936 18.1733C15.4735 17.8134 15.3836 17.3637 15.0687 17.0938C14.619 16.6441 14.1692 16.1493 13.6744 15.6995L12.9098 14.9349C13.3146 14.89 13.7644 14.8 14.1692 14.6201C14.8438 14.3952 15.3386 14.0804 15.7434 13.6756Z" fill="white"/>
<path d="M11.8754 12.4163C13.8094 12.4163 15.3836 10.887 15.3836 8.95305C15.3836 8.00854 15.0237 7.10901 14.3491 6.43437C13.6744 5.75972 12.8199 5.3999 11.9204 5.3999C9.98636 5.3999 8.45716 6.97408 8.41218 8.8631C8.41218 9.80761 8.772 10.6622 9.44664 11.3368C10.0763 12.0564 10.9309 12.4163 11.8754 12.4163ZM10.8859 7.91859C11.1558 7.64874 11.5156 7.5138 11.8754 7.5138C12.685 7.5138 13.2697 8.14348 13.2697 8.90808C13.2697 9.71766 12.64 10.3023 11.8754 10.3023C11.0658 10.3023 10.4811 9.67268 10.4811 8.90808C10.4811 8.54827 10.616 8.18845 10.8859 7.91859Z" fill="white"/>
<path d="M15.7434 13.6756C16.0582 13.3608 16.1032 12.911 15.8333 12.4612C15.6084 12.1014 15.2037 11.9215 14.7539 12.0115C14.574 12.0564 14.3941 12.1464 14.2142 12.2813C12.8199 13.2258 10.9309 13.1809 9.5366 12.2364C9.44664 12.1914 9.35669 12.1464 9.26673 12.1014C8.77199 11.8765 8.27725 11.9665 8.00739 12.4163C7.69256 12.866 7.73753 13.3608 8.14232 13.7656C8.23227 13.8555 8.32223 13.9005 8.3672 13.9904L8.41218 14.0354C9.04185 14.5302 9.80646 14.845 10.7959 14.9799L10.2112 15.5646C9.7165 16.0594 9.17679 16.5991 8.68204 17.0938C8.54711 17.2288 8.3672 17.4536 8.3672 17.7685C8.3672 18.1733 8.59209 18.5781 8.99688 18.758C9.13181 18.8479 9.26674 18.8479 9.40167 18.8479C9.62655 18.8479 9.89641 18.758 10.0763 18.5331C10.751 17.8584 11.2907 17.3187 11.8304 16.779C11.8754 16.734 11.8754 16.734 11.8754 16.734C11.8754 16.734 11.9204 16.734 11.9204 16.779C12.2802 17.1838 12.685 17.5436 13.0448 17.9484C13.2247 18.1283 13.4046 18.3082 13.5845 18.4881C13.8094 18.713 13.9893 18.8029 14.2591 18.8029C14.6639 18.8479 15.1137 18.578 15.2936 18.1733C15.4735 17.8134 15.3836 17.3637 15.0687 17.0938C14.619 16.6441 14.1692 16.1493 13.6744 15.6995L12.9098 14.9349C13.3146 14.89 13.7644 14.8 14.1692 14.6201C14.8438 14.3952 15.3386 14.0804 15.7434 13.6756Z" fill="white"/>
</svg>
