<svg width="20" height="20" viewBox="0 0 20 20" fill="none" xmlns="http://www.w3.org/2000/svg">
<path fill-rule="evenodd" clip-rule="evenodd" d="M7.9616 8.1937C8.19343 8.03915 8.33268 7.77895 8.33268 7.50033V4.16699C8.33268 2.78628 7.21339 1.66699 5.83268 1.66699H2.49935C2.03911 1.66699 1.66602 2.04009 1.66602 2.50033C1.66602 10.7846 9.21508 18.3337 17.4993 18.3337C17.9596 18.3337 18.3327 17.9606 18.3327 17.5003V14.167C18.3327 12.7863 17.2134 11.667 15.8327 11.667H12.4993C12.2207 11.667 11.9605 11.8062 11.806 12.0381L10.2182 14.4198C8.48884 13.3016 6.97372 11.8246 5.8083 10.1245L5.57992 9.78149L7.9616 8.1937ZM12.9453 13.3337H15.8327C16.2929 13.3337 16.666 13.7068 16.666 14.167V16.6381C15.0516 16.5264 13.4761 16.0946 12.0066 15.41L11.6694 15.2475L12.9453 13.3337ZM3.36158 3.33366H5.83268C6.29292 3.33366 6.66602 3.70675 6.66602 4.16699V7.05434L4.75216 8.33024C3.97337 6.7657 3.48188 5.07221 3.36158 3.33366Z" fill="#121212"/>
</svg>
