<svg width="24" height="24" viewBox="0 0 24 24" fill="none" xmlns="http://www.w3.org/2000/svg">
<path d="M24 12C24 5.37258 18.6274 0 12 0C5.37258 0 0 5.37258 0 12C0 18.6274 5.37258 24 12 24C18.6274 24 24 18.6274 24 12Z" fill="#FF5700"/>
<path fill-rule="evenodd" clip-rule="evenodd" d="M14.1428 13.8977C13.6046 13.8977 13.1523 13.4652 13.1523 12.9319C13.1523 12.3986 13.6046 11.9518 14.1428 11.9518C14.681 11.9518 15.1175 12.3986 15.1175 12.9319C15.1175 13.4652 14.681 13.8977 14.1428 13.8977ZM14.3714 15.7723C13.8701 16.2686 13.097 16.5098 12.008 16.5098C12.0057 16.5098 12.003 16.5094 12.0003 16.5094C11.9981 16.5094 11.9954 16.5098 11.9927 16.5098C10.9037 16.5098 10.131 16.2686 9.63018 15.7723C9.47628 15.6198 9.47628 15.3732 9.63018 15.2212C9.78363 15.0691 10.0325 15.0691 10.1864 15.2212C10.532 15.5636 11.1228 15.7304 11.9927 15.7304C11.9954 15.7304 11.9981 15.7308 12.0003 15.7308C12.003 15.7308 12.0057 15.7304 12.008 15.7304C12.8778 15.7304 13.4691 15.5636 13.8152 15.2212C13.9691 15.0687 14.2179 15.0691 14.3714 15.2212C14.5248 15.3737 14.5248 15.6202 14.3714 15.7723ZM8.88408 12.9319C8.88408 12.3991 9.33543 11.9518 9.87318 11.9518C10.4114 11.9518 10.8479 12.3991 10.8479 12.9319C10.8479 13.4652 10.4114 13.8977 9.87318 13.8977C9.33543 13.8977 8.88408 13.4652 8.88408 12.9319ZM16.7996 6.77943C17.1641 6.77943 17.4606 7.07328 17.4606 7.43401C17.4606 7.79518 17.1641 8.08903 16.7996 8.08903C16.4351 8.08903 16.1385 7.79518 16.1385 7.43401C16.1385 7.07328 16.4351 6.77943 16.7996 6.77943ZM19.2008 11.8711C19.2008 10.9254 18.4245 10.1562 17.4701 10.1562C17.057 10.1562 16.6776 10.3007 16.3797 10.541C15.3245 9.88377 13.9853 9.48781 12.5498 9.40398L13.2986 7.05812L15.3564 7.53835C15.4104 8.28077 16.0368 8.86846 16.7996 8.86846C17.5974 8.86846 18.2468 8.22503 18.2468 7.43401C18.2468 6.64343 17.5974 6 16.7996 6C16.2416 6 15.7565 6.3148 15.5148 6.77452L13.1235 6.21671C12.9233 6.16989 12.7208 6.28404 12.6587 6.47845L11.729 9.39016C10.1823 9.42762 8.72838 9.82491 7.59573 10.5205C7.30188 10.2927 6.93243 10.1562 6.53148 10.1562C5.57703 10.1562 4.80078 10.9254 4.80078 11.8711C4.80078 12.4557 5.09778 12.9725 5.55003 13.282C5.53113 13.418 5.52123 13.5548 5.52123 13.6935C5.52123 14.8756 6.21468 15.9752 7.47378 16.7894C8.68068 17.5702 10.2782 18 11.9715 18C13.6649 18 15.2624 17.5702 16.4693 16.7894C17.7284 15.9752 18.4218 14.8756 18.4218 13.6935C18.4218 13.5673 18.4133 13.442 18.3975 13.3176C18.8799 13.0131 19.2008 12.4784 19.2008 11.8711Z" fill="white"/>
</svg>
