<svg width="20" height="20" viewBox="0 0 20 20" fill="none" xmlns="http://www.w3.org/2000/svg">
<path fill-rule="evenodd" clip-rule="evenodd" d="M6.9114 4.41074L8.57806 2.74408C8.9035 2.41864 9.43114 2.41864 9.75657 2.74408C10.057 3.04448 10.0801 3.51717 9.8259 3.84408L9.75657 3.92259L9.49162 4.18585C9.66032 4.17309 9.83009 4.16667 10.0007 4.16667C13.6826 4.16667 16.6673 7.15143 16.6673 10.8333C16.6673 14.5152 13.6826 17.5 10.0007 17.5C6.31875 17.5 3.33398 14.5152 3.33398 10.8333C3.33398 10.3731 3.70708 10 4.16732 10C4.62756 10 5.00065 10.3731 5.00065 10.8333C5.00065 13.5948 7.23923 15.8333 10.0007 15.8333C12.7621 15.8333 15.0007 13.5948 15.0007 10.8333C15.0007 8.07191 12.7621 5.83333 10.0007 5.83333C9.84476 5.83333 9.68992 5.84044 9.53644 5.85454L9.75657 6.07741C10.082 6.40285 10.082 6.93049 9.75657 7.25592C9.45617 7.55633 8.98348 7.57943 8.65657 7.32525L8.57806 7.25592L6.9114 5.58926C6.61099 5.28885 6.58788 4.81616 6.84207 4.48925L6.9114 4.41074L8.57806 2.74408L6.9114 4.41074Z" fill="white"/>
</svg>
