<svg width="24" height="24" viewBox="0 0 24 24" fill="none" xmlns="http://www.w3.org/2000/svg">
<rect width="24" height="24" rx="12" fill="#8073ff"/>
<path d="M13.9084 8.19995H7V16H8.92283V13.4623H12.6073L14.2883 16H16.4414L14.5876 13.4506C15.1633 13.357 15.5779 13.1348 15.8312 12.784C16.0845 12.4332 16.2111 11.8719 16.2111 11.1235V10.5388C16.2111 10.0943 16.1651 9.74354 16.0845 9.47457C16.0039 9.2056 15.8657 8.97171 15.67 8.76127C15.4627 8.56245 15.2325 8.42208 14.9561 8.32855C14.6798 8.24671 14.3343 8.19995 13.9083 8.19995H13.9084ZM13.5976 11.7432H8.92276V9.91898H13.5976C13.8625 9.91898 14.0466 9.96574 14.1388 10.0476C14.2307 10.1294 14.2883 10.2815 14.2883 10.5037V11.1585C14.2883 11.3924 14.2307 11.5445 14.1387 11.6263C14.0466 11.7082 13.8623 11.7432 13.5976 11.7432Z" fill="white"/>
<path d="M17.7219 7.8C18.428 7.8 19.0004 7.1732 19.0004 6.4C19.0004 5.6268 18.428 5 17.7219 5C17.0158 5 16.4434 5.6268 16.4434 6.4C16.4434 7.1732 17.0158 7.8 17.7219 7.8Z" fill="white"/>
</svg>
