<svg width="16" height="16" viewBox="0 0 16 16" fill="none" xmlns="http://www.w3.org/2000/svg">
<path fill-rule="evenodd" clip-rule="evenodd" d="M7.33398 1.33301C10.6477 1.33301 13.334 4.0193 13.334 7.33301C13.334 8.74953 12.8431 10.0514 12.0222 11.0778L14.4721 13.5283C14.7324 13.7886 14.7324 14.2107 14.4721 14.4711C14.2317 14.7114 13.8536 14.7299 13.5921 14.5265L13.5292 14.4711L11.0788 12.0212C10.0524 12.8421 8.7505 13.333 7.33398 13.333C4.02028 13.333 1.33398 10.6467 1.33398 7.33301C1.33398 4.0193 4.02028 1.33301 7.33398 1.33301ZM7.33398 2.66634C4.75666 2.66634 2.66732 4.75568 2.66732 7.33301C2.66732 9.91034 4.75666 11.9997 7.33398 11.9997C9.91131 11.9997 12.0007 9.91034 12.0007 7.33301C12.0007 4.75568 9.91131 2.66634 7.33398 2.66634Z" fill="#8C8C8C"/>
</svg>
