<svg width="24" height="24" viewBox="0 0 24 24" fill="none" xmlns="http://www.w3.org/2000/svg">
<path fill-rule="evenodd" clip-rule="evenodd" d="M11 1.99982C15.9706 1.99982 20 6.02925 20 10.9998C20 13.1246 19.2637 15.0774 18.0323 16.617L21.7071 20.2927C22.0976 20.6832 22.0976 21.3164 21.7071 21.7069C21.3466 22.0674 20.7794 22.0951 20.3871 21.7901L20.2929 21.7069L16.6172 18.0321C15.0776 19.2635 13.1248 19.9998 11 19.9998C6.02944 19.9998 2 15.9704 2 10.9998C2 6.02925 6.02944 1.99982 11 1.99982ZM11 3.99982C7.13401 3.99982 4 7.13382 4 10.9998C4 14.8658 7.13401 17.9998 11 17.9998C14.866 17.9998 18 14.8658 18 10.9998C18 7.13382 14.866 3.99982 11 3.99982Z" fill="#8073FF"/>
</svg>
