<svg width="24" height="24" viewBox="0 0 24 24" fill="none" xmlns="http://www.w3.org/2000/svg">
<g clip-path="url(#clip0_1672_5141)">
<rect width="24" height="24" rx="12" fill="#111111"/>
<path d="M17.9815 9.16566C17.5676 9.16566 17.1577 9.08413 16.7753 8.92573C16.3928 8.76732 16.0454 8.53514 15.7526 8.24244C15.4599 7.94974 15.2278 7.60225 15.0693 7.21982C14.9109 6.83738 14.8294 6.42749 14.8294 6.01355H12.5774V14.832C12.577 15.234 12.45 15.6258 12.2145 15.9516C11.979 16.2775 11.647 16.521 11.2654 16.6476C10.8838 16.7742 10.472 16.7774 10.0884 16.6569C9.70485 16.5364 9.36894 16.2983 9.12828 15.9762C8.88763 15.6541 8.75446 15.2645 8.74762 14.8625C8.74079 14.4605 8.86066 14.0665 9.09022 13.7365C9.31979 13.4064 9.64742 13.157 10.0267 13.0235C10.4059 12.89 10.8176 12.8793 11.2032 12.9929V10.8038C10.3836 10.6933 9.54974 10.8354 8.81302 11.2113C8.07629 11.5871 7.47177 12.1788 7.08017 12.9073C6.68857 13.6358 6.52853 14.4664 6.62142 15.2882C6.71432 16.1101 7.05572 16.884 7.60005 17.5067C8.14438 18.1294 8.86572 18.5712 9.66775 18.7731C10.4698 18.9751 11.3143 18.9275 12.0886 18.6368C12.8629 18.3461 13.5301 17.8261 14.0011 17.1463C14.4721 16.4664 14.7245 15.6591 14.7245 14.832L14.7899 10.3745C15.7151 11.0538 16.8334 11.4193 17.9813 11.4176L17.9815 9.16566Z" fill="url(#paint0_linear_1672_5141)"/>
<path d="M17.3857 8.55217C16.5497 8.55215 15.748 8.22004 15.1569 7.6289C14.5658 7.03775 14.2337 6.23601 14.2337 5.40002H11.9817V14.2185C11.9813 14.6205 11.8543 15.0122 11.6189 15.3381C11.3834 15.664 11.0513 15.9075 10.6697 16.0341C10.2881 16.1607 9.87632 16.164 9.49275 16.0435C9.10917 15.923 8.77325 15.6848 8.5326 15.3627C8.29194 15.0407 8.15876 14.651 8.15192 14.249C8.14509 13.847 8.26495 13.4531 8.49452 13.123C8.72409 12.7929 9.05171 12.5435 9.43097 12.41C9.81022 12.2766 10.2219 12.2658 10.6075 12.3794V10.1903C9.7879 10.0797 8.95404 10.2219 8.21732 10.5978C7.48059 10.9736 6.87607 11.5653 6.48447 12.2938C6.09287 13.0223 5.93283 13.8529 6.02572 14.6747C6.11862 15.4965 6.46002 16.2705 7.00435 16.8932C7.54868 17.5159 8.27002 17.9577 9.07205 18.1596C9.87409 18.3615 10.7186 18.314 11.4929 18.0233C12.2672 17.7326 12.9344 17.2126 13.4054 16.5327C13.8764 15.8529 14.1288 15.0455 14.1288 14.2185L14.1945 9.76102C15.1198 10.4403 16.2381 10.8058 17.3859 10.804L17.3857 8.55217Z" fill="url(#paint1_linear_1672_5141)"/>
<path d="M17.3856 9.10929C16.6064 8.95936 15.9125 8.52109 15.4422 7.88197C14.8479 7.41683 14.4402 6.75384 14.2934 6.01355H12.5769V14.832C12.5769 15.2505 12.4399 15.6575 12.1869 15.9909C11.9339 16.3243 11.5787 16.5657 11.1756 16.6783C10.7725 16.791 10.3437 16.7686 9.95447 16.6147C9.56529 16.4607 9.23717 16.1837 9.02019 15.8258C8.63434 15.5746 8.35174 15.193 8.22403 14.7507C8.09632 14.3084 8.13202 13.8349 8.32461 13.4167C8.5172 12.9986 8.85382 12.6637 9.27296 12.4732C9.6921 12.2828 10.1658 12.2495 10.6074 12.3794V10.7685C9.84988 10.7783 9.11014 10.9996 8.47171 11.4075C7.83327 11.8154 7.32156 12.3936 6.99433 13.0769C6.66711 13.7602 6.5374 14.5214 6.61984 15.2745C6.70228 16.0276 6.9936 16.7427 7.46091 17.339C8.05417 17.834 8.77625 18.1497 9.54252 18.2489C10.3088 18.3482 11.0875 18.227 11.7873 17.8995C12.4871 17.572 13.0791 17.0517 13.4938 16.3998C13.9085 15.7478 14.1287 14.9912 14.1287 14.2185L14.1944 9.76106C15.1197 10.4403 16.238 10.8058 17.3858 10.8041L17.3856 9.10929Z" fill="url(#paint2_linear_1672_5141)"/>
</g>
<defs>
<linearGradient id="paint0_linear_1672_5141" x1="7.49825" y1="17.4173" x2="16.8657" y2="8.04981" gradientUnits="userSpaceOnUse">
<stop stop-color="#B5053C"/>
<stop offset="0.233" stop-color="#C90441"/>
<stop offset="0.737" stop-color="#F0014B"/>
<stop offset="1" stop-color="#FF004F"/>
</linearGradient>
<linearGradient id="paint1_linear_1672_5141" x1="6.76298" y1="16.9432" x2="16.6304" y2="7.07582" gradientUnits="userSpaceOnUse">
<stop stop-color="#00B2C9"/>
<stop offset="0.283" stop-color="#00C8D4"/>
<stop offset="0.741" stop-color="#00E6E4"/>
<stop offset="1" stop-color="#00F1EA"/>
</linearGradient>
<linearGradient id="paint2_linear_1672_5141" x1="1.23467" y1="23.0759" x2="23.0763" y2="1.2343" gradientUnits="userSpaceOnUse">
<stop stop-color="#DDE3E4"/>
<stop offset="1" stop-color="#FCF7F7"/>
</linearGradient>
<clipPath id="clip0_1672_5141">
<rect width="24" height="24" fill="white"/>
</clipPath>
</defs>
</svg>
