<svg width="24" height="24" viewBox="0 0 24 24" fill="none" xmlns="http://www.w3.org/2000/svg">
<g clip-path="url(#clip0_1660_7745)">
<rect width="24" height="24" rx="12" fill="#8073ff"/>
<path d="M17.9853 8.55205C17.1494 8.55203 16.3476 8.21991 15.7565 7.62877C15.1654 7.03763 14.8333 6.23588 14.8333 5.3999H12.5813V14.2183C12.5809 14.6204 12.4539 15.0121 12.2185 15.338C11.983 15.6639 11.6509 15.9073 11.2693 16.0339C10.8877 16.1605 10.4759 16.1638 10.0924 16.0433C9.70878 15.9228 9.37286 15.6847 9.13221 15.3626C8.89155 15.0405 8.75837 14.6509 8.75153 14.2489C8.7447 13.8469 8.86456 13.4529 9.09413 13.1229C9.32369 12.7928 9.65132 12.5434 10.0306 12.4099C10.4098 12.2764 10.8215 12.2657 11.2072 12.3793V10.1901C10.3875 10.0796 9.55365 10.2218 8.81693 10.5976C8.0802 10.9735 7.47568 11.5652 7.08408 12.2937C6.69248 13.0221 6.53244 13.8528 6.62533 14.6746C6.71822 15.4964 7.05963 16.2703 7.60396 16.893C8.14829 17.5157 8.86963 17.9575 9.67166 18.1595C10.4737 18.3614 11.3183 18.3139 12.0925 18.0232C12.8668 17.7325 13.534 17.2125 14.005 16.5326C14.476 15.8528 14.7284 15.0454 14.7284 14.2183L14.7941 9.7609C15.7194 10.4402 16.8377 10.8056 17.9856 10.8039L17.9853 8.55205Z" fill="white"/>
</g>
<defs>
<clipPath id="clip0_1660_7745">
<rect width="24" height="24" fill="white"/>
</clipPath>
</defs>
</svg>
