<svg width="20" height="20" viewBox="0 0 20 20" fill="none" xmlns="http://www.w3.org/2000/svg">
<path fill-rule="evenodd" clip-rule="evenodd" d="M9.99935 1.66667C14.6017 1.66667 18.3327 5.39763 18.3327 10C18.3327 14.6024 14.6017 18.3333 9.99935 18.3333C5.39698 18.3333 1.66602 14.6024 1.66602 10C1.66602 5.39763 5.39698 1.66667 9.99935 1.66667ZM9.99935 3.33334C6.31745 3.33334 3.33268 6.31811 3.33268 10C3.33268 13.6819 6.31745 16.6667 9.99935 16.6667C13.6812 16.6667 16.666 13.6819 16.666 10C16.666 6.31811 13.6812 3.33334 9.99935 3.33334ZM9.99935 5.00001C10.4267 5.00001 10.7789 5.32171 10.8271 5.73615L10.8327 5.83334V9.65483L12.2553 11.0774C12.5807 11.4029 12.5807 11.9305 12.2553 12.2559C11.9549 12.5563 11.4822 12.5794 11.1553 12.3253L11.0768 12.2559L9.41009 10.5893C9.27986 10.459 9.19718 10.2901 9.17324 10.1095L9.16602 10V5.83334C9.16602 5.3731 9.53911 5.00001 9.99935 5.00001Z" fill="#8073FF"/>
</svg>
