<svg width="20" height="20" viewBox="0 0 20 20" fill="none" xmlns="http://www.w3.org/2000/svg">
<path fill-rule="evenodd" clip-rule="evenodd" d="M9.99935 3.33333C12.9892 3.33333 15.6288 5.36034 17.9254 9.28626L18.097 9.58426L18.3327 9.99999L17.9254 10.7137C15.6288 14.6396 12.9892 16.6667 9.99935 16.6667C7.00947 16.6667 4.36988 14.6396 2.0733 10.7137L1.9017 10.4157L1.66602 9.99999L1.9017 9.58426C4.23812 5.46296 6.93473 3.33333 9.99935 3.33333ZM9.99935 4.99999C7.74678 4.99999 5.60625 6.59628 3.58712 9.99999C5.60625 13.4037 7.74678 15 9.99935 15C12.1907 15 14.2734 13.4917 16.2386 10.2873L16.4116 10.0001L16.2383 9.71277C14.2701 6.50639 12.1876 4.99999 9.99935 4.99999ZM9.99935 7.49999C11.3801 7.49999 12.4993 8.61928 12.4993 9.99999C12.4993 11.3807 11.3801 12.5 9.99935 12.5C8.61864 12.5 7.49935 11.3807 7.49935 9.99999C7.49935 8.61928 8.61864 7.49999 9.99935 7.49999Z" fill="#8073FF"/>
</svg>
