<svg width="24" height="24" viewBox="0 0 24 24" fill="none" xmlns="http://www.w3.org/2000/svg">
<rect width="24" height="24" rx="12" fill="#F40000"/>
<path fill-rule="evenodd" clip-rule="evenodd" d="M6.75788 16.2341C6.52253 16.1645 6.30778 16.0406 6.13176 15.8729C5.95575 15.7053 5.82363 15.4987 5.74656 15.2707C5.30614 14.0924 5.17565 9.17216 6.02386 8.20084C6.30616 7.88487 6.70473 7.69033 7.13305 7.65946C9.40853 7.42061 16.4389 7.45245 17.2463 7.73907C17.4734 7.81099 17.6809 7.93215 17.8532 8.09347C18.0255 8.25479 18.1582 8.45209 18.2413 8.67058C18.7225 9.8887 18.7388 14.3153 18.1761 15.4857C18.0268 15.7903 17.7769 16.0371 17.4665 16.1863C16.6183 16.6003 7.88339 16.5924 6.75788 16.2341ZM10.3709 13.9252L14.4488 11.8552L10.3709 9.76928V13.9252Z" fill="white"/>
</svg>
