<svg width="356" height="49" viewBox="0 0 356 49" fill="none" xmlns="http://www.w3.org/2000/svg">
<rect x="117.846" width="238.151" height="49" rx="24.5" fill="white"/>
<path d="M67.998 44.0092V30.9143H74.0332L76.8094 30.9967L98.174 30.9967L100.025 30.9143L108.474 30.9143V44.0092H101.393V37.75L75.0793 37.75V44.0092H67.998ZM74.3551 6.86578L103.244 6.86578V35.444L95.6392 35.444V10.1189L99.0592 13.6603L78.4188 13.6603L81.5571 11.066C81.7449 12.4112 81.8656 13.7152 81.9192 14.978C81.9729 16.2134 81.9997 17.3939 81.9997 18.5194C81.9997 21.8138 81.7315 24.5865 81.195 26.8376C80.6585 29.0887 79.8538 30.8045 78.7809 31.985C77.7348 33.138 76.4339 33.7145 74.8782 33.7145L71.6996 30.9967C72.7994 29.7064 73.6175 27.9083 74.1539 25.6022C74.6904 23.2688 74.9586 20.3862 74.9586 16.9546C74.9586 15.3898 74.905 13.7701 74.7977 12.0955C74.6904 10.3935 74.5429 8.65021 74.3551 6.86578Z" fill="white"/>
<path d="M49.0306 38.4083C45.4899 38.4083 42.3784 37.7357 39.6961 36.3905C37.0407 35.0453 34.9753 33.1648 33.5 30.749C32.0247 28.3331 31.2871 25.5192 31.2871 22.3073C31.2871 19.0953 32.0247 16.2814 33.5 13.8656C34.9753 11.4498 37.0407 9.56925 39.6961 8.22407C42.3784 6.87889 45.4899 6.2063 49.0306 6.2063C52.5712 6.2063 55.6693 6.87889 58.3248 8.22407C61.0071 9.56925 63.0859 11.4498 64.5611 13.8656C66.0632 16.2814 66.8143 19.0953 66.8143 22.3073C66.8143 25.5192 66.0632 28.3331 64.5611 30.749C63.0859 33.1648 61.0071 35.0453 58.3248 36.3905C55.6693 37.7357 52.5712 38.4083 49.0306 38.4083ZM49.0306 31.449C51.1228 31.449 52.9199 31.0921 54.422 30.3784C55.9241 29.6371 57.0775 28.5802 57.8822 27.2076C58.7137 25.835 59.1295 24.2015 59.1295 22.3073C59.1295 20.4131 58.7137 18.7796 57.8822 17.407C57.0775 16.0344 55.9241 14.9912 54.422 14.2774C52.9199 13.5362 51.1228 13.1656 49.0306 13.1656C46.9652 13.1656 45.1815 13.5362 43.6794 14.2774C42.1773 14.9912 41.0105 16.0344 40.179 17.407C39.3474 18.7796 38.9317 20.4131 38.9317 22.3073C38.9317 24.2015 39.3474 25.835 40.179 27.2076C41.0105 28.5802 42.1773 29.6371 43.6794 30.3784C45.1815 31.0921 46.9652 31.449 49.0306 31.449Z" fill="white"/>
<path fill-rule="evenodd" clip-rule="evenodd" d="M0 7.25928L0 38.1435H6.83988L13.2599 30.078L9.90118 24.6539L7.56411 27.6707L7.56411 7.25928L0 7.25928Z" fill="white"/>
<path fill-rule="evenodd" clip-rule="evenodd" d="M13.502 20.7382L15.0194 23.1887L16.8972 26.2212L24.2798 38.1435H32.393L21.6283 20.2776L31.9906 7.25928L23.9437 7.25928L13.502 20.7382Z" fill="white"/>
<path d="M322.482 31.3636V18.4916H325.601V29.6816L324.679 29.4928L332.225 18.4916L336.35 18.4916V31.3636H333.248V19.9848L334.154 20.1736L326.507 31.3636H322.482Z" fill="#6924FF"/>
<path d="M306.17 31.3604V18.4885H309.289V29.6785L308.367 29.4897L315.913 18.4885L320.038 18.4885V31.3604H316.936V19.9817L317.841 20.1705L310.194 31.3604H306.17Z" fill="#6924FF"/>
<path d="M302.298 18.4885V29.5412L301.192 28.4943H304.478V33.9692H301.51V30.7769L302.483 31.3605H289.336V18.4885H292.505V29.5412L291.482 28.4943H300.236L299.129 29.5412V18.4885L302.298 18.4885Z" fill="#6924FF"/>
<path d="M275.783 28.772V26.1461H284.469V28.772H275.783ZM282.255 18.4916L288.057 31.3636H284.687L279.706 19.8475H280.679L275.715 31.3636H272.328L278.147 18.4916H282.255Z" fill="#6924FF"/>
<path d="M265.841 31.6367C264.533 31.6367 263.387 31.4479 262.403 31.0703C261.419 30.6928 260.653 30.1607 260.106 29.4742C259.558 28.7763 259.262 27.9639 259.217 27.0371H262.386C262.476 27.7122 262.811 28.2328 263.392 28.5989C263.974 28.9536 264.79 29.131 265.841 29.131C266.824 29.131 267.585 28.9879 268.121 28.7019C268.669 28.4159 268.943 27.9868 268.943 27.4147C268.943 26.9227 268.714 26.5623 268.255 26.3335C267.797 26.1046 267.053 25.9902 266.025 25.9902H263.677V23.8277H265.975C266.578 23.8277 267.076 23.7648 267.467 23.6389C267.87 23.5131 268.166 23.3357 268.356 23.1069C268.546 22.8781 268.641 22.6149 268.641 22.3174C268.641 21.9742 268.529 21.6824 268.306 21.4421C268.082 21.2019 267.763 21.0245 267.35 20.9101C266.936 20.7842 266.439 20.7213 265.857 20.7213C264.907 20.7213 264.152 20.8987 263.593 21.2533C263.046 21.5966 262.722 22.0829 262.621 22.7122H259.485C259.541 21.8769 259.826 21.1218 260.34 20.4467C260.866 19.7716 261.604 19.2339 262.554 18.8334C263.515 18.4215 264.667 18.2156 266.008 18.2156C267.193 18.2156 268.222 18.37 269.094 18.679C269.966 18.9879 270.642 19.4112 271.123 19.949C271.615 20.4868 271.861 21.1103 271.861 21.8197C271.861 22.4032 271.687 22.941 271.341 23.433C271.005 23.925 270.474 24.314 269.748 24.6C269.032 24.8861 268.104 25.0234 266.964 25.012V24.6687C268.048 24.6115 268.976 24.6916 269.748 24.909C270.53 25.1149 271.128 25.4467 271.542 25.9044C271.967 26.3621 272.179 26.9456 272.179 27.655C272.179 28.433 271.933 29.1252 271.441 29.7317C270.949 30.3266 270.228 30.7957 269.278 31.139C268.339 31.4708 267.193 31.6367 265.841 31.6367Z" fill="#6924FF"/>
<path d="M243.736 31.3604V18.4885H246.855V29.6785L245.933 29.4897L253.479 18.4885L257.604 18.4885V31.3604H254.502V19.9817L255.408 20.1705L247.761 31.3604H243.736Z" fill="#6924FF"/>
<path d="M234.143 19.9302H237.312V31.3604H234.143V19.9302ZM229.246 18.4885L242.208 18.4885V21.3547L229.246 21.3547V18.4885Z" fill="#6924FF"/>
<path d="M218.675 28.7689V26.143H227.361V28.7689H218.675ZM225.148 18.4885L230.95 31.3604H227.579L222.599 19.8444H223.572L218.608 31.3604H215.221L221.04 18.4885H225.148Z" fill="#6924FF"/>
<path d="M213.97 18.4885V31.3604L210.952 31.3604V19.6213L211.689 19.6727L206.575 31.3604H203.338L198.224 19.7071L198.962 19.6384V31.3604H195.943V18.4885H200.823L205.602 29.7472H204.328L209.09 18.4885H213.97Z" fill="#6924FF"/>
<path d="M186.659 31.6367C185.183 31.6367 183.886 31.3564 182.768 30.7957C181.662 30.2351 180.801 29.4513 180.186 28.4445C179.571 27.4376 179.264 26.2648 179.264 24.9261C179.264 23.5875 179.571 22.4147 180.186 21.4078C180.801 20.4009 181.662 19.6172 182.768 19.0565C183.886 18.4959 185.183 18.2156 186.659 18.2156C188.134 18.2156 189.426 18.4959 190.532 19.0565C191.65 19.6172 192.517 20.4009 193.132 21.4078C193.758 22.4147 194.071 23.5875 194.071 24.9261C194.071 26.2648 193.758 27.4376 193.132 28.4445C192.517 29.4513 191.65 30.2351 190.532 30.7957C189.426 31.3564 188.134 31.6367 186.659 31.6367ZM186.659 28.7362C187.531 28.7362 188.28 28.5875 188.906 28.29C189.532 27.9811 190.013 27.5406 190.348 26.9685C190.695 26.3964 190.868 25.7156 190.868 24.9261C190.868 24.1367 190.695 23.4559 190.348 22.8838C190.013 22.3117 189.532 21.8769 188.906 21.5794C188.28 21.2705 187.531 21.116 186.659 21.116C185.798 21.116 185.055 21.2705 184.429 21.5794C183.802 21.8769 183.316 22.3117 182.97 22.8838C182.623 23.4559 182.45 24.1367 182.45 24.9261C182.45 25.7156 182.623 26.3964 182.97 26.9685C183.316 27.5406 183.802 27.9811 184.429 28.29C185.055 28.5875 185.798 28.7362 186.659 28.7362Z" fill="#6924FF"/>
<path d="M170.801 19.9302H173.97V31.3604H170.801V19.9302ZM165.904 18.4885L178.867 18.4885V21.3547L165.904 21.3547V18.4885Z" fill="#6924FF"/>
<path d="M160.954 25.0446L161.222 24.4096C162.206 24.4325 163.011 24.587 163.637 24.873C164.274 25.159 164.744 25.5538 165.046 26.0572C165.359 26.5492 165.515 27.1156 165.515 27.7563C165.515 28.4543 165.359 29.0778 165.046 29.627C164.733 30.1648 164.263 30.5881 163.637 30.8971C163.022 31.206 162.251 31.3604 161.323 31.3604H152.268L153.24 24.7529L152.268 18.4885H161.004C162.167 18.4885 163.067 18.7688 163.704 19.3295C164.352 19.8787 164.677 20.6396 164.677 21.6121C164.677 22.1499 164.554 22.6648 164.308 23.1567C164.062 23.6487 163.67 24.0664 163.134 24.4096C162.597 24.7414 161.871 24.9531 160.954 25.0446ZM155.387 30.571L154.179 29.0435H160.568C161.116 29.0435 161.541 28.9119 161.843 28.6488C162.156 28.3742 162.312 27.9909 162.312 27.4989C162.312 27.0069 162.139 26.6179 161.792 26.3318C161.457 26.0343 160.954 25.8856 160.283 25.8856H155.051V23.6201H159.881C160.339 23.6201 160.719 23.4886 161.021 23.2254C161.323 22.9508 161.474 22.5789 161.474 22.1098C161.474 21.7323 161.34 21.4233 161.071 21.183C160.814 20.9313 160.445 20.8055 159.965 20.8055H154.196L155.387 19.278L156.275 24.7529L155.387 30.571Z" fill="#6924FF"/>
<path d="M139.091 28.772V26.1461H147.777V28.772H139.091ZM145.564 18.4916L151.366 31.3636H147.995L143.015 19.8475H143.988L139.024 31.3636H135.637L141.456 18.4916H145.564Z" fill="#6924FF"/>
</svg>
