<svg width="90" height="20" viewBox="0 0 90 20" fill="none" xmlns="http://www.w3.org/2000/svg">
<g clip-path="url(#clip0_899_2948)">
<path d="M28.1013 3.12348C27.7706 1.89347 26.7994 0.926865 25.5638 0.597609C23.3264 0.000244319 14.3507 0.000244141 14.3507 0.000244141C14.3507 0.000244141 5.37501 0.000244319 3.13759 0.597609C1.90193 0.926865 0.930882 1.89347 0.600112 3.12348C1.79636e-07 5.35065 0 10.0002 0 10.0002C0 10.0002 1.79636e-07 14.6498 0.600112 16.877C0.930882 18.107 1.90193 19.0736 3.13759 19.4028C5.37501 20.0002 14.3507 20.0002 14.3507 20.0002C14.3507 20.0002 23.3264 20.0002 25.5638 19.4028C26.7994 19.0736 27.7706 18.107 28.1013 16.877C28.7014 14.6498 28.7014 10.0002 28.7014 10.0002C28.7014 10.0002 28.699 5.35065 28.1013 3.12348Z" fill="#FF0000"/>
<path d="M11.4785 14.2851L18.935 10.0001L11.4785 5.71509V14.2851Z" fill="white"/>
<path d="M34.7617 13.0036L31.5391 1.41846H34.3506L35.48 6.67009C35.7682 7.96359 35.9785 9.0666 36.1155 9.97911H36.1982C36.2927 9.3253 36.5054 8.22935 36.8338 6.68891L38.0032 1.41846H40.8148L37.552 13.0036V18.561H34.7594V13.0036H34.7617Z" fill="white"/>
<path d="M41.6609 18.1937C41.0939 17.8127 40.6899 17.22 40.4489 16.4157C40.2103 15.6114 40.0898 14.5437 40.0898 13.2078V11.3898C40.0898 10.0422 40.2269 8.95804 40.5009 8.14196C40.775 7.32588 41.2026 6.72851 41.7838 6.35457C42.3651 5.98063 43.1281 5.79248 44.0733 5.79248C45.0041 5.79248 45.7483 5.98298 46.3106 6.36398C46.8706 6.74497 47.2816 7.34234 47.5415 8.15137C47.8014 8.96274 47.9314 10.0422 47.9314 11.3898V13.2078C47.9314 14.5437 47.8038 15.6161 47.5511 16.4251C47.2982 17.2365 46.8871 17.8292 46.32 18.2031C45.7531 18.5771 44.9828 18.7652 44.0118 18.7652C43.01 18.7675 42.228 18.5747 41.6609 18.1937ZM44.8411 16.2323C44.997 15.8231 45.0774 15.1575 45.0774 14.2309V10.3292C45.0774 9.43076 44.9994 8.77224 44.8411 8.35832C44.6828 7.94206 44.4064 7.7351 44.0094 7.7351C43.6267 7.7351 43.355 7.94206 43.1991 8.35832C43.0407 8.7746 42.9628 9.43076 42.9628 10.3292V14.2309C42.9628 15.1575 43.0383 15.8254 43.1896 16.2323C43.3408 16.6415 43.6125 16.8461 44.0094 16.8461C44.4064 16.8461 44.6828 16.6415 44.8411 16.2323Z" fill="white"/>
<path d="M57.0766 18.5634H54.8605L54.6147 17.03H54.5534C53.9508 18.1871 53.0483 18.7656 51.8434 18.7656C51.0093 18.7656 50.3927 18.4928 49.9958 17.9496C49.5989 17.4039 49.4004 16.5526 49.4004 15.3955V6.03751H52.2333V15.2308C52.2333 15.7906 52.2946 16.188 52.4175 16.4256C52.5404 16.6631 52.7459 16.783 53.0341 16.783C53.2798 16.783 53.5161 16.7078 53.743 16.5573C53.9698 16.4067 54.1352 16.2162 54.2462 15.9858V6.03516H57.0766V18.5634Z" fill="white"/>
<path d="M64.7715 3.68758H61.9599V18.5629H59.1885V3.68758H56.377V1.42041H64.7715V3.68758Z" fill="white"/>
<path d="M71.604 18.5634H69.3878L69.1421 17.03H69.0807C68.4783 18.1871 67.5757 18.7656 66.3707 18.7656C65.5367 18.7656 64.9201 18.4928 64.5232 17.9496C64.1262 17.4039 63.9277 16.5526 63.9277 15.3955V6.03751H66.7606V15.2308C66.7606 15.7906 66.822 16.188 66.9448 16.4256C67.0677 16.6631 67.2732 16.783 67.5616 16.783C67.8072 16.783 68.0435 16.7078 68.2703 16.5573C68.4971 16.4067 68.6625 16.2162 68.7735 15.9858V6.03516H71.604V18.5634Z" fill="white"/>
<path d="M80.9793 8.03868C80.8068 7.24848 80.5303 6.67698 80.1477 6.32185C79.7649 5.96673 79.238 5.79034 78.567 5.79034C78.0473 5.79034 77.5605 5.93615 77.1093 6.23013C76.658 6.52411 76.3083 6.90746 76.0626 7.38488H76.0414V0.785645H73.3125V18.5608H75.6515L75.9397 17.3755H76.0012C76.2209 17.7988 76.5493 18.1304 76.9864 18.3774C77.4235 18.622 77.9102 18.7443 78.4442 18.7443C79.4011 18.7443 80.1075 18.3045 80.5588 17.4272C81.01 16.5476 81.2368 15.1765 81.2368 13.3092V11.3266C81.2368 9.9272 81.1494 8.8289 80.9793 8.03868ZM78.3827 13.1492C78.3827 14.0617 78.3449 14.7767 78.2693 15.2941C78.1937 15.8115 78.0685 16.1808 77.8889 16.3971C77.7117 16.6158 77.4707 16.724 77.1707 16.724C76.9368 16.724 76.7218 16.6699 76.5233 16.5594C76.3249 16.4512 76.1642 16.2866 76.0414 16.0702V8.9606C76.1358 8.61958 76.3013 8.34207 76.5351 8.12335C76.7667 7.90463 77.0219 7.79644 77.2935 7.79644C77.5818 7.79644 77.8038 7.90933 77.9599 8.13276C78.1181 8.35853 78.2268 8.73483 78.2883 9.26634C78.3496 9.79785 78.3804 10.5528 78.3804 11.5335V13.1492H78.3827Z" fill="white"/>
<path d="M85.2553 13.8712C85.2553 14.6755 85.2789 15.2776 85.3262 15.6798C85.3734 16.0819 85.4727 16.3736 85.6239 16.5594C85.7751 16.7428 86.0066 16.8345 86.3209 16.8345C86.7438 16.8345 87.0367 16.6699 87.1927 16.343C87.351 16.0161 87.4361 15.4705 87.4502 14.7085L89.8932 14.8519C89.9074 14.9601 89.9144 15.1106 89.9144 15.3011C89.9144 16.4582 89.5955 17.3237 88.9599 17.8952C88.3244 18.4667 87.4242 18.7536 86.2618 18.7536C84.8655 18.7536 83.8873 18.3185 83.3274 17.446C82.7651 16.5735 82.4863 15.2259 82.4863 13.4008V11.2136C82.4863 9.33452 82.777 7.96105 83.3581 7.09558C83.9394 6.2301 84.934 5.79736 86.3445 5.79736C87.3155 5.79736 88.0621 5.97375 88.5819 6.32888C89.1017 6.684 89.4679 7.23433 89.6805 7.98457C89.8932 8.7348 89.9995 9.7696 89.9995 11.0913V13.2362H85.2553V13.8712ZM85.6144 7.96811C85.4703 8.14449 85.3759 8.43377 85.3262 8.83593C85.2789 9.2381 85.2553 9.84721 85.2553 10.6657V11.5641H87.3274V10.6657C87.3274 9.86132 87.2991 9.25221 87.2447 8.83593C87.1904 8.41966 87.0911 8.12803 86.9469 7.95635C86.8029 7.78702 86.5808 7.7 86.2807 7.7C85.9783 7.70235 85.7562 7.79172 85.6144 7.96811Z" fill="white"/>
</g>
<defs>
<clipPath id="clip0_899_2948">
<rect width="90" height="20" fill="white"/>
</clipPath>
</defs>
</svg>
